<svg width="358" height="220" viewBox="0 0 358 220" fill="none" xmlns="http://www.w3.org/2000/svg">
<path d="M147.438 111.789V111.543C147.438 110.613 147.57 109.758 147.836 108.977C148.102 108.188 148.488 107.504 148.996 106.926C149.504 106.348 150.129 105.898 150.871 105.578C151.613 105.25 152.465 105.086 153.426 105.086C154.387 105.086 155.242 105.25 155.992 105.578C156.742 105.898 157.371 106.348 157.879 106.926C158.395 107.504 158.785 108.188 159.051 108.977C159.316 109.758 159.449 110.613 159.449 111.543V111.789C159.449 112.711 159.316 113.566 159.051 114.355C158.785 115.137 158.395 115.82 157.879 116.406C157.371 116.984 156.746 117.434 156.004 117.754C155.262 118.074 154.41 118.234 153.449 118.234C152.488 118.234 151.633 118.074 150.883 117.754C150.141 117.434 149.512 116.984 148.996 116.406C148.488 115.82 148.102 115.137 147.836 114.355C147.57 113.566 147.438 112.711 147.438 111.789ZM150.812 111.543V111.789C150.812 112.32 150.859 112.816 150.953 113.277C151.047 113.738 151.195 114.145 151.398 114.496C151.609 114.84 151.883 115.109 152.219 115.305C152.555 115.5 152.965 115.598 153.449 115.598C153.918 115.598 154.32 115.5 154.656 115.305C154.992 115.109 155.262 114.84 155.465 114.496C155.668 114.145 155.816 113.738 155.91 113.277C156.012 112.816 156.062 112.32 156.062 111.789V111.543C156.062 111.027 156.012 110.543 155.91 110.09C155.816 109.629 155.664 109.223 155.453 108.871C155.25 108.512 154.98 108.23 154.645 108.027C154.309 107.824 153.902 107.723 153.426 107.723C152.949 107.723 152.543 107.824 152.207 108.027C151.879 108.23 151.609 108.512 151.398 108.871C151.195 109.223 151.047 109.629 150.953 110.09C150.859 110.543 150.812 111.027 150.812 111.543ZM164.898 108.086V118H161.523V105.32H164.699L164.898 108.086ZM168.719 105.238L168.66 108.367C168.496 108.344 168.297 108.324 168.062 108.309C167.836 108.285 167.629 108.273 167.441 108.273C166.965 108.273 166.551 108.336 166.199 108.461C165.855 108.578 165.566 108.754 165.332 108.988C165.105 109.223 164.934 109.508 164.816 109.844C164.707 110.18 164.645 110.562 164.629 110.992L163.949 110.781C163.949 109.961 164.031 109.207 164.195 108.52C164.359 107.824 164.598 107.219 164.91 106.703C165.23 106.188 165.621 105.789 166.082 105.508C166.543 105.227 167.07 105.086 167.664 105.086C167.852 105.086 168.043 105.102 168.238 105.133C168.434 105.156 168.594 105.191 168.719 105.238Z" fill="black"/>
<path d="M28.7851 112.801V112.555C28.7851 111.891 28.7305 111.262 28.6211 110.668C28.5117 110.066 28.3515 109.52 28.1406 109.027C27.9375 108.59 27.7031 108.195 27.4375 107.844C27.1719 107.484 26.8711 107.18 26.5351 106.93C26.1601 106.664 25.7422 106.457 25.2812 106.309C24.8203 106.16 24.3164 106.086 23.7695 106.086C23.332 106.086 22.9258 106.129 22.5508 106.215C22.1758 106.301 21.832 106.426 21.5195 106.59C21.2695 106.723 21.0351 106.883 20.8164 107.07C20.5976 107.25 20.3984 107.453 20.2187 107.68V101H18.0508V119H20.043L20.1484 117.559C20.289 117.738 20.4375 117.902 20.5937 118.051C20.75 118.199 20.914 118.336 21.0859 118.461C21.4453 118.711 21.8476 118.902 22.293 119.035C22.7461 119.168 23.2461 119.234 23.793 119.234C24.2695 119.234 24.7109 119.176 25.1172 119.059C25.5312 118.941 25.9101 118.777 26.2539 118.566C26.7305 118.262 27.1367 117.879 27.4726 117.418C27.8164 116.949 28.0937 116.422 28.3047 115.836C28.4609 115.391 28.5781 114.914 28.6562 114.406C28.7422 113.891 28.7851 113.355 28.7851 112.801ZM26.6172 112.555V112.801C26.6172 113.176 26.5937 113.543 26.5469 113.902C26.5 114.262 26.4258 114.598 26.3242 114.91C26.1992 115.324 26.0312 115.699 25.8203 116.035C25.6094 116.371 25.3476 116.648 25.0351 116.867C24.8008 117.039 24.5351 117.172 24.2383 117.266C23.9414 117.352 23.6133 117.395 23.2539 117.395C22.8789 117.395 22.5351 117.348 22.2226 117.254C21.9101 117.152 21.6289 117.012 21.3789 116.832C21.1289 116.652 20.9062 116.445 20.7109 116.211C20.5234 115.969 20.3594 115.707 20.2187 115.426V109.883C20.3515 109.602 20.5117 109.344 20.6992 109.109C20.8945 108.867 21.1172 108.656 21.3672 108.477C21.6094 108.305 21.8867 108.172 22.1992 108.078C22.5117 107.977 22.8555 107.926 23.2305 107.926C23.5742 107.926 23.8867 107.965 24.168 108.043C24.4492 108.121 24.7031 108.23 24.9297 108.371C25.2578 108.566 25.5351 108.836 25.7617 109.18C25.9883 109.523 26.1719 109.902 26.3125 110.316C26.414 110.652 26.4883 111.012 26.5351 111.395C26.5898 111.77 26.6172 112.156 26.6172 112.555Z" fill="black"/>
<path d="M237.39 112.801V112.555C237.39 111.891 237.335 111.262 237.226 110.668C237.116 110.066 236.956 109.52 236.745 109.027C236.542 108.59 236.308 108.195 236.042 107.844C235.777 107.484 235.476 107.18 235.14 106.93C234.765 106.664 234.347 106.457 233.886 106.309C233.425 106.16 232.921 106.086 232.374 106.086C231.937 106.086 231.53 106.129 231.155 106.215C230.78 106.301 230.437 106.426 230.124 106.59C229.874 106.723 229.64 106.883 229.421 107.07C229.202 107.25 229.003 107.453 228.823 107.68V101H226.655V119H228.648L228.753 117.559C228.894 117.738 229.042 117.902 229.198 118.051C229.355 118.199 229.519 118.336 229.691 118.461C230.05 118.711 230.452 118.902 230.898 119.035C231.351 119.168 231.851 119.234 232.398 119.234C232.874 119.234 233.316 119.176 233.722 119.059C234.136 118.941 234.515 118.777 234.859 118.566C235.335 118.262 235.741 117.879 236.077 117.418C236.421 116.949 236.698 116.422 236.909 115.836C237.066 115.391 237.183 114.914 237.261 114.406C237.347 113.891 237.39 113.355 237.39 112.801ZM235.222 112.555V112.801C235.222 113.176 235.198 113.543 235.152 113.902C235.105 114.262 235.03 114.598 234.929 114.91C234.804 115.324 234.636 115.699 234.425 116.035C234.214 116.371 233.952 116.648 233.64 116.867C233.405 117.039 233.14 117.172 232.843 117.266C232.546 117.352 232.218 117.395 231.859 117.395C231.484 117.395 231.14 117.348 230.827 117.254C230.515 117.152 230.234 117.012 229.984 116.832C229.734 116.652 229.511 116.445 229.316 116.211C229.128 115.969 228.964 115.707 228.823 115.426V109.883C228.956 109.602 229.116 109.344 229.304 109.109C229.499 108.867 229.722 108.656 229.972 108.477C230.214 108.305 230.491 108.172 230.804 108.078C231.116 107.977 231.46 107.926 231.835 107.926C232.179 107.926 232.491 107.965 232.773 108.043C233.054 108.121 233.308 108.23 233.534 108.371C233.862 108.566 234.14 108.836 234.366 109.18C234.593 109.523 234.777 109.902 234.917 110.316C235.019 110.652 235.093 111.012 235.14 111.395C235.195 111.77 235.222 112.156 235.222 112.555Z" fill="black"/>
<path d="M90.3711 53H92.6328V52.8125C92.4922 52.4609 92.3828 52.0508 92.3047 51.582C92.2265 51.1055 92.1875 50.6562 92.1875 50.2344V44.3398C92.1875 43.6289 92.0586 43.0078 91.8008 42.4766C91.543 41.9453 91.1914 41.5 90.7461 41.1406C90.293 40.7891 89.7578 40.5273 89.1406 40.3555C88.5234 40.1758 87.8555 40.0859 87.1367 40.0859C86.3476 40.0859 85.6406 40.1953 85.0156 40.4141C84.3984 40.6328 83.875 40.918 83.4453 41.2695C83.0078 41.6289 82.6719 42.0312 82.4375 42.4766C82.2109 42.9219 82.0937 43.375 82.0859 43.8359H84.2656C84.2656 43.5703 84.3281 43.3164 84.4531 43.0742C84.5859 42.8242 84.7695 42.6094 85.0039 42.4297C85.2383 42.25 85.5234 42.1055 85.8594 41.9961C86.2031 41.8867 86.5898 41.832 87.0195 41.832C87.4805 41.832 87.8945 41.8906 88.2617 42.0078C88.6367 42.125 88.9531 42.2891 89.2109 42.5C89.4687 42.7188 89.668 42.9805 89.8086 43.2852C89.9492 43.5898 90.0195 43.9336 90.0195 44.3164V45.3125H87.6523C86.7695 45.3125 85.9687 45.3984 85.25 45.5703C84.539 45.7422 83.9297 46 83.4219 46.3438C82.914 46.6953 82.5195 47.1328 82.2383 47.6562C81.9648 48.1797 81.8281 48.7891 81.8281 49.4844C81.8281 50.0156 81.9297 50.5117 82.1328 50.9727C82.3437 51.4258 82.6406 51.8164 83.0234 52.1445C83.3984 52.4805 83.8555 52.7461 84.3945 52.9414C84.9414 53.1367 85.5508 53.2344 86.2226 53.2344C86.6367 53.2344 87.0273 53.1914 87.3945 53.1055C87.7617 53.0195 88.1094 52.9023 88.4375 52.7539C88.7578 52.6055 89.0508 52.4336 89.3164 52.2383C89.5898 52.043 89.8359 51.8359 90.0547 51.6172C90.0781 51.8828 90.1133 52.1406 90.1601 52.3906C90.2148 52.6328 90.2851 52.8359 90.3711 53ZM86.539 51.3477C86.1172 51.3477 85.7461 51.293 85.4258 51.1836C85.1055 51.0742 84.8398 50.9219 84.6289 50.7266C84.418 50.5391 84.2578 50.3125 84.1484 50.0469C84.0469 49.7812 83.9961 49.4922 83.9961 49.1797C83.9961 48.8516 84.0547 48.5586 84.1719 48.3008C84.2969 48.043 84.4765 47.8203 84.7109 47.6328C85.039 47.3672 85.4805 47.1719 86.0351 47.0469C86.5976 46.9141 87.2539 46.8477 88.0039 46.8477H90.0195V49.4141C89.8945 49.6641 89.7226 49.9062 89.5039 50.1406C89.2851 50.3672 89.0273 50.5703 88.7305 50.75C88.4258 50.9297 88.0898 51.0742 87.7226 51.1836C87.3555 51.293 86.9609 51.3477 86.539 51.3477Z" fill="black"/>
<path d="M298.976 53H301.237V52.8125C301.097 52.4609 300.987 52.0508 300.909 51.582C300.831 51.1055 300.792 50.6562 300.792 50.2344V44.3398C300.792 43.6289 300.663 43.0078 300.405 42.4766C300.148 41.9453 299.796 41.5 299.351 41.1406C298.898 40.7891 298.362 40.5273 297.745 40.3555C297.128 40.1758 296.46 40.0859 295.741 40.0859C294.952 40.0859 294.245 40.1953 293.62 40.4141C293.003 40.6328 292.48 40.918 292.05 41.2695C291.612 41.6289 291.277 42.0312 291.042 42.4766C290.816 42.9219 290.698 43.375 290.691 43.8359H292.87C292.87 43.5703 292.933 43.3164 293.058 43.0742C293.191 42.8242 293.374 42.6094 293.609 42.4297C293.843 42.25 294.128 42.1055 294.464 41.9961C294.808 41.8867 295.195 41.832 295.624 41.832C296.085 41.832 296.499 41.8906 296.866 42.0078C297.241 42.125 297.558 42.2891 297.816 42.5C298.073 42.7188 298.273 42.9805 298.413 43.2852C298.554 43.5898 298.624 43.9336 298.624 44.3164V45.3125H296.257C295.374 45.3125 294.573 45.3984 293.855 45.5703C293.144 45.7422 292.534 46 292.027 46.3438C291.519 46.6953 291.124 47.1328 290.843 47.6562C290.57 48.1797 290.433 48.7891 290.433 49.4844C290.433 50.0156 290.534 50.5117 290.737 50.9727C290.948 51.4258 291.245 51.8164 291.628 52.1445C292.003 52.4805 292.46 52.7461 292.999 52.9414C293.546 53.1367 294.155 53.2344 294.827 53.2344C295.241 53.2344 295.632 53.1914 295.999 53.1055C296.366 53.0195 296.714 52.9023 297.042 52.7539C297.362 52.6055 297.655 52.4336 297.921 52.2383C298.195 52.043 298.441 51.8359 298.659 51.6172C298.683 51.8828 298.718 52.1406 298.765 52.3906C298.82 52.6328 298.89 52.8359 298.976 53ZM295.144 51.3477C294.722 51.3477 294.351 51.293 294.03 51.1836C293.71 51.0742 293.445 50.9219 293.234 50.7266C293.023 50.5391 292.862 50.3125 292.753 50.0469C292.652 49.7812 292.601 49.4922 292.601 49.1797C292.601 48.8516 292.659 48.5586 292.777 48.3008C292.902 48.043 293.081 47.8203 293.316 47.6328C293.644 47.3672 294.085 47.1719 294.64 47.0469C295.202 46.9141 295.859 46.8477 296.609 46.8477H298.624V49.4141C298.499 49.6641 298.327 49.9062 298.109 50.1406C297.89 50.3672 297.632 50.5703 297.335 50.75C297.03 50.9297 296.695 51.0742 296.327 51.1836C295.96 51.293 295.566 51.3477 295.144 51.3477Z" fill="black"/>
<path d="M87.4414 183.477C86.7617 183.477 86.1914 183.344 85.7305 183.078C85.2773 182.805 84.914 182.449 84.6406 182.012C84.3594 181.582 84.1562 181.098 84.0312 180.559C83.914 180.012 83.8555 179.461 83.8555 178.906V178.414C83.8555 177.867 83.914 177.324 84.0312 176.785C84.1562 176.246 84.3594 175.758 84.6406 175.32C84.9219 174.891 85.289 174.543 85.7422 174.277C86.2031 174.004 86.7695 173.867 87.4414 173.867C87.8789 173.867 88.2851 173.941 88.6601 174.09C89.043 174.238 89.3711 174.441 89.6445 174.699C89.918 174.957 90.1328 175.258 90.289 175.602C90.4531 175.938 90.539 176.297 90.5469 176.68H92.5976C92.5976 176.039 92.4687 175.438 92.2109 174.875C91.9531 174.312 91.5976 173.824 91.1445 173.41C90.6836 173.004 90.1367 172.684 89.5039 172.449C88.8789 172.207 88.1914 172.086 87.4414 172.086C86.4805 172.086 85.6406 172.258 84.9219 172.602C84.2031 172.945 83.6055 173.406 83.1289 173.984C82.6445 174.57 82.2812 175.246 82.039 176.012C81.7969 176.777 81.6758 177.578 81.6758 178.414V178.906C81.6758 179.75 81.7969 180.555 82.039 181.32C82.2812 182.078 82.6445 182.746 83.1289 183.324C83.6055 183.91 84.2031 184.375 84.9219 184.719C85.6406 185.062 86.4805 185.234 87.4414 185.234C88.1133 185.234 88.7578 185.121 89.375 184.895C89.9922 184.66 90.539 184.348 91.0156 183.957C91.4922 183.574 91.8711 183.129 92.1523 182.621C92.4414 182.105 92.5898 181.566 92.5976 181.004H90.5469C90.539 181.355 90.4453 181.684 90.2656 181.988C90.0937 182.285 89.8633 182.543 89.5742 182.762C89.2851 182.988 88.9531 183.164 88.5781 183.289C88.2109 183.414 87.832 183.477 87.4414 183.477Z" fill="black"/>
<path d="M296.046 183.477C295.366 183.477 294.796 183.344 294.335 183.078C293.882 182.805 293.519 182.449 293.245 182.012C292.964 181.582 292.761 181.098 292.636 180.559C292.519 180.012 292.46 179.461 292.46 178.906V178.414C292.46 177.867 292.519 177.324 292.636 176.785C292.761 176.246 292.964 175.758 293.245 175.32C293.527 174.891 293.894 174.543 294.347 174.277C294.808 174.004 295.374 173.867 296.046 173.867C296.484 173.867 296.89 173.941 297.265 174.09C297.648 174.238 297.976 174.441 298.249 174.699C298.523 174.957 298.737 175.258 298.894 175.602C299.058 175.938 299.144 176.297 299.152 176.68H301.202C301.202 176.039 301.073 175.438 300.816 174.875C300.558 174.312 300.202 173.824 299.749 173.41C299.288 173.004 298.741 172.684 298.109 172.449C297.484 172.207 296.796 172.086 296.046 172.086C295.085 172.086 294.245 172.258 293.527 172.602C292.808 172.945 292.21 173.406 291.734 173.984C291.249 174.57 290.886 175.246 290.644 176.012C290.402 176.777 290.28 177.578 290.28 178.414V178.906C290.28 179.75 290.402 180.555 290.644 181.32C290.886 182.078 291.249 182.746 291.734 183.324C292.21 183.91 292.808 184.375 293.527 184.719C294.245 185.062 295.085 185.234 296.046 185.234C296.718 185.234 297.362 185.121 297.98 184.895C298.597 184.66 299.144 184.348 299.62 183.957C300.097 183.574 300.476 183.129 300.757 182.621C301.046 182.105 301.195 181.566 301.202 181.004H299.152C299.144 181.355 299.05 181.684 298.87 181.988C298.698 182.285 298.468 182.543 298.179 182.762C297.89 182.988 297.558 183.164 297.183 183.289C296.816 183.414 296.437 183.477 296.046 183.477Z" fill="black"/>
<path d="M75.6328 53V35.9375H75.457L68.0273 38.6211V41.457L72.3398 39.9102V53H75.6328Z" fill="#3586FF"/>
<path d="M284.237 53V35.9375H284.062L276.632 38.6211V41.457L280.945 39.9102V53H284.237Z" fill="#3586FF"/>
<path d="M13.8086 119V116.387H6.3203L9.53123 112.988C10.0859 112.418 10.5898 111.875 11.043 111.359C11.4961 110.836 11.8867 110.324 12.2148 109.824C12.5351 109.324 12.7812 108.82 12.9531 108.312C13.1328 107.797 13.2226 107.258 13.2226 106.695C13.2226 105.953 13.1055 105.277 12.8711 104.668C12.6367 104.051 12.2969 103.523 11.8515 103.086C11.3984 102.648 10.8359 102.309 10.164 102.066C9.49998 101.824 8.73436 101.703 7.86717 101.703C6.96092 101.703 6.1328 101.852 5.3828 102.148C4.64061 102.438 4.0078 102.836 3.48436 103.344C2.95311 103.852 2.54295 104.445 2.25389 105.125C1.96483 105.797 1.8203 106.512 1.8203 107.27H5.08983C5.08983 106.809 5.14842 106.398 5.26561 106.039C5.3828 105.68 5.55467 105.379 5.78123 105.137C5.99998 104.902 6.27342 104.727 6.60155 104.609C6.93748 104.484 7.3242 104.422 7.7617 104.422C8.09764 104.422 8.40233 104.477 8.67577 104.586C8.95702 104.695 9.1992 104.852 9.40233 105.055C9.59764 105.266 9.74998 105.52 9.85936 105.816C9.96873 106.113 10.0234 106.453 10.0234 106.836C10.0234 107.094 9.98045 107.359 9.89452 107.633C9.81639 107.906 9.68748 108.199 9.5078 108.512C9.3203 108.832 9.07811 109.184 8.78123 109.566C8.48436 109.949 8.12108 110.375 7.69139 110.844L2.17186 116.773V119H13.8086Z" fill="#3586FF"/>
<path d="M214.538 109.039V111.57H216.308C216.753 111.57 217.152 111.621 217.503 111.723C217.862 111.824 218.171 111.98 218.429 112.191C218.679 112.402 218.87 112.672 219.003 113C219.136 113.328 219.202 113.723 219.202 114.184C219.202 114.551 219.144 114.883 219.027 115.18C218.917 115.477 218.753 115.727 218.534 115.93C218.308 116.156 218.027 116.328 217.691 116.445C217.355 116.562 216.976 116.621 216.554 116.621C216.179 116.621 215.835 116.566 215.523 116.457C215.21 116.34 214.941 116.18 214.714 115.977C214.48 115.781 214.3 115.547 214.175 115.273C214.05 114.992 213.987 114.688 213.987 114.359H210.73C210.73 115.188 210.89 115.906 211.21 116.516C211.538 117.125 211.972 117.629 212.511 118.027C213.05 118.434 213.663 118.738 214.351 118.941C215.046 119.137 215.757 119.234 216.484 119.234C217.327 119.234 218.112 119.125 218.839 118.906C219.573 118.68 220.206 118.352 220.737 117.922C221.269 117.5 221.687 116.977 221.991 116.352C222.296 115.727 222.448 115.016 222.448 114.219C222.448 113.766 222.394 113.336 222.284 112.93C222.175 112.523 222.007 112.148 221.78 111.805C221.554 111.469 221.265 111.168 220.913 110.902C220.57 110.637 220.159 110.418 219.683 110.246C220.089 110.051 220.448 109.82 220.761 109.555C221.073 109.281 221.335 108.984 221.546 108.664C221.757 108.344 221.917 108.008 222.027 107.656C222.136 107.297 222.191 106.934 222.191 106.566C222.191 105.77 222.05 105.07 221.769 104.469C221.495 103.859 221.109 103.348 220.609 102.934C220.109 102.527 219.507 102.223 218.804 102.02C218.101 101.809 217.327 101.703 216.484 101.703C215.702 101.703 214.972 101.816 214.292 102.043C213.62 102.27 213.034 102.586 212.534 102.992C212.034 103.406 211.64 103.898 211.351 104.469C211.07 105.039 210.929 105.672 210.929 106.367H214.187C214.187 106.055 214.249 105.773 214.374 105.523C214.499 105.273 214.671 105.059 214.89 104.879C215.101 104.707 215.347 104.574 215.628 104.48C215.917 104.387 216.226 104.34 216.554 104.34C216.952 104.34 217.3 104.395 217.597 104.504C217.902 104.613 218.152 104.766 218.347 104.961C218.542 105.164 218.687 105.406 218.78 105.688C218.882 105.961 218.933 106.266 218.933 106.602C218.933 106.945 218.882 107.266 218.78 107.562C218.687 107.852 218.542 108.098 218.347 108.301C218.136 108.535 217.859 108.719 217.515 108.852C217.179 108.977 216.777 109.039 216.308 109.039H214.538Z" fill="#3586FF"/>
<path d="M69.9336 175.039V177.57H71.7031C72.1484 177.57 72.5469 177.621 72.8984 177.723C73.2578 177.824 73.5664 177.98 73.8242 178.191C74.0742 178.402 74.2656 178.672 74.3984 179C74.5312 179.328 74.5976 179.723 74.5976 180.184C74.5976 180.551 74.539 180.883 74.4219 181.18C74.3125 181.477 74.1484 181.727 73.9297 181.93C73.7031 182.156 73.4219 182.328 73.0859 182.445C72.75 182.562 72.3711 182.621 71.9492 182.621C71.5742 182.621 71.2305 182.566 70.918 182.457C70.6055 182.34 70.3359 182.18 70.1094 181.977C69.875 181.781 69.6953 181.547 69.5703 181.273C69.4453 180.992 69.3828 180.688 69.3828 180.359H66.125C66.125 181.188 66.2851 181.906 66.6055 182.516C66.9336 183.125 67.3672 183.629 67.9062 184.027C68.4453 184.434 69.0586 184.738 69.7461 184.941C70.4414 185.137 71.1523 185.234 71.8789 185.234C72.7226 185.234 73.5078 185.125 74.2344 184.906C74.9687 184.68 75.6015 184.352 76.1328 183.922C76.664 183.5 77.082 182.977 77.3867 182.352C77.6914 181.727 77.8437 181.016 77.8437 180.219C77.8437 179.766 77.789 179.336 77.6797 178.93C77.5703 178.523 77.4023 178.148 77.1758 177.805C76.9492 177.469 76.6601 177.168 76.3086 176.902C75.9648 176.637 75.5547 176.418 75.0781 176.246C75.4844 176.051 75.8437 175.82 76.1562 175.555C76.4687 175.281 76.7305 174.984 76.9414 174.664C77.1523 174.344 77.3125 174.008 77.4219 173.656C77.5312 173.297 77.5859 172.934 77.5859 172.566C77.5859 171.77 77.4453 171.07 77.164 170.469C76.8906 169.859 76.5039 169.348 76.0039 168.934C75.5039 168.527 74.9023 168.223 74.1992 168.02C73.4961 167.809 72.7226 167.703 71.8789 167.703C71.0976 167.703 70.3672 167.816 69.6875 168.043C69.0156 168.27 68.4297 168.586 67.9297 168.992C67.4297 169.406 67.0351 169.898 66.7461 170.469C66.4648 171.039 66.3242 171.672 66.3242 172.367H69.582C69.582 172.055 69.6445 171.773 69.7695 171.523C69.8945 171.273 70.0664 171.059 70.2851 170.879C70.4961 170.707 70.7422 170.574 71.0234 170.48C71.3125 170.387 71.6211 170.34 71.9492 170.34C72.3476 170.34 72.6953 170.395 72.9922 170.504C73.2969 170.613 73.5469 170.766 73.7422 170.961C73.9375 171.164 74.082 171.406 74.1758 171.688C74.2773 171.961 74.3281 172.266 74.3281 172.602C74.3281 172.945 74.2773 173.266 74.1758 173.562C74.082 173.852 73.9375 174.098 73.7422 174.301C73.5312 174.535 73.2539 174.719 72.9101 174.852C72.5742 174.977 72.1719 175.039 71.7031 175.039H69.9336Z" fill="#3586FF"/>
<path d="M286.413 185V182.387H278.925L282.136 178.988C282.691 178.418 283.195 177.875 283.648 177.359C284.101 176.836 284.491 176.324 284.82 175.824C285.14 175.324 285.386 174.82 285.558 174.312C285.737 173.797 285.827 173.258 285.827 172.695C285.827 171.953 285.71 171.277 285.476 170.668C285.241 170.051 284.902 169.523 284.456 169.086C284.003 168.648 283.441 168.309 282.769 168.066C282.105 167.824 281.339 167.703 280.472 167.703C279.566 167.703 278.737 167.852 277.987 168.148C277.245 168.438 276.612 168.836 276.089 169.344C275.558 169.852 275.148 170.445 274.859 171.125C274.57 171.797 274.425 172.512 274.425 173.27H277.695C277.695 172.809 277.753 172.398 277.87 172.039C277.987 171.68 278.159 171.379 278.386 171.137C278.605 170.902 278.878 170.727 279.206 170.609C279.542 170.484 279.929 170.422 280.366 170.422C280.702 170.422 281.007 170.477 281.28 170.586C281.562 170.695 281.804 170.852 282.007 171.055C282.202 171.266 282.355 171.52 282.464 171.816C282.573 172.113 282.628 172.453 282.628 172.836C282.628 173.094 282.585 173.359 282.499 173.633C282.421 173.906 282.292 174.199 282.112 174.512C281.925 174.832 281.683 175.184 281.386 175.566C281.089 175.949 280.726 176.375 280.296 176.844L274.777 182.773V185H286.413Z" fill="#3586FF"/>
<path d="M22 95.5L38.0326 88.946L24.3403 78.3383L22 95.5ZM79.3181 57.5765C74.289 64.0137 66.7583 65.9797 57.6419 68.6218C48.6391 71.231 38.4465 74.4494 29.201 83.7739L31.3314 85.8861C39.9974 77.146 49.5344 74.095 58.477 71.5032C67.3061 68.9444 75.9366 66.7777 81.6822 59.4235L79.3181 57.5765Z" fill="black"/>
<path d="M230.605 95.5L246.637 88.946L232.945 78.3383L230.605 95.5ZM287.923 57.5765C282.894 64.0137 275.363 65.9797 266.247 68.6218C257.244 71.231 247.051 74.4494 237.806 83.7739L239.936 85.8861C248.602 77.146 258.139 74.095 267.082 71.5032C275.911 68.9444 284.541 66.7777 290.287 59.4235L287.923 57.5765Z" fill="black"/>
<path d="M7.49998 94L19.4324 81.4454L2.59355 77.3889L7.49998 94ZM64.946 53.2872C62.5307 56.3788 58.7556 58.2295 54.0022 59.5532C49.2212 60.8847 43.7894 61.6042 38.0987 62.6543C26.9327 64.7149 15.0388 68.0079 9.30402 80.2367L12.0202 81.5105C17.058 70.7677 27.4786 67.6648 38.6432 65.6045C44.1178 64.5943 49.8553 63.8222 54.807 62.4433C59.7861 61.0566 64.307 58.9781 67.3101 55.1342L64.946 53.2872Z" fill="#3586FF"/>
<path d="M216.105 94L228.037 81.4454L211.198 77.3889L216.105 94ZM273.551 53.2872C271.135 56.3788 267.36 58.2295 262.607 59.5532C257.826 60.8847 252.394 61.6042 246.703 62.6543C235.537 64.7149 223.643 68.0079 217.909 80.2367L220.625 81.5105C225.663 70.7677 236.083 67.6648 247.248 65.6045C252.722 64.5943 258.46 63.8222 263.412 62.4433C268.391 61.0566 272.912 58.9781 275.915 55.1342L273.551 53.2872Z" fill="#3586FF"/>
<path d="M78.3765 166.059L76.8834 148.803L62.6858 158.724L78.3765 166.059ZM22.2205 124.283C26.1352 130.68 30.1354 134.841 34.2219 137.734C38.3019 140.623 42.3971 142.197 46.3952 143.496C54.3973 146.098 61.9215 147.62 69.5322 156L71.753 153.983C63.5001 144.896 55.1016 143.172 47.3226 140.643C43.4301 139.378 39.6701 137.916 35.9555 135.286C32.2474 132.66 28.5134 128.819 24.7794 122.717L22.2205 124.283Z" fill="black"/>
<path d="M286.981 166.059L285.488 148.803L271.29 158.724L286.981 166.059ZM230.825 124.283C234.74 130.68 238.74 134.841 242.827 137.734C246.907 140.623 251.002 142.197 255 143.496C263.002 146.098 270.526 147.62 278.137 156L280.358 153.983C272.105 144.896 263.706 143.172 255.927 140.643C252.035 139.378 248.275 137.916 244.56 135.286C240.852 132.66 237.118 128.819 233.384 122.717L230.825 124.283Z" fill="black"/>
<path d="M61.9324 167.419L56.3474 151.024L44.9411 164.058L61.9324 167.419ZM5.77645 125.643C9.71621 132.081 13.1815 136.43 16.5346 139.58C19.9021 142.743 23.1093 144.653 26.465 146.262C33.1441 149.464 40.1634 151.402 50.8511 159.712L52.6925 157.343C41.6671 148.771 34.1178 146.604 27.7619 143.557C24.6001 142.041 21.6731 140.291 18.5886 137.393C15.4897 134.482 12.1849 130.368 8.33534 124.077L5.77645 125.643Z" fill="#3586FF"/>
<path d="M87.5002 165.5L101.824 155.762L86.2291 148.226L87.5002 165.5ZM91.3375 60.1419C101.05 79.7357 104.442 95.7799 103.828 110.415C103.213 125.068 98.5782 138.441 92.0135 152.713L94.739 153.967C101.369 139.553 106.187 125.764 106.825 110.541C107.465 95.2997 103.912 78.7548 94.0254 58.8095L91.3375 60.1419Z" fill="black"/>
<path d="M296.105 165.5L310.429 155.762L294.834 148.226L296.105 165.5ZM299.942 60.1419C309.655 79.7357 313.047 95.7799 312.433 110.415C311.818 125.068 307.183 138.441 300.618 152.713L303.344 153.967C309.974 139.553 314.791 125.764 315.43 110.541C316.07 95.2997 312.517 78.7548 302.63 58.8095L299.942 60.1419Z" fill="black"/>
<path d="M311.392 165.024L327.516 158.698L313.975 147.897L311.392 165.024ZM308.439 56.4446C335.549 89.8836 336.225 126.926 318.556 153.646L321.059 155.301C339.535 127.36 338.602 88.8862 310.77 54.5554L308.439 56.4446Z" fill="#3586FF"/>
<path d="M113.273 11.9453L110.684 26.875H107.379L110.426 9.32031H113.473L113.273 11.9453ZM120.422 15.4492L120.387 15.6953C120.293 16.4609 120.113 17.2344 119.848 18.0156C119.59 18.7969 119.234 19.5117 118.781 20.1602C118.328 20.8008 117.77 21.3164 117.105 21.707C116.441 22.0898 115.66 22.2695 114.762 22.2461C113.973 22.2227 113.316 22.0156 112.793 21.625C112.27 21.2344 111.859 20.7344 111.562 20.125C111.266 19.5078 111.059 18.8438 110.941 18.1328C110.824 17.4219 110.777 16.7422 110.801 16.0938L110.883 15.4375C111 14.7266 111.203 13.9961 111.492 13.2461C111.781 12.4883 112.156 11.793 112.617 11.1602C113.078 10.5195 113.629 10.0078 114.27 9.625C114.91 9.23438 115.648 9.05078 116.484 9.07422C117.352 9.09766 118.059 9.30469 118.605 9.69531C119.16 10.0859 119.582 10.5938 119.871 11.2188C120.16 11.8438 120.34 12.5273 120.41 13.2695C120.488 14.0039 120.492 14.7305 120.422 15.4492ZM117.094 15.6836L117.129 15.4375C117.16 15.0938 117.176 14.7148 117.176 14.3008C117.176 13.8789 117.129 13.4766 117.035 13.0938C116.941 12.7109 116.77 12.3906 116.52 12.1328C116.27 11.875 115.91 11.7383 115.441 11.7227C114.965 11.6992 114.547 11.7734 114.188 11.9453C113.828 12.1172 113.523 12.3594 113.273 12.6719C113.031 12.9766 112.832 13.3242 112.676 13.7148C112.52 14.1055 112.406 14.5078 112.336 14.9219L112.102 16.5625C112.062 17.0391 112.094 17.5117 112.195 17.9805C112.297 18.4414 112.496 18.8242 112.793 19.1289C113.098 19.4336 113.535 19.5938 114.105 19.6094C114.621 19.6172 115.059 19.5 115.418 19.2578C115.777 19.0156 116.07 18.6953 116.297 18.2969C116.531 17.8906 116.711 17.457 116.836 16.9961C116.961 16.5352 117.047 16.0977 117.094 15.6836ZM126.316 12.2617L124.629 22H121.336L123.539 9.32031H126.633L126.316 12.2617ZM130.453 9.21484L130.043 12.3672C129.855 12.3359 129.664 12.3086 129.469 12.2852C129.281 12.2617 129.09 12.2461 128.895 12.2383C128.441 12.2305 128.031 12.2891 127.664 12.4141C127.297 12.5391 126.977 12.7227 126.703 12.9648C126.438 13.1992 126.211 13.4883 126.023 13.832C125.844 14.1758 125.707 14.5625 125.613 14.9922L124.969 14.7812C125.047 14.1797 125.176 13.5469 125.355 12.8828C125.543 12.2109 125.801 11.5859 126.129 11.0078C126.465 10.4219 126.891 9.94922 127.406 9.58984C127.93 9.22266 128.566 9.04297 129.316 9.05078C129.512 9.05078 129.699 9.06641 129.879 9.09766C130.066 9.12891 130.258 9.16797 130.453 9.21484ZM135.586 22.2344C134.719 22.2188 133.938 22.0547 133.242 21.7422C132.547 21.4219 131.965 20.9844 131.496 20.4297C131.035 19.875 130.695 19.2305 130.477 18.4961C130.258 17.7617 130.18 16.9727 130.242 16.1289L130.289 15.6484C130.383 14.7656 130.598 13.9258 130.934 13.1289C131.27 12.332 131.719 11.6289 132.281 11.0195C132.844 10.4023 133.508 9.92188 134.273 9.57812C135.047 9.22656 135.906 9.0625 136.852 9.08594C137.734 9.10156 138.488 9.28125 139.113 9.625C139.738 9.96875 140.242 10.4297 140.625 11.0078C141.008 11.5859 141.27 12.2461 141.41 12.9883C141.551 13.7227 141.578 14.4922 141.492 15.2969L141.305 16.7031H131.508L131.871 14.4531L138.34 14.4648L138.398 14.1719C138.461 13.7422 138.441 13.3438 138.34 12.9766C138.238 12.6016 138.047 12.3008 137.766 12.0742C137.484 11.8477 137.109 11.7266 136.641 11.7109C136.102 11.6953 135.648 11.8086 135.281 12.0508C134.914 12.293 134.613 12.6133 134.379 13.0117C134.145 13.4102 133.965 13.8438 133.84 14.3125C133.715 14.7734 133.625 15.2188 133.57 15.6484L133.523 16.1172C133.484 16.5312 133.496 16.9453 133.559 17.3594C133.621 17.7656 133.742 18.1328 133.922 18.4609C134.109 18.7891 134.363 19.0547 134.684 19.2578C135.012 19.4609 135.422 19.5703 135.914 19.5859C136.539 19.6016 137.113 19.4805 137.637 19.2227C138.168 18.957 138.645 18.6055 139.066 18.168L140.543 19.9492C140.191 20.4805 139.742 20.918 139.195 21.2617C138.656 21.5977 138.074 21.8438 137.449 22C136.824 22.1641 136.203 22.2422 135.586 22.2344ZM150.199 13.3516L149.73 16H143.297L143.754 13.3516H150.199ZM151.957 15.8594L151.992 15.6133C152.086 14.7148 152.301 13.8711 152.637 13.082C152.98 12.2852 153.434 11.5859 153.996 10.9844C154.566 10.375 155.234 9.90234 156 9.56641C156.773 9.22266 157.641 9.0625 158.602 9.08594C159.516 9.10156 160.305 9.28516 160.969 9.63672C161.633 9.98828 162.176 10.4609 162.598 11.0547C163.027 11.6484 163.328 12.3281 163.5 13.0938C163.68 13.8594 163.73 14.668 163.652 15.5195L163.629 15.7773C163.527 16.668 163.301 17.5078 162.949 18.2969C162.605 19.0781 162.148 19.7695 161.578 20.3711C161.016 20.9648 160.348 21.4297 159.574 21.7656C158.801 22.1016 157.941 22.2578 156.996 22.2344C156.098 22.2188 155.312 22.0391 154.641 21.6953C153.969 21.3438 153.422 20.875 153 20.2891C152.578 19.6953 152.281 19.0195 152.109 18.2617C151.938 17.5039 151.887 16.7031 151.957 15.8594ZM155.285 15.6133L155.262 15.8711C155.223 16.2461 155.211 16.6484 155.227 17.0781C155.242 17.5 155.309 17.9023 155.426 18.2852C155.551 18.668 155.754 18.9805 156.035 19.2227C156.316 19.4648 156.703 19.5938 157.195 19.6094C157.719 19.625 158.168 19.5195 158.543 19.293C158.918 19.0664 159.227 18.7617 159.469 18.3789C159.711 17.9883 159.902 17.5664 160.043 17.1133C160.184 16.6523 160.277 16.2031 160.324 15.7656L160.348 15.5195C160.379 15.1445 160.387 14.7422 160.371 14.3125C160.363 13.875 160.297 13.4648 160.172 13.082C160.047 12.6914 159.844 12.3711 159.562 12.1211C159.281 11.8711 158.895 11.7383 158.402 11.7227C157.879 11.6992 157.43 11.8086 157.055 12.0508C156.68 12.2852 156.371 12.5977 156.129 12.9883C155.887 13.3789 155.695 13.8047 155.555 14.2656C155.422 14.7266 155.332 15.1758 155.285 15.6133ZM169.512 12.2617L167.824 22H164.531L166.734 9.32031H169.828L169.512 12.2617ZM173.648 9.21484L173.238 12.3672C173.051 12.3359 172.859 12.3086 172.664 12.2852C172.477 12.2617 172.285 12.2461 172.09 12.2383C171.637 12.2305 171.227 12.2891 170.859 12.4141C170.492 12.5391 170.172 12.7227 169.898 12.9648C169.633 13.1992 169.406 13.4883 169.219 13.832C169.039 14.1758 168.902 14.5625 168.809 14.9922L168.164 14.7812C168.242 14.1797 168.371 13.5469 168.551 12.8828C168.738 12.2109 168.996 11.5859 169.324 11.0078C169.66 10.4219 170.086 9.94922 170.602 9.58984C171.125 9.22266 171.762 9.04297 172.512 9.05078C172.707 9.05078 172.895 9.06641 173.074 9.09766C173.262 9.12891 173.453 9.16797 173.648 9.21484ZM180.609 19.0469L183.211 4H186.527L183.41 22H180.445L180.609 19.0469ZM173.391 15.9062L173.414 15.6484C173.516 14.875 173.695 14.0938 173.953 13.3047C174.219 12.5156 174.578 11.7969 175.031 11.1484C175.492 10.5 176.059 9.98438 176.73 9.60156C177.402 9.21875 178.199 9.04297 179.121 9.07422C179.91 9.10547 180.562 9.32812 181.078 9.74219C181.594 10.1484 181.992 10.6758 182.273 11.3242C182.562 11.9648 182.758 12.6484 182.859 13.375C182.969 14.0938 183.012 14.7773 182.988 15.4258L182.93 15.9883C182.805 16.6836 182.594 17.4023 182.297 18.1445C182.008 18.8789 181.629 19.5625 181.16 20.1953C180.699 20.8203 180.148 21.3242 179.508 21.707C178.875 22.0898 178.152 22.2695 177.34 22.2461C176.488 22.2227 175.789 22.0156 175.242 21.625C174.703 21.2266 174.285 20.7148 173.988 20.0898C173.691 19.4648 173.5 18.7852 173.414 18.0508C173.328 17.3164 173.32 16.6016 173.391 15.9062ZM176.73 15.6367L176.707 15.8828C176.676 16.2188 176.656 16.5977 176.648 17.0195C176.648 17.4336 176.691 17.8359 176.777 18.2266C176.871 18.6094 177.039 18.9297 177.281 19.1875C177.531 19.4375 177.891 19.5742 178.359 19.5977C178.953 19.6211 179.465 19.4844 179.895 19.1875C180.324 18.8828 180.668 18.4922 180.926 18.0156C181.191 17.5391 181.367 17.0391 181.453 16.5156L181.676 14.957C181.715 14.5977 181.715 14.2344 181.676 13.8672C181.637 13.5 181.547 13.1562 181.406 12.8359C181.273 12.5156 181.07 12.2539 180.797 12.0508C180.531 11.8477 180.184 11.7422 179.754 11.7344C179.23 11.7109 178.785 11.8242 178.418 12.0742C178.059 12.3164 177.766 12.6367 177.539 13.0352C177.312 13.4258 177.133 13.8516 177 14.3125C176.875 14.7734 176.785 15.2148 176.73 15.6367ZM191.883 22.2344C191.016 22.2188 190.234 22.0547 189.539 21.7422C188.844 21.4219 188.262 20.9844 187.793 20.4297C187.332 19.875 186.992 19.2305 186.773 18.4961C186.555 17.7617 186.477 16.9727 186.539 16.1289L186.586 15.6484C186.68 14.7656 186.895 13.9258 187.23 13.1289C187.566 12.332 188.016 11.6289 188.578 11.0195C189.141 10.4023 189.805 9.92188 190.57 9.57812C191.344 9.22656 192.203 9.0625 193.148 9.08594C194.031 9.10156 194.785 9.28125 195.41 9.625C196.035 9.96875 196.539 10.4297 196.922 11.0078C197.305 11.5859 197.566 12.2461 197.707 12.9883C197.848 13.7227 197.875 14.4922 197.789 15.2969L197.602 16.7031H187.805L188.168 14.4531L194.637 14.4648L194.695 14.1719C194.758 13.7422 194.738 13.3438 194.637 12.9766C194.535 12.6016 194.344 12.3008 194.062 12.0742C193.781 11.8477 193.406 11.7266 192.938 11.7109C192.398 11.6953 191.945 11.8086 191.578 12.0508C191.211 12.293 190.91 12.6133 190.676 13.0117C190.441 13.4102 190.262 13.8438 190.137 14.3125C190.012 14.7734 189.922 15.2188 189.867 15.6484L189.82 16.1172C189.781 16.5312 189.793 16.9453 189.855 17.3594C189.918 17.7656 190.039 18.1328 190.219 18.4609C190.406 18.7891 190.66 19.0547 190.98 19.2578C191.309 19.4609 191.719 19.5703 192.211 19.5859C192.836 19.6016 193.41 19.4805 193.934 19.2227C194.465 18.957 194.941 18.6055 195.363 18.168L196.84 19.9492C196.488 20.4805 196.039 20.918 195.492 21.2617C194.953 21.5977 194.371 21.8438 193.746 22C193.121 22.1641 192.5 22.2422 191.883 22.2344ZM203.496 12.2617L201.809 22H198.516L200.719 9.32031H203.812L203.496 12.2617ZM207.633 9.21484L207.223 12.3672C207.035 12.3359 206.844 12.3086 206.648 12.2852C206.461 12.2617 206.27 12.2461 206.074 12.2383C205.621 12.2305 205.211 12.2891 204.844 12.4141C204.477 12.5391 204.156 12.7227 203.883 12.9648C203.617 13.1992 203.391 13.4883 203.203 13.832C203.023 14.1758 202.887 14.5625 202.793 14.9922L202.148 14.7812C202.227 14.1797 202.355 13.5469 202.535 12.8828C202.723 12.2109 202.98 11.5859 203.309 11.0078C203.645 10.4219 204.07 9.94922 204.586 9.58984C205.109 9.22266 205.746 9.04297 206.496 9.05078C206.691 9.05078 206.879 9.06641 207.059 9.09766C207.246 9.12891 207.438 9.16797 207.633 9.21484Z" fill="#3586FF"/>
<path d="M56.3437 211.141V205.492C56.3437 205.086 56.2773 204.738 56.1445 204.449C56.0117 204.152 55.8047 203.922 55.5234 203.758C55.25 203.594 54.8945 203.512 54.457 203.512C54.082 203.512 53.7578 203.578 53.4844 203.711C53.2109 203.836 53 204.02 52.8515 204.262C52.7031 204.496 52.6289 204.773 52.6289 205.094H49.2539C49.2539 204.555 49.3789 204.043 49.6289 203.559C49.8789 203.074 50.2422 202.648 50.7187 202.281C51.1953 201.906 51.7617 201.613 52.418 201.402C53.082 201.191 53.8242 201.086 54.6445 201.086C55.6289 201.086 56.5039 201.25 57.2695 201.578C58.0351 201.906 58.6367 202.398 59.0742 203.055C59.5195 203.711 59.7422 204.531 59.7422 205.516V210.941C59.7422 211.637 59.7851 212.207 59.8711 212.652C59.957 213.09 60.082 213.473 60.2461 213.801V214H56.8359C56.6719 213.656 56.5469 213.227 56.4609 212.711C56.3828 212.188 56.3437 211.664 56.3437 211.141ZM56.789 206.277L56.8125 208.188H54.9258C54.4805 208.188 54.0937 208.238 53.7656 208.34C53.4375 208.441 53.168 208.586 52.957 208.773C52.7461 208.953 52.5898 209.164 52.4883 209.406C52.3945 209.648 52.3476 209.914 52.3476 210.203C52.3476 210.492 52.414 210.754 52.5469 210.988C52.6797 211.215 52.8711 211.395 53.1211 211.527C53.3711 211.652 53.664 211.715 54 211.715C54.5078 211.715 54.9492 211.613 55.3242 211.41C55.6992 211.207 55.9883 210.957 56.1914 210.66C56.4023 210.363 56.5117 210.082 56.5195 209.816L57.4101 211.246C57.2851 211.566 57.1133 211.898 56.8945 212.242C56.6836 212.586 56.414 212.91 56.0859 213.215C55.7578 213.512 55.3633 213.758 54.9023 213.953C54.4414 214.141 53.8945 214.234 53.2617 214.234C52.457 214.234 51.7265 214.074 51.0703 213.754C50.4219 213.426 49.9062 212.977 49.5234 212.406C49.1484 211.828 48.9609 211.172 48.9609 210.438C48.9609 209.773 49.0859 209.184 49.3359 208.668C49.5859 208.152 49.9531 207.719 50.4375 207.367C50.9297 207.008 51.543 206.738 52.2773 206.559C53.0117 206.371 53.8633 206.277 54.832 206.277H56.789ZM68.3203 196H71.6953V211.094L71.3555 214H68.3203V196ZM79.7226 207.531V207.777C79.7226 208.723 79.6211 209.59 79.418 210.379C79.2226 211.168 78.918 211.852 78.5039 212.43C78.0898 213 77.5742 213.445 76.957 213.766C76.3476 214.078 75.6289 214.234 74.8008 214.234C74.0273 214.234 73.3555 214.078 72.7851 213.766C72.2226 213.453 71.75 213.012 71.3672 212.441C70.9844 211.871 70.6758 211.203 70.4414 210.438C70.207 209.672 70.0312 208.836 69.914 207.93V207.391C70.0312 206.484 70.207 205.648 70.4414 204.883C70.6758 204.117 70.9844 203.449 71.3672 202.879C71.75 202.309 72.2226 201.867 72.7851 201.555C73.3476 201.242 74.0117 201.086 74.7773 201.086C75.6133 201.086 76.3398 201.246 76.957 201.566C77.582 201.879 78.0976 202.324 78.5039 202.902C78.918 203.473 79.2226 204.152 79.418 204.941C79.6211 205.723 79.7226 206.586 79.7226 207.531ZM76.3476 207.777V207.531C76.3476 207.016 76.3086 206.531 76.2305 206.078C76.1601 205.617 76.0351 205.215 75.8555 204.871C75.6758 204.52 75.4297 204.242 75.1172 204.039C74.8125 203.836 74.418 203.734 73.9336 203.734C73.4726 203.734 73.082 203.812 72.7617 203.969C72.4414 204.125 72.1758 204.344 71.9648 204.625C71.7617 204.906 71.6094 205.242 71.5078 205.633C71.4062 206.016 71.3437 206.438 71.3203 206.898V208.434C71.3437 209.051 71.4453 209.598 71.625 210.074C71.8125 210.543 72.0937 210.914 72.4687 211.188C72.8515 211.453 73.3476 211.586 73.957 211.586C74.4336 211.586 74.8281 211.492 75.1406 211.305C75.4531 211.117 75.6953 210.852 75.8672 210.508C76.0469 210.164 76.1719 209.762 76.2422 209.301C76.3125 208.832 76.3476 208.324 76.3476 207.777ZM93.0351 211.598C93.4492 211.598 93.8164 211.52 94.1367 211.363C94.457 211.199 94.707 210.973 94.8867 210.684C95.0742 210.387 95.1719 210.039 95.1797 209.641H98.3555C98.3476 210.531 98.1094 211.324 97.6406 212.02C97.1719 212.707 96.543 213.25 95.7539 213.648C94.9648 214.039 94.082 214.234 93.1055 214.234C92.1211 214.234 91.2617 214.07 90.5273 213.742C89.8008 213.414 89.1953 212.961 88.7109 212.383C88.2265 211.797 87.8633 211.117 87.6211 210.344C87.3789 209.562 87.2578 208.727 87.2578 207.836V207.496C87.2578 206.598 87.3789 205.762 87.6211 204.988C87.8633 204.207 88.2265 203.527 88.7109 202.949C89.1953 202.363 89.8008 201.906 90.5273 201.578C91.2539 201.25 92.1055 201.086 93.082 201.086C94.1211 201.086 95.0312 201.285 95.8125 201.684C96.6015 202.082 97.2187 202.652 97.664 203.395C98.1172 204.129 98.3476 205 98.3555 206.008H95.1797C95.1719 205.586 95.082 205.203 94.9101 204.859C94.7461 204.516 94.5039 204.242 94.1836 204.039C93.8711 203.828 93.4844 203.723 93.0234 203.723C92.5312 203.723 92.1289 203.828 91.8164 204.039C91.5039 204.242 91.2617 204.523 91.0898 204.883C90.918 205.234 90.7969 205.637 90.7265 206.09C90.664 206.535 90.6328 207.004 90.6328 207.496V207.836C90.6328 208.328 90.664 208.801 90.7265 209.254C90.789 209.707 90.9062 210.109 91.0781 210.461C91.2578 210.812 91.5039 211.09 91.8164 211.293C92.1289 211.496 92.5351 211.598 93.0351 211.598Z" fill="black"/>
<path d="M271.344 211.141V205.492C271.344 205.086 271.277 204.738 271.145 204.449C271.012 204.152 270.805 203.922 270.523 203.758C270.25 203.594 269.895 203.512 269.457 203.512C269.082 203.512 268.758 203.578 268.484 203.711C268.211 203.836 268 204.02 267.852 204.262C267.703 204.496 267.629 204.773 267.629 205.094H264.254C264.254 204.555 264.379 204.043 264.629 203.559C264.879 203.074 265.242 202.648 265.719 202.281C266.195 201.906 266.762 201.613 267.418 201.402C268.082 201.191 268.824 201.086 269.645 201.086C270.629 201.086 271.504 201.25 272.27 201.578C273.035 201.906 273.637 202.398 274.074 203.055C274.52 203.711 274.742 204.531 274.742 205.516V210.941C274.742 211.637 274.785 212.207 274.871 212.652C274.957 213.09 275.082 213.473 275.246 213.801V214H271.836C271.672 213.656 271.547 213.227 271.461 212.711C271.383 212.188 271.344 211.664 271.344 211.141ZM271.789 206.277L271.812 208.188H269.926C269.48 208.188 269.094 208.238 268.766 208.34C268.438 208.441 268.168 208.586 267.957 208.773C267.746 208.953 267.59 209.164 267.488 209.406C267.395 209.648 267.348 209.914 267.348 210.203C267.348 210.492 267.414 210.754 267.547 210.988C267.68 211.215 267.871 211.395 268.121 211.527C268.371 211.652 268.664 211.715 269 211.715C269.508 211.715 269.949 211.613 270.324 211.41C270.699 211.207 270.988 210.957 271.191 210.66C271.402 210.363 271.512 210.082 271.52 209.816L272.41 211.246C272.285 211.566 272.113 211.898 271.895 212.242C271.684 212.586 271.414 212.91 271.086 213.215C270.758 213.512 270.363 213.758 269.902 213.953C269.441 214.141 268.895 214.234 268.262 214.234C267.457 214.234 266.727 214.074 266.07 213.754C265.422 213.426 264.906 212.977 264.523 212.406C264.148 211.828 263.961 211.172 263.961 210.438C263.961 209.773 264.086 209.184 264.336 208.668C264.586 208.152 264.953 207.719 265.438 207.367C265.93 207.008 266.543 206.738 267.277 206.559C268.012 206.371 268.863 206.277 269.832 206.277H271.789ZM288.559 211.598C288.973 211.598 289.34 211.52 289.66 211.363C289.98 211.199 290.23 210.973 290.41 210.684C290.598 210.387 290.695 210.039 290.703 209.641H293.879C293.871 210.531 293.633 211.324 293.164 212.02C292.695 212.707 292.066 213.25 291.277 213.648C290.488 214.039 289.605 214.234 288.629 214.234C287.645 214.234 286.785 214.07 286.051 213.742C285.324 213.414 284.719 212.961 284.234 212.383C283.75 211.797 283.387 211.117 283.145 210.344C282.902 209.562 282.781 208.727 282.781 207.836V207.496C282.781 206.598 282.902 205.762 283.145 204.988C283.387 204.207 283.75 203.527 284.234 202.949C284.719 202.363 285.324 201.906 286.051 201.578C286.777 201.25 287.629 201.086 288.605 201.086C289.645 201.086 290.555 201.285 291.336 201.684C292.125 202.082 292.742 202.652 293.188 203.395C293.641 204.129 293.871 205 293.879 206.008H290.703C290.695 205.586 290.605 205.203 290.434 204.859C290.27 204.516 290.027 204.242 289.707 204.039C289.395 203.828 289.008 203.723 288.547 203.723C288.055 203.723 287.652 203.828 287.34 204.039C287.027 204.242 286.785 204.523 286.613 204.883C286.441 205.234 286.32 205.637 286.25 206.09C286.188 206.535 286.156 207.004 286.156 207.496V207.836C286.156 208.328 286.188 208.801 286.25 209.254C286.312 209.707 286.43 210.109 286.602 210.461C286.781 210.812 287.027 211.09 287.34 211.293C287.652 211.496 288.059 211.598 288.559 211.598ZM301.812 196H305.188V211.094L304.848 214H301.812V196ZM313.215 207.531V207.777C313.215 208.723 313.113 209.59 312.91 210.379C312.715 211.168 312.41 211.852 311.996 212.43C311.582 213 311.066 213.445 310.449 213.766C309.84 214.078 309.121 214.234 308.293 214.234C307.52 214.234 306.848 214.078 306.277 213.766C305.715 213.453 305.242 213.012 304.859 212.441C304.477 211.871 304.168 211.203 303.934 210.438C303.699 209.672 303.523 208.836 303.406 207.93V207.391C303.523 206.484 303.699 205.648 303.934 204.883C304.168 204.117 304.477 203.449 304.859 202.879C305.242 202.309 305.715 201.867 306.277 201.555C306.84 201.242 307.504 201.086 308.27 201.086C309.105 201.086 309.832 201.246 310.449 201.566C311.074 201.879 311.59 202.324 311.996 202.902C312.41 203.473 312.715 204.152 312.91 204.941C313.113 205.723 313.215 206.586 313.215 207.531ZM309.84 207.777V207.531C309.84 207.016 309.801 206.531 309.723 206.078C309.652 205.617 309.527 205.215 309.348 204.871C309.168 204.52 308.922 204.242 308.609 204.039C308.305 203.836 307.91 203.734 307.426 203.734C306.965 203.734 306.574 203.812 306.254 203.969C305.934 204.125 305.668 204.344 305.457 204.625C305.254 204.906 305.102 205.242 305 205.633C304.898 206.016 304.836 206.438 304.812 206.898V208.434C304.836 209.051 304.938 209.598 305.117 210.074C305.305 210.543 305.586 210.914 305.961 211.188C306.344 211.453 306.84 211.586 307.449 211.586C307.926 211.586 308.32 211.492 308.633 211.305C308.945 211.117 309.188 210.852 309.359 210.508C309.539 210.164 309.664 209.762 309.734 209.301C309.805 208.832 309.84 208.324 309.84 207.777Z" fill="black"/>
</svg>
