<svg width="318" height="234" viewBox="0 0 318 234" fill="none" xmlns="http://www.w3.org/2000/svg">
<path d="M165.086 11.9453L162.496 26.875H159.191L162.238 9.32031H165.285L165.086 11.9453ZM172.234 15.4492L172.199 15.6953C172.105 16.4609 171.926 17.2344 171.66 18.0156C171.402 18.7969 171.047 19.5117 170.594 20.1602C170.141 20.8008 169.582 21.3164 168.918 21.707C168.254 22.0898 167.473 22.2695 166.574 22.2461C165.785 22.2227 165.129 22.0156 164.605 21.625C164.082 21.2344 163.672 20.7344 163.375 20.125C163.078 19.5078 162.871 18.8438 162.754 18.1328C162.637 17.4219 162.59 16.7422 162.613 16.0938L162.695 15.4375C162.812 14.7266 163.016 13.9961 163.305 13.2461C163.594 12.4883 163.969 11.793 164.43 11.1602C164.891 10.5195 165.441 10.0078 166.082 9.625C166.723 9.23438 167.461 9.05078 168.297 9.07422C169.164 9.09766 169.871 9.30469 170.418 9.69531C170.973 10.0859 171.395 10.5938 171.684 11.2188C171.973 11.8438 172.152 12.5273 172.223 13.2695C172.301 14.0039 172.305 14.7305 172.234 15.4492ZM168.906 15.6836L168.941 15.4375C168.973 15.0938 168.988 14.7148 168.988 14.3008C168.988 13.8789 168.941 13.4766 168.848 13.0938C168.754 12.7109 168.582 12.3906 168.332 12.1328C168.082 11.875 167.723 11.7383 167.254 11.7227C166.777 11.6992 166.359 11.7734 166 11.9453C165.641 12.1172 165.336 12.3594 165.086 12.6719C164.844 12.9766 164.645 13.3242 164.488 13.7148C164.332 14.1055 164.219 14.5078 164.148 14.9219L163.914 16.5625C163.875 17.0391 163.906 17.5117 164.008 17.9805C164.109 18.4414 164.309 18.8242 164.605 19.1289C164.91 19.4336 165.348 19.5938 165.918 19.6094C166.434 19.6172 166.871 19.5 167.23 19.2578C167.59 19.0156 167.883 18.6953 168.109 18.2969C168.344 17.8906 168.523 17.457 168.648 16.9961C168.773 16.5352 168.859 16.0977 168.906 15.6836ZM173.723 15.8594L173.758 15.6133C173.852 14.7148 174.066 13.8711 174.402 13.082C174.746 12.2852 175.199 11.5859 175.762 10.9844C176.332 10.375 177 9.90234 177.766 9.56641C178.539 9.22266 179.406 9.0625 180.367 9.08594C181.281 9.10156 182.07 9.28516 182.734 9.63672C183.398 9.98828 183.941 10.4609 184.363 11.0547C184.793 11.6484 185.094 12.3281 185.266 13.0938C185.445 13.8594 185.496 14.668 185.418 15.5195L185.395 15.7773C185.293 16.668 185.066 17.5078 184.715 18.2969C184.371 19.0781 183.914 19.7695 183.344 20.3711C182.781 20.9648 182.113 21.4297 181.34 21.7656C180.566 22.1016 179.707 22.2578 178.762 22.2344C177.863 22.2188 177.078 22.0391 176.406 21.6953C175.734 21.3438 175.188 20.875 174.766 20.2891C174.344 19.6953 174.047 19.0195 173.875 18.2617C173.703 17.5039 173.652 16.7031 173.723 15.8594ZM177.051 15.6133L177.027 15.8711C176.988 16.2461 176.977 16.6484 176.992 17.0781C177.008 17.5 177.074 17.9023 177.191 18.2852C177.316 18.668 177.52 18.9805 177.801 19.2227C178.082 19.4648 178.469 19.5938 178.961 19.6094C179.484 19.625 179.934 19.5195 180.309 19.293C180.684 19.0664 180.992 18.7617 181.234 18.3789C181.477 17.9883 181.668 17.5664 181.809 17.1133C181.949 16.6523 182.043 16.2031 182.09 15.7656L182.113 15.5195C182.145 15.1445 182.152 14.7422 182.137 14.3125C182.129 13.875 182.062 13.4648 181.938 13.082C181.812 12.6914 181.609 12.3711 181.328 12.1211C181.047 11.8711 180.66 11.7383 180.168 11.7227C179.645 11.6992 179.195 11.8086 178.82 12.0508C178.445 12.2852 178.137 12.5977 177.895 12.9883C177.652 13.3789 177.461 13.8047 177.32 14.2656C177.188 14.7266 177.098 15.1758 177.051 15.6133ZM193.645 18.4258C193.707 18.0508 193.613 17.7617 193.363 17.5586C193.113 17.3477 192.805 17.1875 192.438 17.0781C192.078 16.9688 191.766 16.8828 191.5 16.8203C191.031 16.6953 190.559 16.5391 190.082 16.3516C189.613 16.1562 189.188 15.9141 188.805 15.625C188.422 15.3359 188.117 14.9844 187.891 14.5703C187.664 14.1484 187.562 13.6523 187.586 13.082C187.609 12.4023 187.781 11.8125 188.102 11.3125C188.43 10.8047 188.852 10.3867 189.367 10.0586C189.883 9.72266 190.445 9.47266 191.055 9.30859C191.664 9.14453 192.27 9.07031 192.871 9.08594C193.715 9.09375 194.496 9.25 195.215 9.55469C195.941 9.85938 196.527 10.3125 196.973 10.9141C197.426 11.5156 197.652 12.2656 197.652 13.1641L194.383 13.1523C194.391 12.8086 194.336 12.5078 194.219 12.25C194.102 11.9922 193.922 11.793 193.68 11.6523C193.438 11.5117 193.129 11.4414 192.754 11.4414C192.457 11.4414 192.16 11.5 191.863 11.6172C191.574 11.7266 191.324 11.8906 191.113 12.1094C190.902 12.3281 190.77 12.5977 190.715 12.918C190.668 13.1836 190.707 13.4023 190.832 13.5742C190.957 13.7461 191.125 13.8867 191.336 13.9961C191.547 14.0977 191.77 14.1836 192.004 14.2539C192.238 14.3164 192.449 14.3672 192.637 14.4062C193.324 14.5859 193.996 14.8164 194.652 15.0977C195.309 15.3789 195.844 15.7734 196.258 16.2812C196.672 16.7812 196.863 17.4492 196.832 18.2852C196.809 18.9961 196.621 19.6055 196.27 20.1133C195.918 20.6133 195.465 21.0234 194.91 21.3438C194.363 21.6562 193.77 21.8828 193.129 22.0234C192.496 22.1719 191.875 22.2422 191.266 22.2344C190.414 22.2188 189.613 22.0469 188.863 21.7188C188.121 21.3906 187.52 20.9141 187.059 20.2891C186.598 19.6562 186.363 18.8828 186.355 17.9688L189.449 17.9805C189.457 18.3867 189.539 18.7305 189.695 19.0117C189.852 19.293 190.074 19.5078 190.363 19.6562C190.66 19.7969 191.012 19.8672 191.418 19.8672C191.738 19.875 192.055 19.832 192.367 19.7383C192.688 19.6445 192.965 19.4922 193.199 19.2812C193.434 19.0625 193.582 18.7773 193.645 18.4258ZM206.523 9.32031L206.102 11.7109H198.918L199.34 9.32031H206.523ZM201.66 6.19141H204.953L202.891 18.2031C202.859 18.4766 202.859 18.7109 202.891 18.9062C202.93 19.0938 203.02 19.2383 203.16 19.3398C203.301 19.4414 203.52 19.5 203.816 19.5156C203.98 19.5234 204.145 19.5195 204.309 19.5039C204.473 19.4805 204.641 19.457 204.812 19.4336L204.578 21.9531C204.266 22.0469 203.949 22.1133 203.629 22.1523C203.316 22.1992 202.996 22.2227 202.668 22.2227C201.918 22.207 201.301 22.043 200.816 21.7305C200.34 21.418 199.996 20.9883 199.785 20.4414C199.582 19.8867 199.516 19.2461 199.586 18.5195L201.66 6.19141ZM214.129 13.3516L213.66 16H207.227L207.684 13.3516H214.129ZM215.887 15.8594L215.922 15.6133C216.016 14.7148 216.23 13.8711 216.566 13.082C216.91 12.2852 217.363 11.5859 217.926 10.9844C218.496 10.375 219.164 9.90234 219.93 9.56641C220.703 9.22266 221.57 9.0625 222.531 9.08594C223.445 9.10156 224.234 9.28516 224.898 9.63672C225.562 9.98828 226.105 10.4609 226.527 11.0547C226.957 11.6484 227.258 12.3281 227.43 13.0938C227.609 13.8594 227.66 14.668 227.582 15.5195L227.559 15.7773C227.457 16.668 227.23 17.5078 226.879 18.2969C226.535 19.0781 226.078 19.7695 225.508 20.3711C224.945 20.9648 224.277 21.4297 223.504 21.7656C222.73 22.1016 221.871 22.2578 220.926 22.2344C220.027 22.2188 219.242 22.0391 218.57 21.6953C217.898 21.3438 217.352 20.875 216.93 20.2891C216.508 19.6953 216.211 19.0195 216.039 18.2617C215.867 17.5039 215.816 16.7031 215.887 15.8594ZM219.215 15.6133L219.191 15.8711C219.152 16.2461 219.141 16.6484 219.156 17.0781C219.172 17.5 219.238 17.9023 219.355 18.2852C219.48 18.668 219.684 18.9805 219.965 19.2227C220.246 19.4648 220.633 19.5938 221.125 19.6094C221.648 19.625 222.098 19.5195 222.473 19.293C222.848 19.0664 223.156 18.7617 223.398 18.3789C223.641 17.9883 223.832 17.5664 223.973 17.1133C224.113 16.6523 224.207 16.2031 224.254 15.7656L224.277 15.5195C224.309 15.1445 224.316 14.7422 224.301 14.3125C224.293 13.875 224.227 13.4648 224.102 13.082C223.977 12.6914 223.773 12.3711 223.492 12.1211C223.211 11.8711 222.824 11.7383 222.332 11.7227C221.809 11.6992 221.359 11.8086 220.984 12.0508C220.609 12.2852 220.301 12.5977 220.059 12.9883C219.816 13.3789 219.625 13.8047 219.484 14.2656C219.352 14.7266 219.262 15.1758 219.215 15.6133ZM233.441 12.2617L231.754 22H228.461L230.664 9.32031H233.758L233.441 12.2617ZM237.578 9.21484L237.168 12.3672C236.98 12.3359 236.789 12.3086 236.594 12.2852C236.406 12.2617 236.215 12.2461 236.02 12.2383C235.566 12.2305 235.156 12.2891 234.789 12.4141C234.422 12.5391 234.102 12.7227 233.828 12.9648C233.562 13.1992 233.336 13.4883 233.148 13.832C232.969 14.1758 232.832 14.5625 232.738 14.9922L232.094 14.7812C232.172 14.1797 232.301 13.5469 232.48 12.8828C232.668 12.2109 232.926 11.5859 233.254 11.0078C233.59 10.4219 234.016 9.94922 234.531 9.58984C235.055 9.22266 235.691 9.04297 236.441 9.05078C236.637 9.05078 236.824 9.06641 237.004 9.09766C237.191 9.12891 237.383 9.16797 237.578 9.21484ZM244.539 19.0469L247.141 4H250.457L247.34 22H244.375L244.539 19.0469ZM237.32 15.9062L237.344 15.6484C237.445 14.875 237.625 14.0938 237.883 13.3047C238.148 12.5156 238.508 11.7969 238.961 11.1484C239.422 10.5 239.988 9.98438 240.66 9.60156C241.332 9.21875 242.129 9.04297 243.051 9.07422C243.84 9.10547 244.492 9.32812 245.008 9.74219C245.523 10.1484 245.922 10.6758 246.203 11.3242C246.492 11.9648 246.688 12.6484 246.789 13.375C246.898 14.0938 246.941 14.7773 246.918 15.4258L246.859 15.9883C246.734 16.6836 246.523 17.4023 246.227 18.1445C245.938 18.8789 245.559 19.5625 245.09 20.1953C244.629 20.8203 244.078 21.3242 243.438 21.707C242.805 22.0898 242.082 22.2695 241.27 22.2461C240.418 22.2227 239.719 22.0156 239.172 21.625C238.633 21.2266 238.215 20.7148 237.918 20.0898C237.621 19.4648 237.43 18.7852 237.344 18.0508C237.258 17.3164 237.25 16.6016 237.32 15.9062ZM240.66 15.6367L240.637 15.8828C240.605 16.2188 240.586 16.5977 240.578 17.0195C240.578 17.4336 240.621 17.8359 240.707 18.2266C240.801 18.6094 240.969 18.9297 241.211 19.1875C241.461 19.4375 241.82 19.5742 242.289 19.5977C242.883 19.6211 243.395 19.4844 243.824 19.1875C244.254 18.8828 244.598 18.4922 244.855 18.0156C245.121 17.5391 245.297 17.0391 245.383 16.5156L245.605 14.957C245.645 14.5977 245.645 14.2344 245.605 13.8672C245.566 13.5 245.477 13.1562 245.336 12.8359C245.203 12.5156 245 12.2539 244.727 12.0508C244.461 11.8477 244.113 11.7422 243.684 11.7344C243.16 11.7109 242.715 11.8242 242.348 12.0742C241.988 12.3164 241.695 12.6367 241.469 13.0352C241.242 13.4258 241.062 13.8516 240.93 14.3125C240.805 14.7734 240.715 15.2148 240.66 15.6367ZM255.812 22.2344C254.945 22.2188 254.164 22.0547 253.469 21.7422C252.773 21.4219 252.191 20.9844 251.723 20.4297C251.262 19.875 250.922 19.2305 250.703 18.4961C250.484 17.7617 250.406 16.9727 250.469 16.1289L250.516 15.6484C250.609 14.7656 250.824 13.9258 251.16 13.1289C251.496 12.332 251.945 11.6289 252.508 11.0195C253.07 10.4023 253.734 9.92188 254.5 9.57812C255.273 9.22656 256.133 9.0625 257.078 9.08594C257.961 9.10156 258.715 9.28125 259.34 9.625C259.965 9.96875 260.469 10.4297 260.852 11.0078C261.234 11.5859 261.496 12.2461 261.637 12.9883C261.777 13.7227 261.805 14.4922 261.719 15.2969L261.531 16.7031H251.734L252.098 14.4531L258.566 14.4648L258.625 14.1719C258.688 13.7422 258.668 13.3438 258.566 12.9766C258.465 12.6016 258.273 12.3008 257.992 12.0742C257.711 11.8477 257.336 11.7266 256.867 11.7109C256.328 11.6953 255.875 11.8086 255.508 12.0508C255.141 12.293 254.84 12.6133 254.605 13.0117C254.371 13.4102 254.191 13.8438 254.066 14.3125C253.941 14.7734 253.852 15.2188 253.797 15.6484L253.75 16.1172C253.711 16.5312 253.723 16.9453 253.785 17.3594C253.848 17.7656 253.969 18.1328 254.148 18.4609C254.336 18.7891 254.59 19.0547 254.91 19.2578C255.238 19.4609 255.648 19.5703 256.141 19.5859C256.766 19.6016 257.34 19.4805 257.863 19.2227C258.395 18.957 258.871 18.6055 259.293 18.168L260.77 19.9492C260.418 20.4805 259.969 20.918 259.422 21.2617C258.883 21.5977 258.301 21.8438 257.676 22C257.051 22.1641 256.43 22.2422 255.812 22.2344ZM267.426 12.2617L265.738 22H262.445L264.648 9.32031H267.742L267.426 12.2617ZM271.562 9.21484L271.152 12.3672C270.965 12.3359 270.773 12.3086 270.578 12.2852C270.391 12.2617 270.199 12.2461 270.004 12.2383C269.551 12.2305 269.141 12.2891 268.773 12.4141C268.406 12.5391 268.086 12.7227 267.812 12.9648C267.547 13.1992 267.32 13.4883 267.133 13.832C266.953 14.1758 266.816 14.5625 266.723 14.9922L266.078 14.7812C266.156 14.1797 266.285 13.5469 266.465 12.8828C266.652 12.2109 266.91 11.5859 267.238 11.0078C267.574 10.4219 268 9.94922 268.516 9.58984C269.039 9.22266 269.676 9.04297 270.426 9.05078C270.621 9.05078 270.809 9.06641 270.988 9.09766C271.176 9.12891 271.367 9.16797 271.562 9.21484Z" fill="#3586FF"/>
<path d="M134.277 143.02L130.926 138.32H128.418L133.141 144.59L128.289 151H130.82L134.324 146.172L137.828 151H140.336L135.484 144.59L140.207 138.32H137.664L134.277 143.02Z" fill="black"/>
<path d="M229.059 61.1211C229.629 61.1211 230.133 61.0156 230.57 60.8047C231.008 60.5938 231.391 60.332 231.719 60.0195C232.047 59.707 232.324 59.3672 232.551 59C232.785 58.6328 232.977 58.2852 233.125 57.957L239.559 43.3203H237.133L233.863 51.5469L233.266 53.0352L232.703 51.5L229.223 43.3203H226.797L232.258 55.4023L231.391 57.0898C231.312 57.2461 231.203 57.4453 231.062 57.6875C230.93 57.9297 230.77 58.1641 230.582 58.3906C230.387 58.6172 230.164 58.8125 229.914 58.9766C229.672 59.1406 229.402 59.2227 229.105 59.2227C228.996 59.2227 228.844 59.2148 228.648 59.1992C228.461 59.1914 228.27 59.1797 228.074 59.1641L227.723 60.9336C227.863 60.9648 228.07 61.0039 228.344 61.0508C228.617 61.0977 228.855 61.1211 229.059 61.1211Z" fill="black"/>
<path d="M42.75 217.973V213.977C42.75 212.891 42.625 211.93 42.375 211.094C42.125 210.25 41.7656 209.539 41.2969 208.961C40.8203 208.383 40.2383 207.945 39.5508 207.648C38.8711 207.344 38.0938 207.191 37.2188 207.191C36.3516 207.191 35.5742 207.344 34.8867 207.648C34.207 207.945 33.6328 208.383 33.1641 208.961C32.6875 209.539 32.3242 210.25 32.0742 211.094C31.8242 211.93 31.6992 212.891 31.6992 213.977V217.973C31.6992 219.059 31.8242 220.023 32.0742 220.867C32.3242 221.703 32.6875 222.406 33.1641 222.977C33.6406 223.562 34.2227 224.004 34.9102 224.301C35.5977 224.59 36.375 224.734 37.2422 224.734C38.1172 224.734 38.8945 224.586 39.5742 224.289C40.2539 223.992 40.8281 223.555 41.2969 222.977C41.7656 222.406 42.125 221.703 42.375 220.867C42.625 220.023 42.75 219.059 42.75 217.973ZM33.8789 217.539C33.8789 217.336 33.8789 217.137 33.8789 216.941C33.8789 216.746 33.8789 216.551 33.8789 216.355V213.496C33.8789 212.699 33.957 212 34.1133 211.398C34.2773 210.789 34.5234 210.293 34.8516 209.91C35.125 209.605 35.457 209.375 35.8477 209.219C36.2461 209.055 36.7031 208.973 37.2188 208.973C37.7266 208.973 38.1719 209.047 38.5547 209.195C38.9453 209.344 39.2734 209.566 39.5391 209.863C39.8125 210.152 40.0273 210.516 40.1836 210.953C40.3477 211.383 40.4609 211.879 40.5234 212.441L33.8789 217.539ZM40.5703 218.43C40.5703 219.266 40.4844 219.992 40.3125 220.609C40.1484 221.227 39.8867 221.727 39.5273 222.109C39.2617 222.391 38.9375 222.605 38.5547 222.754C38.1719 222.902 37.7344 222.977 37.2422 222.977C36.7734 222.977 36.3516 222.91 35.9766 222.777C35.6016 222.637 35.2812 222.434 35.0156 222.168C34.7266 221.887 34.4922 221.531 34.3125 221.102C34.1328 220.664 34.0078 220.16 33.9375 219.59L40.5703 214.516C40.5703 214.734 40.5703 215.012 40.5703 215.348C40.5703 215.676 40.5703 215.898 40.5703 216.016V218.43ZM50.2266 223.094C50.2266 223.547 50.3672 223.934 50.6484 224.254C50.9375 224.566 51.3633 224.723 51.9258 224.723C52.4805 224.723 52.9062 224.566 53.2031 224.254C53.5 223.941 53.6484 223.555 53.6484 223.094C53.6484 222.625 53.5 222.23 53.2031 221.91C52.9141 221.582 52.4883 221.418 51.9258 221.418C51.3555 221.418 50.9297 221.582 50.6484 221.91C50.3672 222.238 50.2266 222.633 50.2266 223.094ZM71.5781 217.973V213.977C71.5781 212.891 71.4531 211.93 71.2031 211.094C70.9531 210.25 70.5938 209.539 70.125 208.961C69.6484 208.383 69.0664 207.945 68.3789 207.648C67.6992 207.344 66.9219 207.191 66.0469 207.191C65.1797 207.191 64.4023 207.344 63.7148 207.648C63.0352 207.945 62.4609 208.383 61.9922 208.961C61.5156 209.539 61.1523 210.25 60.9023 211.094C60.6523 211.93 60.5273 212.891 60.5273 213.977V217.973C60.5273 219.059 60.6523 220.023 60.9023 220.867C61.1523 221.703 61.5156 222.406 61.9922 222.977C62.4688 223.562 63.0508 224.004 63.7383 224.301C64.4258 224.59 65.2031 224.734 66.0703 224.734C66.9453 224.734 67.7227 224.586 68.4023 224.289C69.082 223.992 69.6562 223.555 70.125 222.977C70.5938 222.406 70.9531 221.703 71.2031 220.867C71.4531 220.023 71.5781 219.059 71.5781 217.973ZM62.707 217.539C62.707 217.336 62.707 217.137 62.707 216.941C62.707 216.746 62.707 216.551 62.707 216.355V213.496C62.707 212.699 62.7852 212 62.9414 211.398C63.1055 210.789 63.3516 210.293 63.6797 209.91C63.9531 209.605 64.2852 209.375 64.6758 209.219C65.0742 209.055 65.5312 208.973 66.0469 208.973C66.5547 208.973 67 209.047 67.3828 209.195C67.7734 209.344 68.1016 209.566 68.3672 209.863C68.6406 210.152 68.8555 210.516 69.0117 210.953C69.1758 211.383 69.2891 211.879 69.3516 212.441L62.707 217.539ZM69.3984 218.43C69.3984 219.266 69.3125 219.992 69.1406 220.609C68.9766 221.227 68.7148 221.727 68.3555 222.109C68.0898 222.391 67.7656 222.605 67.3828 222.754C67 222.902 66.5625 222.977 66.0703 222.977C65.6016 222.977 65.1797 222.91 64.8047 222.777C64.4297 222.637 64.1094 222.434 63.8438 222.168C63.5547 221.887 63.3203 221.531 63.1406 221.102C62.9609 220.664 62.8359 220.16 62.7656 219.59L69.3984 214.516C69.3984 214.734 69.3984 215.012 69.3984 215.348C69.3984 215.676 69.3984 215.898 69.3984 216.016V218.43Z" fill="black"/>
<path d="M141.57 216.426V218.184H143.117C143.656 218.184 144.148 218.246 144.594 218.371C145.047 218.496 145.434 218.688 145.754 218.945C146.066 219.203 146.309 219.527 146.48 219.918C146.66 220.301 146.75 220.758 146.75 221.289C146.75 221.828 146.672 222.297 146.516 222.695C146.367 223.086 146.152 223.414 145.871 223.68C145.59 223.945 145.25 224.145 144.852 224.277C144.453 224.402 144.008 224.465 143.516 224.465C143.023 224.465 142.574 224.395 142.168 224.254C141.77 224.113 141.43 223.914 141.148 223.656C140.867 223.398 140.648 223.086 140.492 222.719C140.344 222.352 140.27 221.945 140.27 221.5H138.102C138.102 222.25 138.242 222.918 138.523 223.504C138.812 224.09 139.199 224.586 139.684 224.992C140.168 225.398 140.738 225.707 141.395 225.918C142.059 226.129 142.766 226.234 143.516 226.234C144.281 226.234 144.992 226.125 145.648 225.906C146.312 225.68 146.887 225.352 147.371 224.922C147.855 224.5 148.234 223.98 148.508 223.363C148.781 222.746 148.918 222.039 148.918 221.242C148.918 220.852 148.871 220.457 148.777 220.059C148.691 219.66 148.539 219.281 148.32 218.922C148.094 218.562 147.793 218.238 147.418 217.949C147.051 217.66 146.59 217.426 146.035 217.246C146.496 217.051 146.891 216.809 147.219 216.52C147.555 216.223 147.828 215.906 148.039 215.57C148.25 215.242 148.406 214.902 148.508 214.551C148.609 214.199 148.66 213.859 148.66 213.531C148.66 212.742 148.535 212.047 148.285 211.445C148.035 210.844 147.684 210.34 147.23 209.934C146.777 209.527 146.234 209.223 145.602 209.02C144.969 208.809 144.27 208.703 143.504 208.703C142.715 208.703 141.996 208.828 141.348 209.078C140.707 209.32 140.156 209.652 139.695 210.074C139.234 210.504 138.875 211.008 138.617 211.586C138.367 212.156 138.242 212.766 138.242 213.414H140.422C140.422 212.969 140.496 212.566 140.645 212.207C140.793 211.848 141.004 211.539 141.277 211.281C141.543 211.023 141.863 210.828 142.238 210.695C142.621 210.555 143.043 210.484 143.504 210.484C143.98 210.484 144.402 210.547 144.77 210.672C145.145 210.789 145.457 210.969 145.707 211.211C145.965 211.461 146.16 211.777 146.293 212.16C146.426 212.535 146.492 212.977 146.492 213.484C146.492 213.914 146.418 214.309 146.27 214.668C146.121 215.027 145.906 215.336 145.625 215.594C145.336 215.852 144.98 216.055 144.559 216.203C144.145 216.352 143.664 216.426 143.117 216.426H141.57ZM157.227 224.594C157.227 225.047 157.367 225.434 157.648 225.754C157.938 226.066 158.363 226.223 158.926 226.223C159.48 226.223 159.906 226.066 160.203 225.754C160.5 225.441 160.648 225.055 160.648 224.594C160.648 224.125 160.5 223.73 160.203 223.41C159.914 223.082 159.488 222.918 158.926 222.918C158.355 222.918 157.93 223.082 157.648 223.41C157.367 223.738 157.227 224.133 157.227 224.594ZM178.578 219.473V215.477C178.578 214.391 178.453 213.43 178.203 212.594C177.953 211.75 177.594 211.039 177.125 210.461C176.648 209.883 176.066 209.445 175.379 209.148C174.699 208.844 173.922 208.691 173.047 208.691C172.18 208.691 171.402 208.844 170.715 209.148C170.035 209.445 169.461 209.883 168.992 210.461C168.516 211.039 168.152 211.75 167.902 212.594C167.652 213.43 167.527 214.391 167.527 215.477V219.473C167.527 220.559 167.652 221.523 167.902 222.367C168.152 223.203 168.516 223.906 168.992 224.477C169.469 225.062 170.051 225.504 170.738 225.801C171.426 226.09 172.203 226.234 173.07 226.234C173.945 226.234 174.723 226.086 175.402 225.789C176.082 225.492 176.656 225.055 177.125 224.477C177.594 223.906 177.953 223.203 178.203 222.367C178.453 221.523 178.578 220.559 178.578 219.473ZM169.707 219.039C169.707 218.836 169.707 218.637 169.707 218.441C169.707 218.246 169.707 218.051 169.707 217.855V214.996C169.707 214.199 169.785 213.5 169.941 212.898C170.105 212.289 170.352 211.793 170.68 211.41C170.953 211.105 171.285 210.875 171.676 210.719C172.074 210.555 172.531 210.473 173.047 210.473C173.555 210.473 174 210.547 174.383 210.695C174.773 210.844 175.102 211.066 175.367 211.363C175.641 211.652 175.855 212.016 176.012 212.453C176.176 212.883 176.289 213.379 176.352 213.941L169.707 219.039ZM176.398 219.93C176.398 220.766 176.312 221.492 176.141 222.109C175.977 222.727 175.715 223.227 175.355 223.609C175.09 223.891 174.766 224.105 174.383 224.254C174 224.402 173.562 224.477 173.07 224.477C172.602 224.477 172.18 224.41 171.805 224.277C171.43 224.137 171.109 223.934 170.844 223.668C170.555 223.387 170.32 223.031 170.141 222.602C169.961 222.164 169.836 221.66 169.766 221.09L176.398 216.016C176.398 216.234 176.398 216.512 176.398 216.848C176.398 217.176 176.398 217.398 176.398 217.516V219.93Z" fill="black"/>
<path d="M284.828 145.27V133.938H282.52L274.879 145.762V147.039H282.66V151H284.828V147.039H287.207V145.27H284.828ZM277.281 145.27L282.309 137.477L282.66 136.82V145.27H277.281ZM294.227 149.594C294.227 150.047 294.367 150.434 294.648 150.754C294.938 151.066 295.363 151.223 295.926 151.223C296.48 151.223 296.906 151.066 297.203 150.754C297.5 150.441 297.648 150.055 297.648 149.594C297.648 149.125 297.5 148.73 297.203 148.41C296.914 148.082 296.488 147.918 295.926 147.918C295.355 147.918 294.93 148.082 294.648 148.41C294.367 148.738 294.227 149.133 294.227 149.594ZM315.578 144.473V140.477C315.578 139.391 315.453 138.43 315.203 137.594C314.953 136.75 314.594 136.039 314.125 135.461C313.648 134.883 313.066 134.445 312.379 134.148C311.699 133.844 310.922 133.691 310.047 133.691C309.18 133.691 308.402 133.844 307.715 134.148C307.035 134.445 306.461 134.883 305.992 135.461C305.516 136.039 305.152 136.75 304.902 137.594C304.652 138.43 304.527 139.391 304.527 140.477V144.473C304.527 145.559 304.652 146.523 304.902 147.367C305.152 148.203 305.516 148.906 305.992 149.477C306.469 150.062 307.051 150.504 307.738 150.801C308.426 151.09 309.203 151.234 310.07 151.234C310.945 151.234 311.723 151.086 312.402 150.789C313.082 150.492 313.656 150.055 314.125 149.477C314.594 148.906 314.953 148.203 315.203 147.367C315.453 146.523 315.578 145.559 315.578 144.473ZM306.707 144.039C306.707 143.836 306.707 143.637 306.707 143.441C306.707 143.246 306.707 143.051 306.707 142.855V139.996C306.707 139.199 306.785 138.5 306.941 137.898C307.105 137.289 307.352 136.793 307.68 136.41C307.953 136.105 308.285 135.875 308.676 135.719C309.074 135.555 309.531 135.473 310.047 135.473C310.555 135.473 311 135.547 311.383 135.695C311.773 135.844 312.102 136.066 312.367 136.363C312.641 136.652 312.855 137.016 313.012 137.453C313.176 137.883 313.289 138.379 313.352 138.941L306.707 144.039ZM313.398 144.93C313.398 145.766 313.312 146.492 313.141 147.109C312.977 147.727 312.715 148.227 312.355 148.609C312.09 148.891 311.766 149.105 311.383 149.254C311 149.402 310.562 149.477 310.07 149.477C309.602 149.477 309.18 149.41 308.805 149.277C308.43 149.137 308.109 148.934 307.844 148.668C307.555 148.387 307.32 148.031 307.141 147.602C306.961 147.164 306.836 146.66 306.766 146.09L313.398 141.016C313.398 141.234 313.398 141.512 313.398 141.848C313.398 142.176 313.398 142.398 313.398 142.516V144.93Z" fill="black"/>
<path d="M293.5 126.5L297.144 115.543L285.833 117.866L293.5 126.5ZM241 70.5V82H243V70.5H241ZM241 82C241 88.0307 243.734 92.1475 247.891 95.1794C251.983 98.1645 257.487 100.125 263.114 101.943C268.8 103.782 274.63 105.482 279.634 107.935C284.621 110.381 288.638 113.51 290.784 118.108L292.596 117.262C290.177 112.078 285.7 108.683 280.514 106.14C275.345 103.604 269.323 101.849 263.729 100.04C258.074 98.2122 252.867 96.3339 249.069 93.5636C245.336 90.84 243 87.2843 243 82H241Z" fill="black"/>
<path d="M253.5 124.5L259.932 108.418L242.789 110.889L253.5 124.5ZM232.5 71V82.5H235.5V71H232.5ZM232.5 82.5C232.5 87.7833 233.313 91.5571 234.703 94.4378C236.102 97.3377 238.028 99.2081 240.02 100.76C244.028 103.882 247.899 105.58 250.169 111.661L252.98 110.612C250.328 103.508 245.412 101.158 241.863 98.3933C240.077 97.0017 238.532 95.469 237.405 93.134C236.269 90.7798 235.5 87.4871 235.5 82.5H232.5Z" fill="#3586FF"/>
<path d="M159 201L161.773 189.791L150.679 192.994L159 201ZM141 158.5V173H143V158.5H141ZM141 173C141 177.907 141.618 181.38 142.681 183.893C143.757 186.438 145.273 187.961 146.967 188.975C148.604 189.955 150.419 190.453 151.926 190.958C153.49 191.483 154.786 192.027 155.788 193.052L157.219 191.654C155.858 190.263 154.16 189.598 152.562 189.062C150.907 188.508 149.391 188.095 147.994 187.259C146.652 186.456 145.428 185.256 144.523 183.114C143.604 180.94 143 177.763 143 173H141Z" fill="black"/>
<path d="M50 200L60.9396 196.304L52.2693 188.678L50 200ZM126.5 158V175H128.5V158H126.5ZM126.5 175C126.5 177.415 125.746 179.347 124.405 180.933C123.048 182.539 121.047 183.839 118.492 184.883C113.362 186.979 106.259 187.944 98.4563 188.468C90.633 188.994 82.3648 189.067 74.7256 189.452C67.1818 189.832 60.2895 190.515 55.5866 192.309L56.2994 194.178C60.6656 192.512 67.2526 191.831 74.8262 191.45C82.3044 191.073 90.7918 190.988 98.5904 190.464C106.41 189.938 113.795 188.963 119.248 186.735C121.984 185.617 124.298 184.158 125.933 182.224C127.585 180.269 128.5 177.878 128.5 175H126.5Z" fill="black"/>
<path d="M134.5 120.879L140.787 111.193L129.256 110.591L134.5 120.879ZM226 71.5C226 74.2732 225.722 76.7852 224.795 79.0138C223.879 81.2176 222.303 83.2055 219.596 84.8939C214.105 88.3182 203.984 90.5 185.5 90.5V92.5C204.016 92.5 214.645 90.3383 220.654 86.5909C223.697 84.6934 225.558 82.3884 226.642 79.7816C227.716 77.1996 228 74.3833 228 71.5H226ZM185.5 90.5C166.393 90.5 154.092 91.5058 146.298 94.6463C142.36 96.2328 139.524 98.3812 137.545 101.25C135.576 104.105 134.513 107.593 133.977 111.763L135.961 112.018C136.474 108.026 137.469 104.884 139.192 102.386C140.905 99.901 143.395 97.972 147.045 96.5014C154.425 93.5277 166.341 92.5 185.5 92.5V90.5Z" fill="black"/>
<path d="M134.5 120.879L140.787 111.193L129.256 110.591L134.5 120.879ZM226 71.5C226 74.2732 225.722 76.7852 224.795 79.0138C223.879 81.2176 222.303 83.2055 219.596 84.8939C214.105 88.3182 203.984 90.5 185.5 90.5V92.5C204.016 92.5 214.645 90.3383 220.654 86.5909C223.697 84.6934 225.558 82.3884 226.642 79.7816C227.716 77.1996 228 74.3833 228 71.5H226ZM185.5 90.5C166.393 90.5 154.092 91.5058 146.298 94.6463C142.36 96.2328 139.524 98.3812 137.545 101.25C135.576 104.105 134.513 107.593 133.977 111.763L135.961 112.018C136.474 108.026 137.469 104.884 139.192 102.386C140.905 99.901 143.395 97.972 147.045 96.5014C154.425 93.5277 166.341 92.5 185.5 92.5V90.5Z" fill="black"/>
<path d="M112 121.5L121.497 107.015L104.204 106.033L112 121.5ZM209.5 70C209.5 72.4754 208.755 74.2792 207.216 75.7029C205.608 77.19 203.003 78.3848 199.044 79.2793C191.114 81.0713 178.541 81.5 160 81.5V84.5C178.459 84.5 191.386 84.0853 199.706 82.2055C203.872 81.2641 207.079 79.9161 209.253 77.905C211.495 75.8306 212.5 73.1811 212.5 70H209.5ZM160 81.5C142.245 81.5 130.691 83.8068 123.241 88.3079C115.655 92.891 112.524 99.6188 111.282 107.795L114.248 108.245C115.403 100.639 118.202 94.8571 124.792 90.8756C131.518 86.8122 142.383 84.5 160 84.5V81.5Z" fill="#3586FF"/>
<path d="M8 198.5L18.1635 184.475L0.93563 182.686L8 198.5ZM109 159C109 161.435 108.187 163.389 106.465 165.031C104.688 166.725 101.864 168.159 97.7275 169.296C89.443 171.573 76.5014 172.5 58 172.5V175.5C76.4985 175.5 89.8069 174.584 98.5225 172.189C102.886 170.99 106.249 169.381 108.535 167.202C110.875 164.971 112 162.222 112 159H109ZM58 172.5C41.124 172.5 29.663 172.583 22.0046 174.046C18.1495 174.782 15.1109 175.89 12.7856 177.619C10.4247 179.374 8.90958 181.685 7.96696 184.611L10.8224 185.531C11.6052 183.101 12.7933 181.351 14.5755 180.026C16.3932 178.675 18.9375 177.685 22.5672 176.992C29.8784 175.597 40.9947 175.5 58 175.5V172.5Z" fill="#3586FF"/>
<path d="M117 201L133.922 197.307L122.262 184.498L117 201ZM133 160C133 162.403 133.262 164.837 133.457 167.189C133.654 169.577 133.789 171.947 133.583 174.409C133.176 179.259 131.433 184.613 125.858 190.92L128.105 192.907C134.094 186.132 136.11 180.174 136.572 174.66C136.8 171.94 136.646 169.366 136.446 166.942C136.243 164.484 136 162.241 136 160H133Z" fill="#3586FF"/>
<path d="M109.934 141.039V143.57H111.703C112.148 143.57 112.547 143.621 112.898 143.723C113.258 143.824 113.566 143.98 113.824 144.191C114.074 144.402 114.266 144.672 114.398 145C114.531 145.328 114.598 145.723 114.598 146.184C114.598 146.551 114.539 146.883 114.422 147.18C114.312 147.477 114.148 147.727 113.93 147.93C113.703 148.156 113.422 148.328 113.086 148.445C112.75 148.562 112.371 148.621 111.949 148.621C111.574 148.621 111.23 148.566 110.918 148.457C110.605 148.34 110.336 148.18 110.109 147.977C109.875 147.781 109.695 147.547 109.57 147.273C109.445 146.992 109.383 146.688 109.383 146.359H106.125C106.125 147.188 106.285 147.906 106.605 148.516C106.934 149.125 107.367 149.629 107.906 150.027C108.445 150.434 109.059 150.738 109.746 150.941C110.441 151.137 111.152 151.234 111.879 151.234C112.723 151.234 113.508 151.125 114.234 150.906C114.969 150.68 115.602 150.352 116.133 149.922C116.664 149.5 117.082 148.977 117.387 148.352C117.691 147.727 117.844 147.016 117.844 146.219C117.844 145.766 117.789 145.336 117.68 144.93C117.57 144.523 117.402 144.148 117.176 143.805C116.949 143.469 116.66 143.168 116.309 142.902C115.965 142.637 115.555 142.418 115.078 142.246C115.484 142.051 115.844 141.82 116.156 141.555C116.469 141.281 116.73 140.984 116.941 140.664C117.152 140.344 117.312 140.008 117.422 139.656C117.531 139.297 117.586 138.934 117.586 138.566C117.586 137.77 117.445 137.07 117.164 136.469C116.891 135.859 116.504 135.348 116.004 134.934C115.504 134.527 114.902 134.223 114.199 134.02C113.496 133.809 112.723 133.703 111.879 133.703C111.098 133.703 110.367 133.816 109.688 134.043C109.016 134.27 108.43 134.586 107.93 134.992C107.43 135.406 107.035 135.898 106.746 136.469C106.465 137.039 106.324 137.672 106.324 138.367H109.582C109.582 138.055 109.645 137.773 109.77 137.523C109.895 137.273 110.066 137.059 110.285 136.879C110.496 136.707 110.742 136.574 111.023 136.48C111.312 136.387 111.621 136.34 111.949 136.34C112.348 136.34 112.695 136.395 112.992 136.504C113.297 136.613 113.547 136.766 113.742 136.961C113.938 137.164 114.082 137.406 114.176 137.688C114.277 137.961 114.328 138.266 114.328 138.602C114.328 138.945 114.277 139.266 114.176 139.562C114.082 139.852 113.938 140.098 113.742 140.301C113.531 140.535 113.254 140.719 112.91 140.852C112.574 140.977 112.172 141.039 111.703 141.039H109.934Z" fill="#3586FF"/>
<path d="M204.816 47.5977L207.418 48.2422C207.543 48.1172 207.676 48 207.816 47.8906C207.957 47.7734 208.117 47.6719 208.297 47.5859C208.477 47.5 208.684 47.4297 208.918 47.375C209.152 47.3203 209.43 47.293 209.75 47.293C210.227 47.293 210.641 47.3672 210.992 47.5156C211.344 47.6641 211.637 47.875 211.871 48.1484C212.105 48.4219 212.277 48.75 212.387 49.1328C212.504 49.5078 212.562 49.9219 212.562 50.375C212.562 50.8359 212.516 51.2656 212.422 51.6641C212.336 52.0625 212.199 52.4062 212.012 52.6953C211.816 52.9844 211.562 53.2109 211.25 53.375C210.945 53.5391 210.574 53.6211 210.137 53.6211C209.426 53.6211 208.84 53.418 208.379 53.0117C207.926 52.6055 207.66 52.0312 207.582 51.2891H204.371C204.395 52.0781 204.57 52.7812 204.898 53.3984C205.234 54.0078 205.668 54.5234 206.199 54.9453C206.73 55.3672 207.336 55.6875 208.016 55.9062C208.703 56.125 209.414 56.2344 210.148 56.2344C211.117 56.2344 211.957 56.082 212.668 55.7773C213.379 55.4727 213.969 55.0586 214.438 54.5352C214.906 54.0117 215.254 53.4062 215.48 52.7188C215.707 52.0312 215.82 51.3047 215.82 50.5391C215.82 49.6406 215.703 48.8359 215.469 48.125C215.234 47.4141 214.898 46.8125 214.461 46.3203C214.016 45.8281 213.469 45.4531 212.82 45.1953C212.18 44.9297 211.449 44.7969 210.629 44.7969C210.051 44.7969 209.539 44.8711 209.094 45.0195C208.648 45.168 208.305 45.3125 208.062 45.4531L208.473 41.7031H215.258V38.9375H205.789L204.816 47.5977Z" fill="#3586FF"/>
<path d="M257.168 144.66V133.938H253.863L246.691 145.258L246.82 147.297H253.91V151H257.168V147.297H259.148V144.66H257.168ZM249.891 144.66L253.594 138.883L253.91 138.32V144.66H249.891Z" fill="#3586FF"/>
<path d="M11.6328 225V207.938H11.457L4.02734 210.621V213.457L8.33984 211.91V225H11.6328Z" fill="#3586FF"/>
<path d="M121.809 227V224.387H114.32L117.531 220.988C118.086 220.418 118.59 219.875 119.043 219.359C119.496 218.836 119.887 218.324 120.215 217.824C120.535 217.324 120.781 216.82 120.953 216.312C121.133 215.797 121.223 215.258 121.223 214.695C121.223 213.953 121.105 213.277 120.871 212.668C120.637 212.051 120.297 211.523 119.852 211.086C119.398 210.648 118.836 210.309 118.164 210.066C117.5 209.824 116.734 209.703 115.867 209.703C114.961 209.703 114.133 209.852 113.383 210.148C112.641 210.438 112.008 210.836 111.484 211.344C110.953 211.852 110.543 212.445 110.254 213.125C109.965 213.797 109.82 214.512 109.82 215.27H113.09C113.09 214.809 113.148 214.398 113.266 214.039C113.383 213.68 113.555 213.379 113.781 213.137C114 212.902 114.273 212.727 114.602 212.609C114.938 212.484 115.324 212.422 115.762 212.422C116.098 212.422 116.402 212.477 116.676 212.586C116.957 212.695 117.199 212.852 117.402 213.055C117.598 213.266 117.75 213.52 117.859 213.816C117.969 214.113 118.023 214.453 118.023 214.836C118.023 215.094 117.98 215.359 117.895 215.633C117.816 215.906 117.688 216.199 117.508 216.512C117.32 216.832 117.078 217.184 116.781 217.566C116.484 217.949 116.121 218.375 115.691 218.844L110.172 224.773V227H121.809Z" fill="#3586FF"/>
</svg>
