<svg width="318" height="234" viewBox="0 0 318 234" fill="none" xmlns="http://www.w3.org/2000/svg">
<path d="M189.086 11.9453L186.496 26.875H183.191L186.238 9.32031H189.285L189.086 11.9453ZM196.234 15.4492L196.199 15.6953C196.105 16.4609 195.926 17.2344 195.66 18.0156C195.402 18.7969 195.047 19.5117 194.594 20.1602C194.141 20.8008 193.582 21.3164 192.918 21.707C192.254 22.0898 191.473 22.2695 190.574 22.2461C189.785 22.2227 189.129 22.0156 188.605 21.625C188.082 21.2344 187.672 20.7344 187.375 20.125C187.078 19.5078 186.871 18.8438 186.754 18.1328C186.637 17.4219 186.59 16.7422 186.613 16.0938L186.695 15.4375C186.812 14.7266 187.016 13.9961 187.305 13.2461C187.594 12.4883 187.969 11.793 188.43 11.1602C188.891 10.5195 189.441 10.0078 190.082 9.625C190.723 9.23438 191.461 9.05078 192.297 9.07422C193.164 9.09766 193.871 9.30469 194.418 9.69531C194.973 10.0859 195.395 10.5938 195.684 11.2188C195.973 11.8438 196.152 12.5273 196.223 13.2695C196.301 14.0039 196.305 14.7305 196.234 15.4492ZM192.906 15.6836L192.941 15.4375C192.973 15.0938 192.988 14.7148 192.988 14.3008C192.988 13.8789 192.941 13.4766 192.848 13.0938C192.754 12.7109 192.582 12.3906 192.332 12.1328C192.082 11.875 191.723 11.7383 191.254 11.7227C190.777 11.6992 190.359 11.7734 190 11.9453C189.641 12.1172 189.336 12.3594 189.086 12.6719C188.844 12.9766 188.645 13.3242 188.488 13.7148C188.332 14.1055 188.219 14.5078 188.148 14.9219L187.914 16.5625C187.875 17.0391 187.906 17.5117 188.008 17.9805C188.109 18.4414 188.309 18.8242 188.605 19.1289C188.91 19.4336 189.348 19.5938 189.918 19.6094C190.434 19.6172 190.871 19.5 191.23 19.2578C191.59 19.0156 191.883 18.6953 192.109 18.2969C192.344 17.8906 192.523 17.457 192.648 16.9961C192.773 16.5352 192.859 16.0977 192.906 15.6836ZM202.129 12.2617L200.441 22H197.148L199.352 9.32031H202.445L202.129 12.2617ZM206.266 9.21484L205.855 12.3672C205.668 12.3359 205.477 12.3086 205.281 12.2852C205.094 12.2617 204.902 12.2461 204.707 12.2383C204.254 12.2305 203.844 12.2891 203.477 12.4141C203.109 12.5391 202.789 12.7227 202.516 12.9648C202.25 13.1992 202.023 13.4883 201.836 13.832C201.656 14.1758 201.52 14.5625 201.426 14.9922L200.781 14.7812C200.859 14.1797 200.988 13.5469 201.168 12.8828C201.355 12.2109 201.613 11.5859 201.941 11.0078C202.277 10.4219 202.703 9.94922 203.219 9.58984C203.742 9.22266 204.379 9.04297 205.129 9.05078C205.324 9.05078 205.512 9.06641 205.691 9.09766C205.879 9.12891 206.07 9.16797 206.266 9.21484ZM211.398 22.2344C210.531 22.2188 209.75 22.0547 209.055 21.7422C208.359 21.4219 207.777 20.9844 207.309 20.4297C206.848 19.875 206.508 19.2305 206.289 18.4961C206.07 17.7617 205.992 16.9727 206.055 16.1289L206.102 15.6484C206.195 14.7656 206.41 13.9258 206.746 13.1289C207.082 12.332 207.531 11.6289 208.094 11.0195C208.656 10.4023 209.32 9.92188 210.086 9.57812C210.859 9.22656 211.719 9.0625 212.664 9.08594C213.547 9.10156 214.301 9.28125 214.926 9.625C215.551 9.96875 216.055 10.4297 216.438 11.0078C216.82 11.5859 217.082 12.2461 217.223 12.9883C217.363 13.7227 217.391 14.4922 217.305 15.2969L217.117 16.7031H207.32L207.684 14.4531L214.152 14.4648L214.211 14.1719C214.273 13.7422 214.254 13.3438 214.152 12.9766C214.051 12.6016 213.859 12.3008 213.578 12.0742C213.297 11.8477 212.922 11.7266 212.453 11.7109C211.914 11.6953 211.461 11.8086 211.094 12.0508C210.727 12.293 210.426 12.6133 210.191 13.0117C209.957 13.4102 209.777 13.8438 209.652 14.3125C209.527 14.7734 209.438 15.2188 209.383 15.6484L209.336 16.1172C209.297 16.5312 209.309 16.9453 209.371 17.3594C209.434 17.7656 209.555 18.1328 209.734 18.4609C209.922 18.7891 210.176 19.0547 210.496 19.2578C210.824 19.4609 211.234 19.5703 211.727 19.5859C212.352 19.6016 212.926 19.4805 213.449 19.2227C213.98 18.957 214.457 18.6055 214.879 18.168L216.355 19.9492C216.004 20.4805 215.555 20.918 215.008 21.2617C214.469 21.5977 213.887 21.8438 213.262 22C212.637 22.1641 212.016 22.2422 211.398 22.2344ZM226.012 13.3516L225.543 16H219.109L219.566 13.3516H226.012ZM227.77 15.8594L227.805 15.6133C227.898 14.7148 228.113 13.8711 228.449 13.082C228.793 12.2852 229.246 11.5859 229.809 10.9844C230.379 10.375 231.047 9.90234 231.812 9.56641C232.586 9.22266 233.453 9.0625 234.414 9.08594C235.328 9.10156 236.117 9.28516 236.781 9.63672C237.445 9.98828 237.988 10.4609 238.41 11.0547C238.84 11.6484 239.141 12.3281 239.312 13.0938C239.492 13.8594 239.543 14.668 239.465 15.5195L239.441 15.7773C239.34 16.668 239.113 17.5078 238.762 18.2969C238.418 19.0781 237.961 19.7695 237.391 20.3711C236.828 20.9648 236.16 21.4297 235.387 21.7656C234.613 22.1016 233.754 22.2578 232.809 22.2344C231.91 22.2188 231.125 22.0391 230.453 21.6953C229.781 21.3438 229.234 20.875 228.812 20.2891C228.391 19.6953 228.094 19.0195 227.922 18.2617C227.75 17.5039 227.699 16.7031 227.77 15.8594ZM231.098 15.6133L231.074 15.8711C231.035 16.2461 231.023 16.6484 231.039 17.0781C231.055 17.5 231.121 17.9023 231.238 18.2852C231.363 18.668 231.566 18.9805 231.848 19.2227C232.129 19.4648 232.516 19.5938 233.008 19.6094C233.531 19.625 233.98 19.5195 234.355 19.293C234.73 19.0664 235.039 18.7617 235.281 18.3789C235.523 17.9883 235.715 17.5664 235.855 17.1133C235.996 16.6523 236.09 16.2031 236.137 15.7656L236.16 15.5195C236.191 15.1445 236.199 14.7422 236.184 14.3125C236.176 13.875 236.109 13.4648 235.984 13.082C235.859 12.6914 235.656 12.3711 235.375 12.1211C235.094 11.8711 234.707 11.7383 234.215 11.7227C233.691 11.6992 233.242 11.8086 232.867 12.0508C232.492 12.2852 232.184 12.5977 231.941 12.9883C231.699 13.3789 231.508 13.8047 231.367 14.2656C231.234 14.7266 231.145 15.1758 231.098 15.6133ZM245.324 12.2617L243.637 22H240.344L242.547 9.32031H245.641L245.324 12.2617ZM249.461 9.21484L249.051 12.3672C248.863 12.3359 248.672 12.3086 248.477 12.2852C248.289 12.2617 248.098 12.2461 247.902 12.2383C247.449 12.2305 247.039 12.2891 246.672 12.4141C246.305 12.5391 245.984 12.7227 245.711 12.9648C245.445 13.1992 245.219 13.4883 245.031 13.832C244.852 14.1758 244.715 14.5625 244.621 14.9922L243.977 14.7812C244.055 14.1797 244.184 13.5469 244.363 12.8828C244.551 12.2109 244.809 11.5859 245.137 11.0078C245.473 10.4219 245.898 9.94922 246.414 9.58984C246.938 9.22266 247.574 9.04297 248.324 9.05078C248.52 9.05078 248.707 9.06641 248.887 9.09766C249.074 9.12891 249.266 9.16797 249.461 9.21484ZM256.422 19.0469L259.023 4H262.34L259.223 22H256.258L256.422 19.0469ZM249.203 15.9062L249.227 15.6484C249.328 14.875 249.508 14.0938 249.766 13.3047C250.031 12.5156 250.391 11.7969 250.844 11.1484C251.305 10.5 251.871 9.98438 252.543 9.60156C253.215 9.21875 254.012 9.04297 254.934 9.07422C255.723 9.10547 256.375 9.32812 256.891 9.74219C257.406 10.1484 257.805 10.6758 258.086 11.3242C258.375 11.9648 258.57 12.6484 258.672 13.375C258.781 14.0938 258.824 14.7773 258.801 15.4258L258.742 15.9883C258.617 16.6836 258.406 17.4023 258.109 18.1445C257.82 18.8789 257.441 19.5625 256.973 20.1953C256.512 20.8203 255.961 21.3242 255.32 21.707C254.688 22.0898 253.965 22.2695 253.152 22.2461C252.301 22.2227 251.602 22.0156 251.055 21.625C250.516 21.2266 250.098 20.7148 249.801 20.0898C249.504 19.4648 249.312 18.7852 249.227 18.0508C249.141 17.3164 249.133 16.6016 249.203 15.9062ZM252.543 15.6367L252.52 15.8828C252.488 16.2188 252.469 16.5977 252.461 17.0195C252.461 17.4336 252.504 17.8359 252.59 18.2266C252.684 18.6094 252.852 18.9297 253.094 19.1875C253.344 19.4375 253.703 19.5742 254.172 19.5977C254.766 19.6211 255.277 19.4844 255.707 19.1875C256.137 18.8828 256.48 18.4922 256.738 18.0156C257.004 17.5391 257.18 17.0391 257.266 16.5156L257.488 14.957C257.527 14.5977 257.527 14.2344 257.488 13.8672C257.449 13.5 257.359 13.1562 257.219 12.8359C257.086 12.5156 256.883 12.2539 256.609 12.0508C256.344 11.8477 255.996 11.7422 255.566 11.7344C255.043 11.7109 254.598 11.8242 254.23 12.0742C253.871 12.3164 253.578 12.6367 253.352 13.0352C253.125 13.4258 252.945 13.8516 252.812 14.3125C252.688 14.7734 252.598 15.2148 252.543 15.6367ZM267.695 22.2344C266.828 22.2188 266.047 22.0547 265.352 21.7422C264.656 21.4219 264.074 20.9844 263.605 20.4297C263.145 19.875 262.805 19.2305 262.586 18.4961C262.367 17.7617 262.289 16.9727 262.352 16.1289L262.398 15.6484C262.492 14.7656 262.707 13.9258 263.043 13.1289C263.379 12.332 263.828 11.6289 264.391 11.0195C264.953 10.4023 265.617 9.92188 266.383 9.57812C267.156 9.22656 268.016 9.0625 268.961 9.08594C269.844 9.10156 270.598 9.28125 271.223 9.625C271.848 9.96875 272.352 10.4297 272.734 11.0078C273.117 11.5859 273.379 12.2461 273.52 12.9883C273.66 13.7227 273.688 14.4922 273.602 15.2969L273.414 16.7031H263.617L263.98 14.4531L270.449 14.4648L270.508 14.1719C270.57 13.7422 270.551 13.3438 270.449 12.9766C270.348 12.6016 270.156 12.3008 269.875 12.0742C269.594 11.8477 269.219 11.7266 268.75 11.7109C268.211 11.6953 267.758 11.8086 267.391 12.0508C267.023 12.293 266.723 12.6133 266.488 13.0117C266.254 13.4102 266.074 13.8438 265.949 14.3125C265.824 14.7734 265.734 15.2188 265.68 15.6484L265.633 16.1172C265.594 16.5312 265.605 16.9453 265.668 17.3594C265.73 17.7656 265.852 18.1328 266.031 18.4609C266.219 18.7891 266.473 19.0547 266.793 19.2578C267.121 19.4609 267.531 19.5703 268.023 19.5859C268.648 19.6016 269.223 19.4805 269.746 19.2227C270.277 18.957 270.754 18.6055 271.176 18.168L272.652 19.9492C272.301 20.4805 271.852 20.918 271.305 21.2617C270.766 21.5977 270.184 21.8438 269.559 22C268.934 22.1641 268.312 22.2422 267.695 22.2344ZM279.309 12.2617L277.621 22H274.328L276.531 9.32031H279.625L279.309 12.2617ZM283.445 9.21484L283.035 12.3672C282.848 12.3359 282.656 12.3086 282.461 12.2852C282.273 12.2617 282.082 12.2461 281.887 12.2383C281.434 12.2305 281.023 12.2891 280.656 12.4141C280.289 12.5391 279.969 12.7227 279.695 12.9648C279.43 13.1992 279.203 13.4883 279.016 13.832C278.836 14.1758 278.699 14.5625 278.605 14.9922L277.961 14.7812C278.039 14.1797 278.168 13.5469 278.348 12.8828C278.535 12.2109 278.793 11.5859 279.121 11.0078C279.457 10.4219 279.883 9.94922 280.398 9.58984C280.922 9.22266 281.559 9.04297 282.309 9.05078C282.504 9.05078 282.691 9.06641 282.871 9.09766C283.059 9.12891 283.25 9.16797 283.445 9.21484Z" fill="#3586FF"/>
<path d="M134.277 143.02L130.926 138.32H128.418L133.141 144.59L128.289 151H130.82L134.324 146.172L137.828 151H140.336L135.484 144.59L140.207 138.32H137.664L134.277 143.02Z" fill="black"/>
<path d="M229.059 61.1211C229.629 61.1211 230.133 61.0156 230.57 60.8047C231.008 60.5938 231.391 60.332 231.719 60.0195C232.047 59.707 232.324 59.3672 232.551 59C232.785 58.6328 232.977 58.2852 233.125 57.957L239.559 43.3203H237.133L233.863 51.5469L233.266 53.0352L232.703 51.5L229.223 43.3203H226.797L232.258 55.4023L231.391 57.0898C231.312 57.2461 231.203 57.4453 231.062 57.6875C230.93 57.9297 230.77 58.1641 230.582 58.3906C230.387 58.6172 230.164 58.8125 229.914 58.9766C229.672 59.1406 229.402 59.2227 229.105 59.2227C228.996 59.2227 228.844 59.2148 228.648 59.1992C228.461 59.1914 228.27 59.1797 228.074 59.1641L227.723 60.9336C227.863 60.9648 228.07 61.0039 228.344 61.0508C228.617 61.0977 228.855 61.1211 229.059 61.1211Z" fill="black"/>
<path d="M42.75 217.973V213.977C42.75 212.891 42.625 211.93 42.375 211.094C42.125 210.25 41.7656 209.539 41.2969 208.961C40.8203 208.383 40.2383 207.945 39.5508 207.648C38.8711 207.344 38.0938 207.191 37.2188 207.191C36.3516 207.191 35.5742 207.344 34.8867 207.648C34.207 207.945 33.6328 208.383 33.1641 208.961C32.6875 209.539 32.3242 210.25 32.0742 211.094C31.8242 211.93 31.6992 212.891 31.6992 213.977V217.973C31.6992 219.059 31.8242 220.023 32.0742 220.867C32.3242 221.703 32.6875 222.406 33.1641 222.977C33.6406 223.562 34.2227 224.004 34.9102 224.301C35.5977 224.59 36.375 224.734 37.2422 224.734C38.1172 224.734 38.8945 224.586 39.5742 224.289C40.2539 223.992 40.8281 223.555 41.2969 222.977C41.7656 222.406 42.125 221.703 42.375 220.867C42.625 220.023 42.75 219.059 42.75 217.973ZM33.8789 217.539C33.8789 217.336 33.8789 217.137 33.8789 216.941C33.8789 216.746 33.8789 216.551 33.8789 216.355V213.496C33.8789 212.699 33.957 212 34.1133 211.398C34.2773 210.789 34.5234 210.293 34.8516 209.91C35.125 209.605 35.457 209.375 35.8477 209.219C36.2461 209.055 36.7031 208.973 37.2188 208.973C37.7266 208.973 38.1719 209.047 38.5547 209.195C38.9453 209.344 39.2734 209.566 39.5391 209.863C39.8125 210.152 40.0273 210.516 40.1836 210.953C40.3477 211.383 40.4609 211.879 40.5234 212.441L33.8789 217.539ZM40.5703 218.43C40.5703 219.266 40.4844 219.992 40.3125 220.609C40.1484 221.227 39.8867 221.727 39.5273 222.109C39.2617 222.391 38.9375 222.605 38.5547 222.754C38.1719 222.902 37.7344 222.977 37.2422 222.977C36.7734 222.977 36.3516 222.91 35.9766 222.777C35.6016 222.637 35.2812 222.434 35.0156 222.168C34.7266 221.887 34.4922 221.531 34.3125 221.102C34.1328 220.664 34.0078 220.16 33.9375 219.59L40.5703 214.516C40.5703 214.734 40.5703 215.012 40.5703 215.348C40.5703 215.676 40.5703 215.898 40.5703 216.016V218.43ZM50.2266 223.094C50.2266 223.547 50.3672 223.934 50.6484 224.254C50.9375 224.566 51.3633 224.723 51.9258 224.723C52.4805 224.723 52.9062 224.566 53.2031 224.254C53.5 223.941 53.6484 223.555 53.6484 223.094C53.6484 222.625 53.5 222.23 53.2031 221.91C52.9141 221.582 52.4883 221.418 51.9258 221.418C51.3555 221.418 50.9297 221.582 50.6484 221.91C50.3672 222.238 50.2266 222.633 50.2266 223.094ZM71.5781 217.973V213.977C71.5781 212.891 71.4531 211.93 71.2031 211.094C70.9531 210.25 70.5938 209.539 70.125 208.961C69.6484 208.383 69.0664 207.945 68.3789 207.648C67.6992 207.344 66.9219 207.191 66.0469 207.191C65.1797 207.191 64.4023 207.344 63.7148 207.648C63.0352 207.945 62.4609 208.383 61.9922 208.961C61.5156 209.539 61.1523 210.25 60.9023 211.094C60.6523 211.93 60.5273 212.891 60.5273 213.977V217.973C60.5273 219.059 60.6523 220.023 60.9023 220.867C61.1523 221.703 61.5156 222.406 61.9922 222.977C62.4688 223.562 63.0508 224.004 63.7383 224.301C64.4258 224.59 65.2031 224.734 66.0703 224.734C66.9453 224.734 67.7227 224.586 68.4023 224.289C69.082 223.992 69.6562 223.555 70.125 222.977C70.5938 222.406 70.9531 221.703 71.2031 220.867C71.4531 220.023 71.5781 219.059 71.5781 217.973ZM62.707 217.539C62.707 217.336 62.707 217.137 62.707 216.941C62.707 216.746 62.707 216.551 62.707 216.355V213.496C62.707 212.699 62.7852 212 62.9414 211.398C63.1055 210.789 63.3516 210.293 63.6797 209.91C63.9531 209.605 64.2852 209.375 64.6758 209.219C65.0742 209.055 65.5312 208.973 66.0469 208.973C66.5547 208.973 67 209.047 67.3828 209.195C67.7734 209.344 68.1016 209.566 68.3672 209.863C68.6406 210.152 68.8555 210.516 69.0117 210.953C69.1758 211.383 69.2891 211.879 69.3516 212.441L62.707 217.539ZM69.3984 218.43C69.3984 219.266 69.3125 219.992 69.1406 220.609C68.9766 221.227 68.7148 221.727 68.3555 222.109C68.0898 222.391 67.7656 222.605 67.3828 222.754C67 222.902 66.5625 222.977 66.0703 222.977C65.6016 222.977 65.1797 222.91 64.8047 222.777C64.4297 222.637 64.1094 222.434 63.8438 222.168C63.5547 221.887 63.3203 221.531 63.1406 221.102C62.9609 220.664 62.8359 220.16 62.7656 219.59L69.3984 214.516C69.3984 214.734 69.3984 215.012 69.3984 215.348C69.3984 215.676 69.3984 215.898 69.3984 216.016V218.43Z" fill="black"/>
<path d="M141.57 216.426V218.184H143.117C143.656 218.184 144.148 218.246 144.594 218.371C145.047 218.496 145.434 218.688 145.754 218.945C146.066 219.203 146.309 219.527 146.48 219.918C146.66 220.301 146.75 220.758 146.75 221.289C146.75 221.828 146.672 222.297 146.516 222.695C146.367 223.086 146.152 223.414 145.871 223.68C145.59 223.945 145.25 224.145 144.852 224.277C144.453 224.402 144.008 224.465 143.516 224.465C143.023 224.465 142.574 224.395 142.168 224.254C141.77 224.113 141.43 223.914 141.148 223.656C140.867 223.398 140.648 223.086 140.492 222.719C140.344 222.352 140.27 221.945 140.27 221.5H138.102C138.102 222.25 138.242 222.918 138.523 223.504C138.812 224.09 139.199 224.586 139.684 224.992C140.168 225.398 140.738 225.707 141.395 225.918C142.059 226.129 142.766 226.234 143.516 226.234C144.281 226.234 144.992 226.125 145.648 225.906C146.312 225.68 146.887 225.352 147.371 224.922C147.855 224.5 148.234 223.98 148.508 223.363C148.781 222.746 148.918 222.039 148.918 221.242C148.918 220.852 148.871 220.457 148.777 220.059C148.691 219.66 148.539 219.281 148.32 218.922C148.094 218.562 147.793 218.238 147.418 217.949C147.051 217.66 146.59 217.426 146.035 217.246C146.496 217.051 146.891 216.809 147.219 216.52C147.555 216.223 147.828 215.906 148.039 215.57C148.25 215.242 148.406 214.902 148.508 214.551C148.609 214.199 148.66 213.859 148.66 213.531C148.66 212.742 148.535 212.047 148.285 211.445C148.035 210.844 147.684 210.34 147.23 209.934C146.777 209.527 146.234 209.223 145.602 209.02C144.969 208.809 144.27 208.703 143.504 208.703C142.715 208.703 141.996 208.828 141.348 209.078C140.707 209.32 140.156 209.652 139.695 210.074C139.234 210.504 138.875 211.008 138.617 211.586C138.367 212.156 138.242 212.766 138.242 213.414H140.422C140.422 212.969 140.496 212.566 140.645 212.207C140.793 211.848 141.004 211.539 141.277 211.281C141.543 211.023 141.863 210.828 142.238 210.695C142.621 210.555 143.043 210.484 143.504 210.484C143.98 210.484 144.402 210.547 144.77 210.672C145.145 210.789 145.457 210.969 145.707 211.211C145.965 211.461 146.16 211.777 146.293 212.16C146.426 212.535 146.492 212.977 146.492 213.484C146.492 213.914 146.418 214.309 146.27 214.668C146.121 215.027 145.906 215.336 145.625 215.594C145.336 215.852 144.98 216.055 144.559 216.203C144.145 216.352 143.664 216.426 143.117 216.426H141.57ZM157.227 224.594C157.227 225.047 157.367 225.434 157.648 225.754C157.938 226.066 158.363 226.223 158.926 226.223C159.48 226.223 159.906 226.066 160.203 225.754C160.5 225.441 160.648 225.055 160.648 224.594C160.648 224.125 160.5 223.73 160.203 223.41C159.914 223.082 159.488 222.918 158.926 222.918C158.355 222.918 157.93 223.082 157.648 223.41C157.367 223.738 157.227 224.133 157.227 224.594ZM178.578 219.473V215.477C178.578 214.391 178.453 213.43 178.203 212.594C177.953 211.75 177.594 211.039 177.125 210.461C176.648 209.883 176.066 209.445 175.379 209.148C174.699 208.844 173.922 208.691 173.047 208.691C172.18 208.691 171.402 208.844 170.715 209.148C170.035 209.445 169.461 209.883 168.992 210.461C168.516 211.039 168.152 211.75 167.902 212.594C167.652 213.43 167.527 214.391 167.527 215.477V219.473C167.527 220.559 167.652 221.523 167.902 222.367C168.152 223.203 168.516 223.906 168.992 224.477C169.469 225.062 170.051 225.504 170.738 225.801C171.426 226.09 172.203 226.234 173.07 226.234C173.945 226.234 174.723 226.086 175.402 225.789C176.082 225.492 176.656 225.055 177.125 224.477C177.594 223.906 177.953 223.203 178.203 222.367C178.453 221.523 178.578 220.559 178.578 219.473ZM169.707 219.039C169.707 218.836 169.707 218.637 169.707 218.441C169.707 218.246 169.707 218.051 169.707 217.855V214.996C169.707 214.199 169.785 213.5 169.941 212.898C170.105 212.289 170.352 211.793 170.68 211.41C170.953 211.105 171.285 210.875 171.676 210.719C172.074 210.555 172.531 210.473 173.047 210.473C173.555 210.473 174 210.547 174.383 210.695C174.773 210.844 175.102 211.066 175.367 211.363C175.641 211.652 175.855 212.016 176.012 212.453C176.176 212.883 176.289 213.379 176.352 213.941L169.707 219.039ZM176.398 219.93C176.398 220.766 176.312 221.492 176.141 222.109C175.977 222.727 175.715 223.227 175.355 223.609C175.09 223.891 174.766 224.105 174.383 224.254C174 224.402 173.562 224.477 173.07 224.477C172.602 224.477 172.18 224.41 171.805 224.277C171.43 224.137 171.109 223.934 170.844 223.668C170.555 223.387 170.32 223.031 170.141 222.602C169.961 222.164 169.836 221.66 169.766 221.09L176.398 216.016C176.398 216.234 176.398 216.512 176.398 216.848C176.398 217.176 176.398 217.398 176.398 217.516V219.93Z" fill="black"/>
<path d="M284.828 145.27V133.938H282.52L274.879 145.762V147.039H282.66V151H284.828V147.039H287.207V145.27H284.828ZM277.281 145.27L282.309 137.477L282.66 136.82V145.27H277.281ZM294.227 149.594C294.227 150.047 294.367 150.434 294.648 150.754C294.938 151.066 295.363 151.223 295.926 151.223C296.48 151.223 296.906 151.066 297.203 150.754C297.5 150.441 297.648 150.055 297.648 149.594C297.648 149.125 297.5 148.73 297.203 148.41C296.914 148.082 296.488 147.918 295.926 147.918C295.355 147.918 294.93 148.082 294.648 148.41C294.367 148.738 294.227 149.133 294.227 149.594ZM315.578 144.473V140.477C315.578 139.391 315.453 138.43 315.203 137.594C314.953 136.75 314.594 136.039 314.125 135.461C313.648 134.883 313.066 134.445 312.379 134.148C311.699 133.844 310.922 133.691 310.047 133.691C309.18 133.691 308.402 133.844 307.715 134.148C307.035 134.445 306.461 134.883 305.992 135.461C305.516 136.039 305.152 136.75 304.902 137.594C304.652 138.43 304.527 139.391 304.527 140.477V144.473C304.527 145.559 304.652 146.523 304.902 147.367C305.152 148.203 305.516 148.906 305.992 149.477C306.469 150.062 307.051 150.504 307.738 150.801C308.426 151.09 309.203 151.234 310.07 151.234C310.945 151.234 311.723 151.086 312.402 150.789C313.082 150.492 313.656 150.055 314.125 149.477C314.594 148.906 314.953 148.203 315.203 147.367C315.453 146.523 315.578 145.559 315.578 144.473ZM306.707 144.039C306.707 143.836 306.707 143.637 306.707 143.441C306.707 143.246 306.707 143.051 306.707 142.855V139.996C306.707 139.199 306.785 138.5 306.941 137.898C307.105 137.289 307.352 136.793 307.68 136.41C307.953 136.105 308.285 135.875 308.676 135.719C309.074 135.555 309.531 135.473 310.047 135.473C310.555 135.473 311 135.547 311.383 135.695C311.773 135.844 312.102 136.066 312.367 136.363C312.641 136.652 312.855 137.016 313.012 137.453C313.176 137.883 313.289 138.379 313.352 138.941L306.707 144.039ZM313.398 144.93C313.398 145.766 313.312 146.492 313.141 147.109C312.977 147.727 312.715 148.227 312.355 148.609C312.09 148.891 311.766 149.105 311.383 149.254C311 149.402 310.562 149.477 310.07 149.477C309.602 149.477 309.18 149.41 308.805 149.277C308.43 149.137 308.109 148.934 307.844 148.668C307.555 148.387 307.32 148.031 307.141 147.602C306.961 147.164 306.836 146.66 306.766 146.09L313.398 141.016C313.398 141.234 313.398 141.512 313.398 141.848C313.398 142.176 313.398 142.398 313.398 142.516V144.93Z" fill="black"/>
<path d="M293.5 126.5L297.144 115.543L285.833 117.866L293.5 126.5ZM241 70.5V82H243V70.5H241ZM241 82C241 88.0307 243.734 92.1475 247.891 95.1794C251.983 98.1645 257.487 100.125 263.114 101.943C268.8 103.782 274.63 105.482 279.634 107.935C284.621 110.381 288.638 113.51 290.784 118.108L292.596 117.262C290.177 112.078 285.7 108.683 280.514 106.14C275.345 103.604 269.323 101.849 263.729 100.04C258.074 98.2122 252.867 96.3339 249.069 93.5636C245.336 90.84 243 87.2843 243 82H241Z" fill="black"/>
<path d="M253.5 124.5L259.932 108.418L242.789 110.889L253.5 124.5ZM232.5 71V82.5H235.5V71H232.5ZM232.5 82.5C232.5 87.7833 233.313 91.5571 234.703 94.4378C236.102 97.3377 238.028 99.2081 240.02 100.76C244.028 103.882 247.899 105.58 250.169 111.661L252.98 110.612C250.328 103.508 245.412 101.158 241.863 98.3933C240.077 97.0017 238.532 95.469 237.405 93.134C236.269 90.7798 235.5 87.4871 235.5 82.5H232.5Z" fill="#3586FF"/>
<path d="M159 201L161.773 189.791L150.679 192.994L159 201ZM141 158.5V173H143V158.5H141ZM141 173C141 177.907 141.618 181.38 142.681 183.893C143.757 186.438 145.273 187.961 146.967 188.975C148.604 189.955 150.419 190.453 151.926 190.958C153.49 191.483 154.786 192.027 155.788 193.052L157.219 191.654C155.859 190.263 154.16 189.598 152.562 189.062C150.907 188.508 149.391 188.095 147.994 187.259C146.652 186.456 145.428 185.256 144.523 183.114C143.604 180.94 143 177.763 143 173H141Z" fill="black"/>
<path d="M50 200L60.9396 196.304L52.2693 188.678L50 200ZM126.5 158V175H128.5V158H126.5ZM126.5 175C126.5 177.415 125.746 179.347 124.405 180.933C123.048 182.539 121.047 183.839 118.492 184.883C113.362 186.979 106.259 187.944 98.4563 188.468C90.633 188.994 82.3648 189.067 74.7256 189.452C67.1818 189.832 60.2895 190.515 55.5866 192.309L56.2994 194.178C60.6656 192.512 67.2526 191.831 74.8262 191.45C82.3044 191.073 90.7918 190.988 98.5904 190.464C106.41 189.938 113.795 188.963 119.248 186.735C121.984 185.617 124.298 184.158 125.933 182.224C127.585 180.269 128.5 177.878 128.5 175H126.5Z" fill="black"/>
<path d="M134.5 120.879L140.787 111.193L129.256 110.591L134.5 120.879ZM226 71.5C226 74.2732 225.722 76.7852 224.795 79.0138C223.879 81.2176 222.303 83.2055 219.596 84.8939C214.105 88.3182 203.984 90.5 185.5 90.5V92.5C204.016 92.5 214.645 90.3383 220.654 86.5909C223.697 84.6934 225.558 82.3884 226.642 79.7816C227.716 77.1996 228 74.3833 228 71.5H226ZM185.5 90.5C166.393 90.5 154.092 91.5058 146.298 94.6463C142.36 96.2328 139.524 98.3812 137.545 101.25C135.576 104.105 134.513 107.593 133.977 111.763L135.961 112.018C136.474 108.026 137.469 104.884 139.192 102.386C140.905 99.901 143.395 97.972 147.045 96.5014C154.425 93.5277 166.341 92.5 185.5 92.5V90.5Z" fill="black"/>
<path d="M134.5 120.879L140.787 111.193L129.256 110.591L134.5 120.879ZM226 71.5C226 74.2732 225.722 76.7852 224.795 79.0138C223.879 81.2176 222.303 83.2055 219.596 84.8939C214.105 88.3182 203.984 90.5 185.5 90.5V92.5C204.016 92.5 214.645 90.3383 220.654 86.5909C223.697 84.6934 225.558 82.3884 226.642 79.7816C227.716 77.1996 228 74.3833 228 71.5H226ZM185.5 90.5C166.393 90.5 154.092 91.5058 146.298 94.6463C142.36 96.2328 139.524 98.3812 137.545 101.25C135.576 104.105 134.513 107.593 133.977 111.763L135.961 112.018C136.474 108.026 137.469 104.884 139.192 102.386C140.905 99.901 143.395 97.972 147.045 96.5014C154.425 93.5277 166.341 92.5 185.5 92.5V90.5Z" fill="black"/>
<path d="M112 121.5L121.497 107.015L104.204 106.033L112 121.5ZM209.5 70C209.5 72.4754 208.755 74.2792 207.216 75.7029C205.608 77.19 203.003 78.3848 199.044 79.2793C191.114 81.0713 178.541 81.5 160 81.5V84.5C178.459 84.5 191.386 84.0853 199.706 82.2055C203.872 81.2641 207.079 79.9161 209.253 77.905C211.495 75.8306 212.5 73.1811 212.5 70H209.5ZM160 81.5C142.245 81.5 130.691 83.8068 123.241 88.3079C115.655 92.891 112.524 99.6188 111.282 107.795L114.248 108.245C115.403 100.639 118.202 94.8571 124.792 90.8756C131.518 86.8122 142.383 84.5 160 84.5V81.5Z" fill="#3586FF"/>
<path d="M8 198.5L18.1635 184.475L0.93563 182.686L8 198.5ZM109 159C109 161.435 108.187 163.389 106.465 165.031C104.688 166.725 101.864 168.159 97.7275 169.296C89.443 171.573 76.5014 172.5 58 172.5V175.5C76.4985 175.5 89.8069 174.584 98.5225 172.189C102.886 170.99 106.249 169.381 108.535 167.202C110.875 164.971 112 162.222 112 159H109ZM58 172.5C41.124 172.5 29.663 172.583 22.0046 174.046C18.1495 174.782 15.1109 175.89 12.7856 177.619C10.4247 179.374 8.90958 181.685 7.96696 184.611L10.8224 185.531C11.6052 183.101 12.7933 181.351 14.5755 180.026C16.3932 178.675 18.9375 177.685 22.5672 176.992C29.8784 175.597 40.9947 175.5 58 175.5V172.5Z" fill="#3586FF"/>
<path d="M117 201L133.922 197.307L122.262 184.498L117 201ZM133 160C133 162.403 133.262 164.837 133.457 167.189C133.654 169.577 133.789 171.947 133.583 174.409C133.176 179.259 131.433 184.613 125.858 190.92L128.105 192.907C134.094 186.132 136.11 180.174 136.572 174.66C136.8 171.94 136.646 169.366 136.446 166.942C136.243 164.484 136 162.241 136 160H133Z" fill="#3586FF"/>
<path d="M117.809 151V148.387H110.32L113.531 144.988C114.086 144.418 114.59 143.875 115.043 143.359C115.496 142.836 115.887 142.324 116.215 141.824C116.535 141.324 116.781 140.82 116.953 140.312C117.133 139.797 117.223 139.258 117.223 138.695C117.223 137.953 117.105 137.277 116.871 136.668C116.637 136.051 116.297 135.523 115.852 135.086C115.398 134.648 114.836 134.309 114.164 134.066C113.5 133.824 112.734 133.703 111.867 133.703C110.961 133.703 110.133 133.852 109.383 134.148C108.641 134.438 108.008 134.836 107.484 135.344C106.953 135.852 106.543 136.445 106.254 137.125C105.965 137.797 105.82 138.512 105.82 139.27H109.09C109.09 138.809 109.148 138.398 109.266 138.039C109.383 137.68 109.555 137.379 109.781 137.137C110 136.902 110.273 136.727 110.602 136.609C110.938 136.484 111.324 136.422 111.762 136.422C112.098 136.422 112.402 136.477 112.676 136.586C112.957 136.695 113.199 136.852 113.402 137.055C113.598 137.266 113.75 137.52 113.859 137.816C113.969 138.113 114.023 138.453 114.023 138.836C114.023 139.094 113.98 139.359 113.895 139.633C113.816 139.906 113.688 140.199 113.508 140.512C113.32 140.832 113.078 141.184 112.781 141.566C112.484 141.949 112.121 142.375 111.691 142.844L106.172 148.773V151H117.809Z" fill="#3586FF"/>
<path d="M212.633 56V38.9375H212.457L205.027 41.6211V44.457L209.34 42.9102V56H212.633Z" fill="#3586FF"/>
<path d="M247.816 142.598L250.418 143.242C250.543 143.117 250.676 143 250.816 142.891C250.957 142.773 251.117 142.672 251.297 142.586C251.477 142.5 251.684 142.43 251.918 142.375C252.152 142.32 252.43 142.293 252.75 142.293C253.227 142.293 253.641 142.367 253.992 142.516C254.344 142.664 254.637 142.875 254.871 143.148C255.105 143.422 255.277 143.75 255.387 144.133C255.504 144.508 255.562 144.922 255.562 145.375C255.562 145.836 255.516 146.266 255.422 146.664C255.336 147.062 255.199 147.406 255.012 147.695C254.816 147.984 254.562 148.211 254.25 148.375C253.945 148.539 253.574 148.621 253.137 148.621C252.426 148.621 251.84 148.418 251.379 148.012C250.926 147.605 250.66 147.031 250.582 146.289H247.371C247.395 147.078 247.57 147.781 247.898 148.398C248.234 149.008 248.668 149.523 249.199 149.945C249.73 150.367 250.336 150.688 251.016 150.906C251.703 151.125 252.414 151.234 253.148 151.234C254.117 151.234 254.957 151.082 255.668 150.777C256.379 150.473 256.969 150.059 257.438 149.535C257.906 149.012 258.254 148.406 258.48 147.719C258.707 147.031 258.82 146.305 258.82 145.539C258.82 144.641 258.703 143.836 258.469 143.125C258.234 142.414 257.898 141.812 257.461 141.32C257.016 140.828 256.469 140.453 255.82 140.195C255.18 139.93 254.449 139.797 253.629 139.797C253.051 139.797 252.539 139.871 252.094 140.02C251.648 140.168 251.305 140.312 251.062 140.453L251.473 136.703H258.258V133.938H248.789L247.816 142.598Z" fill="#3586FF"/>
<path d="M6.93359 215.039V217.57H8.70312C9.14844 217.57 9.54688 217.621 9.89844 217.723C10.2578 217.824 10.5664 217.98 10.8242 218.191C11.0742 218.402 11.2656 218.672 11.3984 219C11.5312 219.328 11.5977 219.723 11.5977 220.184C11.5977 220.551 11.5391 220.883 11.4219 221.18C11.3125 221.477 11.1484 221.727 10.9297 221.93C10.7031 222.156 10.4219 222.328 10.0859 222.445C9.75 222.562 9.37109 222.621 8.94922 222.621C8.57422 222.621 8.23047 222.566 7.91797 222.457C7.60547 222.34 7.33594 222.18 7.10938 221.977C6.875 221.781 6.69531 221.547 6.57031 221.273C6.44531 220.992 6.38281 220.688 6.38281 220.359H3.125C3.125 221.188 3.28516 221.906 3.60547 222.516C3.93359 223.125 4.36719 223.629 4.90625 224.027C5.44531 224.434 6.05859 224.738 6.74609 224.941C7.44141 225.137 8.15234 225.234 8.87891 225.234C9.72266 225.234 10.5078 225.125 11.2344 224.906C11.9688 224.68 12.6016 224.352 13.1328 223.922C13.6641 223.5 14.082 222.977 14.3867 222.352C14.6914 221.727 14.8438 221.016 14.8438 220.219C14.8438 219.766 14.7891 219.336 14.6797 218.93C14.5703 218.523 14.4023 218.148 14.1758 217.805C13.9492 217.469 13.6602 217.168 13.3086 216.902C12.9648 216.637 12.5547 216.418 12.0781 216.246C12.4844 216.051 12.8438 215.82 13.1562 215.555C13.4688 215.281 13.7305 214.984 13.9414 214.664C14.1523 214.344 14.3125 214.008 14.4219 213.656C14.5312 213.297 14.5859 212.934 14.5859 212.566C14.5859 211.77 14.4453 211.07 14.1641 210.469C13.8906 209.859 13.5039 209.348 13.0039 208.934C12.5039 208.527 11.9023 208.223 11.1992 208.02C10.4961 207.809 9.72266 207.703 8.87891 207.703C8.09766 207.703 7.36719 207.816 6.6875 208.043C6.01562 208.27 5.42969 208.586 4.92969 208.992C4.42969 209.406 4.03516 209.898 3.74609 210.469C3.46484 211.039 3.32422 211.672 3.32422 212.367H6.58203C6.58203 212.055 6.64453 211.773 6.76953 211.523C6.89453 211.273 7.06641 211.059 7.28516 210.879C7.49609 210.707 7.74219 210.574 8.02344 210.48C8.3125 210.387 8.62109 210.34 8.94922 210.34C9.34766 210.34 9.69531 210.395 9.99219 210.504C10.2969 210.613 10.5469 210.766 10.7422 210.961C10.9375 211.164 11.082 211.406 11.1758 211.688C11.2773 211.961 11.3281 212.266 11.3281 212.602C11.3281 212.945 11.2773 213.266 11.1758 213.562C11.082 213.852 10.9375 214.098 10.7422 214.301C10.5312 214.535 10.2539 214.719 9.91016 214.852C9.57422 214.977 9.17188 215.039 8.70312 215.039H6.93359Z" fill="#3586FF"/>
<path d="M120.168 220.66V209.938H116.863L109.691 221.258L109.82 223.297H116.91V227H120.168V223.297H122.148V220.66H120.168ZM112.891 220.66L116.594 214.883L116.91 214.32V220.66H112.891Z" fill="#3586FF"/>
</svg>
