<?xml version="1.0" encoding="UTF-8" standalone="no"?>
<svg
   xmlns:dc="http://purl.org/dc/elements/1.1/"
   xmlns:cc="http://creativecommons.org/ns#"
   xmlns:rdf="http://www.w3.org/1999/02/22-rdf-syntax-ns#"
   xmlns:svg="http://www.w3.org/2000/svg"
   xmlns="http://www.w3.org/2000/svg"
   xmlns:sodipodi="http://sodipodi.sourceforge.net/DTD/sodipodi-0.dtd"
   xmlns:inkscape="http://www.inkscape.org/namespaces/inkscape"
   width="635.62695"
   height="671.31201"
   viewBox="0 0 635.62695 671.31201"
   version="1.1"
   id="svg52"
   sodipodi:docname="Group.svg"
   style="fill:none"
   inkscape:version="0.92.3 (2405546, 2018-03-11)">
  <metadata
     id="metadata58">
    <rdf:RDF>
      <cc:Work
         rdf:about="">
        <dc:format>image/svg+xml</dc:format>
        <dc:type
           rdf:resource="http://purl.org/dc/dcmitype/StillImage" />
      </cc:Work>
    </rdf:RDF>
  </metadata>
  <defs
     id="defs56" />
  <sodipodi:namedview
     pagecolor="#ffffff"
     bordercolor="#666666"
     borderopacity="1"
     objecttolerance="10"
     gridtolerance="10"
     guidetolerance="10"
     inkscape:pageopacity="0"
     inkscape:pageshadow="2"
     inkscape:window-width="1920"
     inkscape:window-height="1016"
     id="namedview54"
     showgrid="false"
     inkscape:zoom="0.55204678"
     inkscape:cx="706.20799"
     inkscape:cy="327.48727"
     inkscape:window-x="0"
     inkscape:window-y="27"
     inkscape:window-maximized="1"
     inkscape:current-layer="svg52" />
  <rect
     x="96.126953"
     y="94.5"
     width="539"
     height="479"
     id="rect2"
     style="fill:#c4c4c4;stroke:#000000" />
  <line
     x1="397.12796"
     y1="94"
     x2="397.12796"
     y2="574"
     id="line4"
     style="stroke:#000000" />
  <line
     x1="337.12796"
     y1="94"
     x2="337.12796"
     y2="574"
     id="line6"
     style="stroke:#000000" />
  <line
     x1="277.12796"
     y1="94"
     x2="277.12796"
     y2="574"
     id="line8"
     style="stroke:#000000" />
  <line
     x1="217.12796"
     y1="94"
     x2="217.12796"
     y2="574"
     id="line10"
     style="stroke:#000000" />
  <line
     x1="517.12695"
     y1="94"
     x2="517.12695"
     y2="574"
     id="line12"
     style="stroke:#000000" />
  <line
     x1="457.12695"
     y1="94"
     x2="457.12695"
     y2="574"
     id="line14"
     style="stroke:#000000" />
  <line
     x1="577.12695"
     y1="94"
     x2="577.12695"
     y2="574"
     id="line16"
     style="stroke:#000000" />
  <line
     x1="156.12796"
     y1="94"
     x2="156.12796"
     y2="574"
     id="line18"
     style="stroke:#000000" />
  <line
     x1="96.127556"
     y1="94"
     x2="96.127556"
     y2="574"
     id="line20"
     style="stroke:#000000" />
  <line
     x1="95.626953"
     y1="153.5"
     x2="635.62695"
     y2="153.5"
     id="line22"
     style="stroke:#000000" />
  <line
     x1="95.626953"
     y1="213.5"
     x2="635.62695"
     y2="213.5"
     id="line24"
     style="stroke:#000000" />
  <line
     x1="95.626953"
     y1="273.5"
     x2="635.62695"
     y2="273.5"
     id="line26"
     style="stroke:#000000" />
  <line
     x1="95.626953"
     y1="333.5"
     x2="635.62695"
     y2="333.5"
     id="line28"
     style="stroke:#000000" />
  <line
     x1="95.626953"
     y1="394.5"
     x2="635.62695"
     y2="394.5"
     id="line30"
     style="stroke:#000000" />
  <line
     x1="95.626953"
     y1="454.5"
     x2="635.62695"
     y2="454.5"
     id="line32"
     style="stroke:#000000" />
  <line
     x1="95.626953"
     y1="514.5"
     x2="635.62695"
     y2="514.5"
     id="line34"
     style="stroke:#000000" />
  <path
     d="m 78.16685,574 c -3.0128,-0.326 -5.7475,-2.119 -8.2041,-5.38 -2.4566,-3.26 -4.6583,-7.661 -6.605,-13.204 -1.9468,-5.542 -3.6386,-11.981 -5.0755,-19.317 -1.3905,-7.336 -2.5725,-15.242 -3.5458,-23.719 -0.9271,-8.314 -1.6223,-16.954 -2.0858,-25.919 -0.4635,-8.803 -0.6953,-17.525 -0.6953,-26.165 v -41.324 c 0,-23.474 -1.5991,-40.509 -4.7973,-51.105 -3.1519,-10.596 -7.9956,-15.976 -14.5311,-16.139 v -35.456 c 6.5355,0 11.3792,-5.216 14.5311,-15.649 3.1982,-10.597 4.7973,-27.713 4.7973,-51.35 v -41.569 c 0,-8.64 0.2086,-17.362 0.6257,-26.165 0.4172,-8.965 1.0661,-17.605 1.9468,-25.919 0.8807,-8.477 1.9931,-16.383 3.3373,-23.719 1.3905,-7.336 3.0591,-13.775 5.0059,-19.317 1.9467,-5.543 4.1716,-9.944 6.6745,-13.204 2.5493,-3.261 5.4231,-5.054 8.6213,-5.38 l 1.4601,28.12 c -3.3373,0.326 -6.0025,3.098 -7.9956,8.314 -1.9467,5.217 -3.4299,11.9 -4.4497,20.051 -0.9733,7.988 -1.5991,17.035 -1.8772,27.142 -0.2781,10.107 -0.4171,20.133 -0.4171,30.077 v 41.569 c -0.0464,19.561 -1.3442,36.76 -3.8935,51.594 -2.5493,14.671 -6.5124,25.838 -11.8891,33.5 5.3767,7.499 9.3398,18.665 11.8891,33.5 2.5493,14.671 3.8471,31.706 3.8935,51.105 v 41.324 c 0,10.107 0.2317,20.133 0.6952,30.077 0.4635,10.107 1.2515,19.154 2.3639,27.142 1.1588,8.151 2.6652,14.834 4.5193,20.051 1.9004,5.216 4.2874,7.988 7.1612,8.314 z"
     id="path36"
     inkscape:connector-curvature="0"
     style="fill:#000000" />
  <path
     d="m 95.62695,78.851 c 0.2859,-2.372 1.8587,-4.525 4.718,-6.459 2.86,-1.934 6.72,-3.667 11.582,-5.2 4.861,-1.532 10.508,-2.864 16.942,-3.995 6.435,-1.095 13.369,-2.025 20.804,-2.792 7.292,-0.729 14.87,-1.277 22.733,-1.642 7.721,-0.365 15.371,-0.547 22.948,-0.547 h 36.245 c 20.589,0 35.531,-1.259 44.824,-3.777 9.294,-2.481 14.012,-6.294 14.155,-11.439 h 31.098 c 0,5.145 4.575,8.958 13.726,11.439 9.293,2.518 24.306,3.777 45.038,3.777 h 36.46 c 7.577,0 15.227,0.164 22.948,0.493 7.863,0.328 15.441,0.839 22.733,1.532 7.435,0.693 14.369,1.569 20.804,2.627 6.434,1.095 12.081,2.409 16.942,3.941 4.862,1.533 8.722,3.284 11.582,5.255 2.859,2.007 4.432,4.269 4.718,6.787 L 491.96295,80 c -0.286,-2.627 -2.716,-4.725 -7.292,-6.294 -4.575,-1.533 -10.437,-2.701 -17.586,-3.503 -7.006,-0.767 -14.941,-1.259 -23.806,-1.478 -8.865,-0.219 -17.658,-0.329 -26.379,-0.329 h -36.46 c -17.157,-0.036 -32.242,-1.058 -45.253,-3.065 -12.868,-2.007 -22.662,-5.126 -29.382,-9.359 -6.577,4.233 -16.371,7.352 -29.382,9.359 -12.868,2.007 -27.809,3.029 -44.824,3.065 h -36.245 c -8.864,0 -17.657,0.183 -26.379,0.548 -8.865,0.365 -16.8,0.985 -23.806,1.861 -7.149,0.912 -13.011,2.098 -17.586,3.557 -4.576,1.496 -7.006,3.376 -7.292,5.638 z"
     id="path38"
     inkscape:connector-curvature="0"
     style="fill:#000000" />
  <path
     d="m 616.62695,585.46 c -0.354,3.013 -2.3,5.748 -5.839,8.204 -3.539,2.457 -8.316,4.658 -14.332,6.605 -6.016,1.947 -13.005,3.639 -20.968,5.076 -7.962,1.39 -16.543,2.572 -25.744,3.546 -9.024,0.927 -18.402,1.622 -28.134,2.085 -9.555,0.464 -19.021,0.696 -28.399,0.696 h -44.854 c -25.479,0 -43.97,1.599 -55.471,4.797 -11.501,3.152 -17.34,7.996 -17.517,14.531 h -38.484 c 0,-6.536 -5.662,-11.379 -16.986,-14.531 -11.502,-3.198 -30.08,-4.797 -55.737,-4.797 h -45.119 c -9.378,0 -18.844,-0.209 -28.399,-0.626 -9.732,-0.417 -19.11,-1.066 -28.134,-1.947 -9.201,-0.881 -17.782,-1.993 -25.744,-3.337 -7.963,-1.391 -14.952,-3.059 -20.968,-5.006 -6.016,-1.947 -10.793,-4.172 -14.332,-6.675 -3.539,-2.549 -5.4851,-5.423 -5.839,-8.621 l 30.522,-1.46 c 0.354,3.337 3.362,6.002 9.024,7.996 5.662,1.946 12.917,3.43 21.764,4.449 8.67,0.974 18.49,1.599 29.46,1.877 10.971,0.279 21.852,0.418 32.646,0.418 h 45.119 c 21.233,0.046 39.9,1.344 56.002,3.893 15.925,2.549 28.045,6.512 36.361,11.889 8.139,-5.377 20.26,-9.34 36.361,-11.889 15.925,-2.549 34.415,-3.847 55.471,-3.893 h 44.854 c 10.971,0 21.852,-0.232 32.646,-0.696 10.97,-0.463 20.79,-1.251 29.46,-2.364 8.847,-1.158 16.102,-2.665 21.764,-4.519 5.662,-1.9 8.67,-4.287 9.024,-7.161 z"
     id="path40"
     inkscape:connector-curvature="0"
     style="fill:#ff4747" />
  <path
     d="m 249.56795,20.109 0.387,2.725 0.475,-2.725 3.041,-12.129 h 2.092 l 3.023,12.129 0.51,2.989 0.474,-2.989 2.11,-12.129 h 2.883 l -4.043,19.02 h -2.567 l -2.971,-11.654 -0.492,-2.953 -0.474,2.953 -2.936,11.654 h -2.566 l -4.043,-19.02 h 2.883 z m 19.248,-12.129 h 9.721 v 16.208 h 6.205 V 27 h -15.926 v -2.812 h 6.469 V 10.811 h -6.469 z m 6.047,-4.992 c 0,-0.539 0.159,-0.99 0.475,-1.353 0.328,-0.375 0.82,-0.563 1.477,-0.563 0.644,0 1.13,0.188 1.458,0.563 0.329,0.363 0.493,0.814 0.493,1.353 0,0.528 -0.164,0.967 -0.493,1.319 -0.328,0.351 -0.814,0.527 -1.458,0.527 -0.657,0 -1.149,-0.176 -1.477,-0.527 -0.316,-0.352 -0.475,-0.791 -0.475,-1.319 z m 14.45,14.344 c 0,-1.418 0.175,-2.719 0.527,-3.902 0.363,-1.196 0.873,-2.221 1.529,-3.076 0.668,-0.856 1.471,-1.524 2.408,-2.004 0.938,-0.481 1.987,-0.721 3.147,-0.721 1.137,0 2.127,0.193 2.971,0.58 0.855,0.375 1.593,0.926 2.214,1.652 V 0 h 3.252 v 27 h -2.988 l -0.141,-2.004 c -0.632,0.774 -1.388,1.359 -2.267,1.758 -0.879,0.398 -1.904,0.598 -3.076,0.598 -1.149,0 -2.192,-0.247 -3.129,-0.739 -0.926,-0.492 -1.717,-1.172 -2.373,-2.039 -0.656,-0.867 -1.166,-1.886 -1.53,-3.058 -0.363,-1.184 -0.544,-2.455 -0.544,-3.815 z m 3.252,0.369 c 0,0.926 0.099,1.805 0.298,2.637 0.2,0.832 0.504,1.564 0.914,2.197 0.422,0.633 0.955,1.137 1.6,1.512 0.645,0.363 1.418,0.545 2.32,0.545 0.551,0 1.049,-0.065 1.494,-0.194 0.446,-0.128 0.85,-0.31 1.213,-0.544 0.364,-0.247 0.686,-0.534 0.967,-0.862 0.281,-0.34 0.527,-0.715 0.738,-1.125 v -8.824 c -0.421,-0.773 -0.99,-1.406 -1.705,-1.898 -0.715,-0.504 -1.605,-0.756 -2.672,-0.756 -0.914,0 -1.699,0.187 -2.355,0.562 -0.645,0.375 -1.178,0.885 -1.6,1.529 -0.41,0.633 -0.714,1.372 -0.914,2.215 -0.199,0.832 -0.298,1.711 -0.298,2.637 z m 26.683,-14.326 V 7.98 h 7.242 v 2.514 h -7.242 V 20.83 c 0,0.738 0.094,1.348 0.281,1.828 0.188,0.481 0.446,0.867 0.774,1.16 0.328,0.282 0.703,0.481 1.125,0.598 0.433,0.117 0.89,0.176 1.371,0.176 0.351,0 0.715,-0.018 1.09,-0.053 0.375,-0.047 0.738,-0.1 1.09,-0.158 0.363,-0.059 0.697,-0.117 1.002,-0.176 0.316,-0.07 0.574,-0.129 0.773,-0.176 l 0.457,2.303 c -0.27,0.164 -0.598,0.311 -0.984,0.439 -0.387,0.118 -0.809,0.217 -1.266,0.299 -0.457,0.094 -0.943,0.164 -1.459,0.211 -0.504,0.047 -1.008,0.071 -1.512,0.071 -0.843,0 -1.634,-0.118 -2.373,-0.352 -0.726,-0.246 -1.359,-0.627 -1.898,-1.143 -0.539,-0.527 -0.967,-1.201 -1.283,-2.021 -0.305,-0.832 -0.457,-1.834 -0.457,-3.006 V 10.494 h -4.993 V 7.98 h 4.993 V 3.375 Z m 17.174,7.436 c 0.68,-0.997 1.517,-1.77 2.514,-2.321 0.996,-0.562 2.115,-0.849 3.357,-0.861 0.996,0 1.898,0.146 2.707,0.439 0.82,0.282 1.518,0.727 2.092,1.336 0.574,0.61 1.014,1.383 1.318,2.321 0.317,0.925 0.475,2.027 0.475,3.304 V 27 h -3.252 V 14.994 c 0,-1.558 -0.375,-2.719 -1.125,-3.48 -0.738,-0.762 -1.799,-1.137 -3.182,-1.125 -1.043,0 -1.992,0.257 -2.847,0.773 -0.844,0.504 -1.53,1.178 -2.057,2.022 V 27 h -3.252 V 0 h 3.252 z"
     id="path42"
     inkscape:connector-curvature="0"
     style="fill:#000000" />
  <path
     d="m 3.9375,239.811 c 0.67968,-0.997 1.51757,-1.77 2.51367,-2.321 0.99609,-0.562 2.11528,-0.849 3.35738,-0.861 0.9961,0 1.8985,0.146 2.7071,0.439 0.8203,0.282 1.5175,0.727 2.0918,1.336 0.5742,0.61 1.0136,1.383 1.3183,2.321 0.3164,0.925 0.4746,2.027 0.4746,3.304 V 256 h -3.2519 v -12.006 c 0,-1.558 -0.375,-2.719 -1.125,-3.48 -0.7383,-0.762 -1.7988,-1.137 -3.1817,-1.125 -1.0429,0 -1.99214,0.257 -2.84761,0.773 -0.84375,0.504 -1.5293,1.178 -2.05664,2.022 V 256 H 0.68554 V 229 H 3.9375 Z m 5.15035,52.541 c -1.3359,0 -2.56637,-0.229 -3.69137,-0.686 C 4.2832,291.209 3.32812,290.57 2.53125,289.75 1.73437,288.93 1.11328,287.957 0.66797,286.832 0.22265,285.707 0,284.482 0,283.158 v -0.738 c 0,-1.535 0.24609,-2.906 0.73828,-4.113 0.49219,-1.219 1.14258,-2.245 1.95117,-3.077 0.82031,-0.843 1.74609,-1.488 2.77734,-1.933 1.04297,-0.445 2.10938,-0.668 3.19926,-0.668 1.3711,0 2.5664,0.24 3.5859,0.721 1.0312,0.468 1.8867,1.125 2.5664,1.968 0.6797,0.832 1.1836,1.817 1.5117,2.953 0.3399,1.137 0.5098,2.368 0.5098,3.692 v 1.459 H 3.25195 c 0.03516,0.867 0.19922,1.682 0.49219,2.443 0.30469,0.762 0.71484,1.43 1.23047,2.004 0.52734,0.563 1.15429,1.008 1.88086,1.336 0.72656,0.328 1.52928,0.492 2.40818,0.492 1.1602,0 2.1914,-0.234 3.0938,-0.703 0.9023,-0.469 1.6523,-1.09 2.25,-1.863 l 1.9863,1.547 c -0.3164,0.48 -0.7148,0.943 -1.1953,1.388 -0.4688,0.434 -1.0137,0.821 -1.6348,1.161 -0.6211,0.339 -1.3242,0.609 -2.1094,0.808 -0.7851,0.211 -1.6406,0.317 -2.5664,0.317 z m -0.4218,-17.051 c -0.6563,0 -1.27738,0.123 -1.86332,0.369 -0.58594,0.234 -1.11328,0.586 -1.58203,1.055 -0.46875,0.457 -0.86719,1.025 -1.19531,1.705 -0.31641,0.668 -0.53906,1.441 -0.66797,2.32 h 10.23043 v -0.246 c -0.0351,-0.633 -0.1582,-1.26 -0.3691,-1.881 -0.1992,-0.621 -0.498,-1.178 -0.8965,-1.67 -0.3984,-0.492 -0.9023,-0.891 -1.5117,-1.195 -0.5977,-0.305 -1.3125,-0.457 -2.1445,-0.457 z M 1.19531,308.98 h 9.72074 v 16.208 h 6.205 V 328 H 1.19531 v -2.812 H 7.66405 V 311.811 H 1.19531 Z m 6.04687,-4.992 c 0,-0.539 0.15821,-0.99 0.47457,-1.353 0.3282,-0.375 0.8204,-0.563 1.4766,-0.563 0.6445,0 1.1309,0.188 1.459,0.563 0.3281,0.363 0.4922,0.814 0.4922,1.353 0,0.528 -0.1641,0.967 -0.4922,1.319 -0.3281,0.351 -0.8145,0.527 -1.459,0.527 -0.6562,0 -1.1484,-0.176 -1.4766,-0.527 -0.31636,-0.352 -0.47457,-0.791 -0.47457,-1.319 z m -7.15429,50.344 c 0,-1.418 0.16992,-2.719 0.50976,-3.902 0.35157,-1.196 0.85547,-2.221 1.51172,-3.076 0.65625,-0.856 1.45313,-1.524 2.39063,-2.004 0.9375,-0.481 1.99804,-0.721 3.18165,-0.721 1.1719,0 2.1973,0.211 3.0762,0.633 0.8906,0.41 1.6464,1.008 2.2675,1.793 l 0.1582,-2.075 h 2.9532 v 18.616 c 0,1.254 -0.1993,2.367 -0.5977,3.34 -0.3867,0.972 -0.9375,1.798 -1.6523,2.478 -0.7032,0.68 -1.5469,1.195 -2.5313,1.547 -0.9844,0.351 -2.0742,0.527 -3.2695,0.527 -0.4922,0 -1.0547,-0.058 -1.68752,-0.176 -0.63281,-0.105 -1.27734,-0.287 -1.93359,-0.544 -0.64453,-0.247 -1.27148,-0.58 -1.88086,-1.002 -0.59765,-0.422 -1.11328,-0.944 -1.54687,-1.565 l 1.6875,-1.951 c 0.39843,0.48 0.80859,0.885 1.23046,1.213 0.42188,0.34 0.84961,0.609 1.28321,0.808 0.43359,0.2 0.86719,0.34 1.30078,0.422 0.43359,0.094 0.86719,0.141 1.30079,0.141 0.7734,0 1.4707,-0.111 2.0918,-0.334 0.6211,-0.223 1.1484,-0.551 1.582,-0.984 0.4453,-0.422 0.7852,-0.95 1.0195,-1.582 0.2344,-0.633 0.3516,-1.36 0.3516,-2.18 v -1.635 c -0.6328,0.727 -1.3828,1.283 -2.25,1.67 -0.8555,0.375 -1.8516,0.563 -2.9883,0.563 -1.16012,0 -2.20895,-0.247 -3.14645,-0.739 -0.9375,-0.492 -1.73438,-1.172 -2.39063,-2.039 -0.64453,-0.867 -1.14258,-1.886 -1.49414,-3.058 -0.35156,-1.184 -0.52734,-2.455 -0.52734,-3.815 z m 3.25195,0.369 c 0,0.926 0.09375,1.805 0.28125,2.637 0.19922,0.832 0.50391,1.564 0.91406,2.197 0.42188,0.633 0.95508,1.137 1.59961,1.512 0.64453,0.363 1.41797,0.545 2.32029,0.545 0.5625,0 1.0664,-0.065 1.5117,-0.194 0.4571,-0.14 0.8614,-0.334 1.2129,-0.58 0.3633,-0.246 0.6856,-0.539 0.9668,-0.879 0.2813,-0.339 0.5274,-0.714 0.7383,-1.125 v -8.718 c -0.2109,-0.399 -0.457,-0.762 -0.7383,-1.09 -0.2812,-0.328 -0.6035,-0.61 -0.9668,-0.844 -0.3632,-0.246 -0.7675,-0.433 -1.2129,-0.562 -0.4453,-0.141 -0.9375,-0.211 -1.4765,-0.211 -0.91408,0 -1.69924,0.187 -2.35549,0.562 -0.64453,0.375 -1.17773,0.885 -1.59961,1.529 -0.41015,0.633 -0.71484,1.372 -0.91406,2.215 -0.1875,0.832 -0.28125,1.711 -0.28125,2.637 z m 0.59766,29.11 c 0.67968,-0.997 1.51757,-1.77 2.51367,-2.321 0.99609,-0.562 2.11528,-0.849 3.35738,-0.861 0.9961,0 1.8985,0.146 2.7071,0.439 0.8203,0.282 1.5175,0.727 2.0918,1.336 0.5742,0.61 1.0136,1.383 1.3183,2.321 0.3164,0.925 0.4746,2.027 0.4746,3.304 V 400 h -3.2519 v -12.006 c 0,-1.558 -0.375,-2.719 -1.125,-3.48 -0.7383,-0.762 -1.7988,-1.137 -3.1817,-1.125 -1.0429,0 -1.99214,0.257 -2.84761,0.773 -0.84375,0.504 -1.5293,1.178 -2.05664,2.022 V 400 H 0.68554 V 373 H 3.9375 Z m 4.44725,28.564 v 4.605 h 7.2422 v 2.514 h -7.2422 v 10.336 c 0,0.738 0.0938,1.348 0.2813,1.828 0.1875,0.481 0.4453,0.867 0.7734,1.16 0.3281,0.282 0.7031,0.481 1.125,0.598 0.4336,0.117 0.8906,0.176 1.3711,0.176 0.3516,0 0.7148,-0.018 1.0898,-0.053 0.375,-0.047 0.7383,-0.1 1.0899,-0.158 0.3633,-0.059 0.6972,-0.117 1.0019,-0.176 0.3164,-0.07 0.5743,-0.129 0.7735,-0.176 l 0.457,2.303 c -0.2695,0.164 -0.5977,0.311 -0.9844,0.439 -0.3867,0.118 -0.8086,0.217 -1.2656,0.299 -0.457,0.094 -0.9434,0.164 -1.459,0.211 -0.5039,0.047 -1.0078,0.071 -1.5117,0.071 -0.8438,0 -1.6348,-0.118 -2.373,-0.352 -0.7266,-0.246 -1.35942,-0.627 -1.89848,-1.143 C 6.3164,434.33 5.88867,433.656 5.57226,432.836 5.26757,432.004 5.11523,431.002 5.11523,429.83 V 419.494 H 0.12304 v -2.514 h 4.99219 v -4.605 z"
     id="path44"
     inkscape:connector-curvature="0"
     style="fill:#000000" />
  <path
     d="m 325.73395,654.701 c 0,1.36 -0.164,2.631 -0.492,3.815 -0.328,1.172 -0.808,2.191 -1.441,3.058 -0.633,0.867 -1.418,1.547 -2.356,2.039 -0.925,0.492 -1.986,0.739 -3.181,0.739 -1.16,0 -2.186,-0.188 -3.076,-0.563 -0.879,-0.375 -1.635,-0.914 -2.268,-1.617 v 9.14 h -3.252 V 644.98 h 2.971 l 0.158,2.075 c 0.633,-0.785 1.394,-1.383 2.285,-1.793 0.902,-0.422 1.945,-0.633 3.129,-0.633 1.219,0 2.297,0.24 3.234,0.721 0.938,0.48 1.723,1.148 2.356,2.004 0.633,0.855 1.113,1.88 1.441,3.076 0.328,1.183 0.492,2.484 0.492,3.902 z m -3.252,-0.369 c 0,-0.926 -0.105,-1.805 -0.316,-2.637 -0.199,-0.843 -0.516,-1.582 -0.949,-2.215 -0.422,-0.644 -0.961,-1.154 -1.617,-1.529 -0.657,-0.375 -1.442,-0.562 -2.356,-0.562 -1.043,0 -1.922,0.246 -2.637,0.738 -0.703,0.48 -1.265,1.102 -1.687,1.863 v 9.158 c 0.422,0.75 0.984,1.366 1.687,1.846 0.704,0.469 1.594,0.703 2.672,0.703 0.903,0 1.682,-0.187 2.338,-0.562 0.656,-0.387 1.196,-0.903 1.617,-1.547 0.422,-0.645 0.733,-1.389 0.932,-2.233 0.211,-0.843 0.316,-1.728 0.316,-2.654 z m 9.334,-9.352 h 9.721 v 16.208 h 6.205 V 664 h -15.926 v -2.812 h 6.469 v -13.377 h -6.469 z m 6.047,-4.992 c 0,-0.539 0.159,-0.99 0.475,-1.353 0.328,-0.375 0.82,-0.563 1.477,-0.563 0.644,0 1.13,0.188 1.458,0.563 0.329,0.363 0.493,0.814 0.493,1.353 0,0.528 -0.164,0.967 -0.493,1.319 -0.328,0.351 -0.814,0.527 -1.458,0.527 -0.657,0 -1.149,-0.176 -1.477,-0.527 -0.316,-0.352 -0.475,-0.791 -0.475,-1.319 z m 22.764,0.387 v 4.605 h 7.242 v 2.514 h -7.242 v 10.336 c 0,0.738 0.094,1.348 0.281,1.828 0.188,0.481 0.446,0.867 0.774,1.16 0.328,0.282 0.703,0.481 1.125,0.598 0.433,0.117 0.89,0.176 1.371,0.176 0.351,0 0.715,-0.018 1.09,-0.053 0.375,-0.047 0.738,-0.1 1.089,-0.158 0.364,-0.059 0.698,-0.117 1.002,-0.176 0.317,-0.07 0.575,-0.129 0.774,-0.176 l 0.457,2.303 c -0.27,0.164 -0.598,0.311 -0.984,0.439 -0.387,0.118 -0.809,0.217 -1.266,0.299 -0.457,0.094 -0.943,0.164 -1.459,0.211 -0.504,0.047 -1.008,0.071 -1.512,0.071 -0.844,0 -1.635,-0.118 -2.373,-0.352 -0.726,-0.246 -1.359,-0.627 -1.898,-1.143 -0.539,-0.527 -0.967,-1.201 -1.283,-2.021 -0.305,-0.832 -0.458,-1.834 -0.458,-3.006 v -10.336 h -4.992 v -2.514 h 4.992 v -4.605 z m 22.025,21.34 c 0.586,0 1.155,-0.094 1.705,-0.281 0.563,-0.188 1.061,-0.446 1.495,-0.774 0.433,-0.34 0.779,-0.732 1.037,-1.178 0.269,-0.457 0.41,-0.949 0.422,-1.476 h 3.076 c -0.012,0.844 -0.235,1.652 -0.668,2.426 -0.422,0.761 -0.99,1.435 -1.705,2.021 -0.715,0.574 -1.535,1.037 -2.461,1.389 -0.926,0.34 -1.893,0.51 -2.901,0.51 -1.441,0 -2.701,-0.258 -3.779,-0.774 -1.078,-0.516 -1.98,-1.207 -2.707,-2.074 -0.715,-0.879 -1.254,-1.887 -1.617,-3.024 -0.363,-1.148 -0.545,-2.355 -0.545,-3.621 v -0.738 c 0,-1.254 0.182,-2.455 0.545,-3.603 0.363,-1.149 0.902,-2.157 1.617,-3.024 0.727,-0.879 1.629,-1.576 2.707,-2.092 1.078,-0.515 2.338,-0.773 3.779,-0.773 1.125,0 2.157,0.182 3.094,0.545 0.949,0.351 1.764,0.838 2.443,1.459 0.692,0.609 1.231,1.336 1.618,2.179 0.386,0.844 0.58,1.747 0.58,2.708 h -3.076 c -0.012,-0.575 -0.141,-1.114 -0.387,-1.618 -0.235,-0.515 -0.557,-0.966 -0.967,-1.353 -0.41,-0.387 -0.902,-0.692 -1.476,-0.914 -0.563,-0.223 -1.172,-0.334 -1.829,-0.334 -1.007,0 -1.857,0.205 -2.548,0.615 -0.68,0.398 -1.231,0.926 -1.653,1.582 -0.422,0.645 -0.726,1.371 -0.914,2.18 -0.176,0.808 -0.264,1.623 -0.264,2.443 v 0.738 c 0,0.832 0.088,1.659 0.264,2.479 0.188,0.808 0.486,1.541 0.897,2.197 0.422,0.645 0.972,1.172 1.652,1.582 0.691,0.399 1.547,0.598 2.566,0.598 z m 16.77,-13.904 c 0.68,-0.997 1.517,-1.77 2.514,-2.321 0.996,-0.562 2.115,-0.849 3.357,-0.861 0.996,0 1.898,0.146 2.707,0.439 0.82,0.282 1.518,0.727 2.092,1.336 0.574,0.61 1.014,1.383 1.318,2.321 0.317,0.925 0.475,2.027 0.475,3.304 V 664 h -3.252 v -12.006 c 0,-1.558 -0.375,-2.719 -1.125,-3.48 -0.738,-0.762 -1.799,-1.137 -3.182,-1.125 -1.043,0 -1.992,0.257 -2.847,0.773 -0.844,0.504 -1.53,1.178 -2.057,2.022 V 664 h -3.252 v -27 h 3.252 z"
     id="path46"
     inkscape:connector-curvature="0"
     style="fill:#000000" />
  <path
     d="m 390.75995,515 c -2.578,-4.922 -4.688,-11.016 -6.328,-18.281 -1.407,-7.5 -2.461,-15.235 -3.164,-23.203 -6.563,6.562 -13.946,12.773 -22.149,18.632 -7.969,5.86 -16.875,11.016 -26.719,15.469 -9.609,4.453 -19.921,7.969 -30.937,10.547 -11.016,2.578 -22.734,3.867 -35.156,3.867 -20.157,0 -38.438,-2.929 -54.844,-8.789 -16.172,-5.859 -30,-13.711 -41.484,-23.554 -11.25,-10.079 -20.04,-21.915 -26.368,-35.508 -6.093,-13.828 -9.14,-28.711 -9.14,-44.649 0,-20.859 4.101,-39.14 12.304,-54.843 8.438,-15.704 20.274,-28.711 35.508,-39.024 15.235,-10.547 33.516,-18.398 54.844,-23.555 21.562,-5.156 45.586,-7.734 72.07,-7.734 h 71.016 v -29.883 c 0,-11.484 -2.109,-21.797 -6.328,-30.937 -4.219,-9.141 -10.196,-16.875 -17.93,-23.203 -7.734,-6.563 -17.226,-11.602 -28.476,-15.118 -11.016,-3.515 -23.438,-5.273 -37.266,-5.273 -12.891,0 -24.492,1.641 -34.805,4.922 -10.078,3.281 -18.633,7.617 -25.664,13.008 -7.031,5.39 -12.539,11.836 -16.523,19.336 -3.75,7.265 -5.625,14.882 -5.625,22.851 h -65.391 c 0.234,-13.828 3.75,-27.422 10.547,-40.781 7.031,-13.359 16.992,-25.313 29.883,-35.859 13.125,-10.782 28.945,-19.454 47.461,-26.016 18.75,-6.563 39.961,-9.844 63.633,-9.844 21.562,0 41.601,2.695 60.117,8.086 18.515,5.156 34.453,13.125 47.812,23.906 13.594,10.547 24.258,23.789 31.992,39.727 7.735,15.937 11.602,34.57 11.602,55.898 v 176.836 c 0,12.657 1.172,26.133 3.516,40.43 2.343,14.062 5.625,26.367 9.843,36.914 V 515 Z m -114.961,-49.57 c 12.656,0 24.492,-1.641 35.508,-4.922 11.015,-3.281 20.976,-7.617 29.882,-13.008 9.141,-5.391 16.993,-11.484 23.555,-18.281 6.563,-7.031 11.719,-14.297 15.469,-21.797 V 330.43 h -60.469 c -37.969,0 -67.5,5.625 -88.594,16.875 -21.093,11.25 -31.64,28.945 -31.64,53.086 0,9.375 1.523,18.047 4.57,26.015 3.281,7.969 8.086,14.883 14.414,20.742 6.328,5.625 14.297,10.079 23.906,13.36 9.61,3.281 20.743,4.922 33.399,4.922 z"
     id="path48"
     inkscape:connector-curvature="0"
     style="fill:#000000" />
  <rect
     x="516.62695"
     y="94"
     width="119"
     height="480"
     id="rect50"
     style="fill:#ff4747;fill-opacity:0.5" />
</svg>
