<svg width="357" height="220" viewBox="0 0 357 220" fill="none" xmlns="http://www.w3.org/2000/svg">
<path d="M147.042 111.789V111.543C147.042 110.613 147.175 109.758 147.441 108.977C147.706 108.188 148.093 107.504 148.601 106.926C149.109 106.348 149.734 105.898 150.476 105.578C151.218 105.25 152.07 105.086 153.031 105.086C153.991 105.086 154.847 105.25 155.597 105.578C156.347 105.898 156.976 106.348 157.484 106.926C157.999 107.504 158.39 108.188 158.656 108.977C158.921 109.758 159.054 110.613 159.054 111.543V111.789C159.054 112.711 158.921 113.566 158.656 114.355C158.39 115.137 157.999 115.82 157.484 116.406C156.976 116.984 156.351 117.434 155.609 117.754C154.866 118.074 154.015 118.234 153.054 118.234C152.093 118.234 151.238 118.074 150.488 117.754C149.745 117.434 149.116 116.984 148.601 116.406C148.093 115.82 147.706 115.137 147.441 114.355C147.175 113.566 147.042 112.711 147.042 111.789ZM150.417 111.543V111.789C150.417 112.32 150.464 112.816 150.558 113.277C150.652 113.738 150.8 114.145 151.003 114.496C151.214 114.84 151.488 115.109 151.823 115.305C152.159 115.5 152.57 115.598 153.054 115.598C153.523 115.598 153.925 115.5 154.261 115.305C154.597 115.109 154.866 114.84 155.07 114.496C155.273 114.145 155.421 113.738 155.515 113.277C155.616 112.816 155.667 112.32 155.667 111.789V111.543C155.667 111.027 155.616 110.543 155.515 110.09C155.421 109.629 155.269 109.223 155.058 108.871C154.855 108.512 154.585 108.23 154.249 108.027C153.913 107.824 153.507 107.723 153.031 107.723C152.554 107.723 152.148 107.824 151.812 108.027C151.484 108.23 151.214 108.512 151.003 108.871C150.8 109.223 150.652 109.629 150.558 110.09C150.464 110.543 150.417 111.027 150.417 111.543ZM164.503 108.086V118H161.128V105.32H164.304L164.503 108.086ZM168.323 105.238L168.265 108.367C168.101 108.344 167.902 108.324 167.667 108.309C167.441 108.285 167.234 108.273 167.046 108.273C166.57 108.273 166.156 108.336 165.804 108.461C165.46 108.578 165.171 108.754 164.937 108.988C164.71 109.223 164.538 109.508 164.421 109.844C164.312 110.18 164.249 110.562 164.234 110.992L163.554 110.781C163.554 109.961 163.636 109.207 163.8 108.52C163.964 107.824 164.202 107.219 164.515 106.703C164.835 106.188 165.226 105.789 165.687 105.508C166.148 105.227 166.675 105.086 167.269 105.086C167.456 105.086 167.648 105.102 167.843 105.133C168.038 105.156 168.198 105.191 168.323 105.238Z" fill="black"/>
<path d="M28.3899 112.801V112.555C28.3899 111.891 28.3352 111.262 28.2258 110.668C28.1165 110.066 27.9563 109.52 27.7454 109.027C27.5422 108.59 27.3079 108.195 27.0422 107.844C26.7766 107.484 26.4758 107.18 26.1399 106.93C25.7649 106.664 25.3469 106.457 24.886 106.309C24.425 106.16 23.9211 106.086 23.3743 106.086C22.9368 106.086 22.5305 106.129 22.1555 106.215C21.7805 106.301 21.4368 106.426 21.1243 106.59C20.8743 106.723 20.6399 106.883 20.4211 107.07C20.2024 107.25 20.0032 107.453 19.8235 107.68V101H17.6555V119H19.6477L19.7532 117.559C19.8938 117.738 20.0422 117.902 20.1985 118.051C20.3547 118.199 20.5188 118.336 20.6907 118.461C21.05 118.711 21.4524 118.902 21.8977 119.035C22.3508 119.168 22.8508 119.234 23.3977 119.234C23.8743 119.234 24.3157 119.176 24.7219 119.059C25.136 118.941 25.5149 118.777 25.8586 118.566C26.3352 118.262 26.7415 117.879 27.0774 117.418C27.4211 116.949 27.6985 116.422 27.9094 115.836C28.0657 115.391 28.1829 114.914 28.261 114.406C28.3469 113.891 28.3899 113.355 28.3899 112.801ZM26.2219 112.555V112.801C26.2219 113.176 26.1985 113.543 26.1516 113.902C26.1047 114.262 26.0305 114.598 25.929 114.91C25.804 115.324 25.636 115.699 25.425 116.035C25.2141 116.371 24.9524 116.648 24.6399 116.867C24.4055 117.039 24.1399 117.172 23.843 117.266C23.5461 117.352 23.218 117.395 22.8586 117.395C22.4836 117.395 22.1399 117.348 21.8274 117.254C21.5149 117.152 21.2336 117.012 20.9836 116.832C20.7336 116.652 20.511 116.445 20.3157 116.211C20.1282 115.969 19.9641 115.707 19.8235 115.426V109.883C19.9563 109.602 20.1165 109.344 20.304 109.109C20.4993 108.867 20.7219 108.656 20.9719 108.477C21.2141 108.305 21.4915 108.172 21.804 108.078C22.1165 107.977 22.4602 107.926 22.8352 107.926C23.179 107.926 23.4915 107.965 23.7727 108.043C24.054 108.121 24.3079 108.23 24.5344 108.371C24.8625 108.566 25.1399 108.836 25.3665 109.18C25.593 109.523 25.7766 109.902 25.9172 110.316C26.0188 110.652 26.093 111.012 26.1399 111.395C26.1946 111.77 26.2219 112.156 26.2219 112.555Z" fill="black"/>
<path d="M236.995 112.801V112.555C236.995 111.891 236.94 111.262 236.831 110.668C236.721 110.066 236.561 109.52 236.35 109.027C236.147 108.59 235.913 108.195 235.647 107.844C235.381 107.484 235.081 107.18 234.745 106.93C234.37 106.664 233.952 106.457 233.491 106.309C233.03 106.16 232.526 106.086 231.979 106.086C231.541 106.086 231.135 106.129 230.76 106.215C230.385 106.301 230.041 106.426 229.729 106.59C229.479 106.723 229.245 106.883 229.026 107.07C228.807 107.25 228.608 107.453 228.428 107.68V101H226.26V119H228.252L228.358 117.559C228.498 117.738 228.647 117.902 228.803 118.051C228.959 118.199 229.123 118.336 229.295 118.461C229.655 118.711 230.057 118.902 230.502 119.035C230.956 119.168 231.456 119.234 232.002 119.234C232.479 119.234 232.92 119.176 233.327 119.059C233.741 118.941 234.12 118.777 234.463 118.566C234.94 118.262 235.346 117.879 235.682 117.418C236.026 116.949 236.303 116.422 236.514 115.836C236.67 115.391 236.788 114.914 236.866 114.406C236.952 113.891 236.995 113.355 236.995 112.801ZM234.827 112.555V112.801C234.827 113.176 234.803 113.543 234.756 113.902C234.709 114.262 234.635 114.598 234.534 114.91C234.409 115.324 234.241 115.699 234.03 116.035C233.819 116.371 233.557 116.648 233.245 116.867C233.01 117.039 232.745 117.172 232.448 117.266C232.151 117.352 231.823 117.395 231.463 117.395C231.088 117.395 230.745 117.348 230.432 117.254C230.12 117.152 229.838 117.012 229.588 116.832C229.338 116.652 229.116 116.445 228.92 116.211C228.733 115.969 228.569 115.707 228.428 115.426V109.883C228.561 109.602 228.721 109.344 228.909 109.109C229.104 108.867 229.327 108.656 229.577 108.477C229.819 108.305 230.096 108.172 230.409 108.078C230.721 107.977 231.065 107.926 231.44 107.926C231.784 107.926 232.096 107.965 232.377 108.043C232.659 108.121 232.913 108.23 233.139 108.371C233.467 108.566 233.745 108.836 233.971 109.18C234.198 109.523 234.381 109.902 234.522 110.316C234.623 110.652 234.698 111.012 234.745 111.395C234.799 111.77 234.827 112.156 234.827 112.555Z" fill="black"/>
<path d="M89.9758 53H92.2375V52.8125C92.0969 52.4609 91.9875 52.0508 91.9094 51.582C91.8313 51.1055 91.7922 50.6562 91.7922 50.2344V44.3398C91.7922 43.6289 91.6633 43.0078 91.4055 42.4766C91.1477 41.9453 90.7961 41.5 90.3508 41.1406C89.8977 40.7891 89.3625 40.5273 88.7454 40.3555C88.1282 40.1758 87.4602 40.0859 86.7415 40.0859C85.9524 40.0859 85.2454 40.1953 84.6204 40.4141C84.0032 40.6328 83.4797 40.918 83.05 41.2695C82.6125 41.6289 82.2766 42.0312 82.0422 42.4766C81.8157 42.9219 81.6985 43.375 81.6907 43.8359H83.8704C83.8704 43.5703 83.9329 43.3164 84.0579 43.0742C84.1907 42.8242 84.3743 42.6094 84.6086 42.4297C84.843 42.25 85.1282 42.1055 85.4641 41.9961C85.8079 41.8867 86.1946 41.832 86.6243 41.832C87.0852 41.832 87.4993 41.8906 87.8665 42.0078C88.2415 42.125 88.5579 42.2891 88.8157 42.5C89.0735 42.7188 89.2727 42.9805 89.4133 43.2852C89.554 43.5898 89.6243 43.9336 89.6243 44.3164V45.3125H87.2571C86.3743 45.3125 85.5735 45.3984 84.8547 45.5703C84.1438 45.7422 83.5344 46 83.0266 46.3438C82.5188 46.6953 82.1243 47.1328 81.843 47.6562C81.5696 48.1797 81.4329 48.7891 81.4329 49.4844C81.4329 50.0156 81.5344 50.5117 81.7375 50.9727C81.9485 51.4258 82.2454 51.8164 82.6282 52.1445C83.0032 52.4805 83.4602 52.7461 83.9993 52.9414C84.5461 53.1367 85.1555 53.2344 85.8274 53.2344C86.2415 53.2344 86.6321 53.1914 86.9993 53.1055C87.3665 53.0195 87.7141 52.9023 88.0422 52.7539C88.3625 52.6055 88.6555 52.4336 88.9211 52.2383C89.1946 52.043 89.4407 51.8359 89.6594 51.6172C89.6829 51.8828 89.718 52.1406 89.7649 52.3906C89.8196 52.6328 89.8899 52.8359 89.9758 53ZM86.1438 51.3477C85.7219 51.3477 85.3508 51.293 85.0305 51.1836C84.7102 51.0742 84.4446 50.9219 84.2336 50.7266C84.0227 50.5391 83.8625 50.3125 83.7532 50.0469C83.6516 49.7812 83.6008 49.4922 83.6008 49.1797C83.6008 48.8516 83.6594 48.5586 83.7766 48.3008C83.9016 48.043 84.0813 47.8203 84.3157 47.6328C84.6438 47.3672 85.0852 47.1719 85.6399 47.0469C86.2024 46.9141 86.8586 46.8477 87.6086 46.8477H89.6243V49.4141C89.4993 49.6641 89.3274 49.9062 89.1086 50.1406C88.8899 50.3672 88.6321 50.5703 88.3352 50.75C88.0305 50.9297 87.6946 51.0742 87.3274 51.1836C86.9602 51.293 86.5657 51.3477 86.1438 51.3477Z" fill="black"/>
<path d="M298.581 53H300.842V52.8125C300.702 52.4609 300.592 52.0508 300.514 51.582C300.436 51.1055 300.397 50.6562 300.397 50.2344V44.3398C300.397 43.6289 300.268 43.0078 300.01 42.4766C299.752 41.9453 299.401 41.5 298.956 41.1406C298.502 40.7891 297.967 40.5273 297.35 40.3555C296.733 40.1758 296.065 40.0859 295.346 40.0859C294.557 40.0859 293.85 40.1953 293.225 40.4141C292.608 40.6328 292.084 40.918 291.655 41.2695C291.217 41.6289 290.881 42.0312 290.647 42.4766C290.42 42.9219 290.303 43.375 290.295 43.8359H292.475C292.475 43.5703 292.538 43.3164 292.663 43.0742C292.795 42.8242 292.979 42.6094 293.213 42.4297C293.448 42.25 293.733 42.1055 294.069 41.9961C294.413 41.8867 294.799 41.832 295.229 41.832C295.69 41.832 296.104 41.8906 296.471 42.0078C296.846 42.125 297.163 42.2891 297.42 42.5C297.678 42.7188 297.877 42.9805 298.018 43.2852C298.159 43.5898 298.229 43.9336 298.229 44.3164V45.3125H295.862C294.979 45.3125 294.178 45.3984 293.459 45.5703C292.748 45.7422 292.139 46 291.631 46.3438C291.123 46.6953 290.729 47.1328 290.448 47.6562C290.174 48.1797 290.038 48.7891 290.038 49.4844C290.038 50.0156 290.139 50.5117 290.342 50.9727C290.553 51.4258 290.85 51.8164 291.233 52.1445C291.608 52.4805 292.065 52.7461 292.604 52.9414C293.151 53.1367 293.76 53.2344 294.432 53.2344C294.846 53.2344 295.237 53.1914 295.604 53.1055C295.971 53.0195 296.319 52.9023 296.647 52.7539C296.967 52.6055 297.26 52.4336 297.526 52.2383C297.799 52.043 298.045 51.8359 298.264 51.6172C298.288 51.8828 298.323 52.1406 298.37 52.3906C298.424 52.6328 298.495 52.8359 298.581 53ZM294.748 51.3477C294.327 51.3477 293.956 51.293 293.635 51.1836C293.315 51.0742 293.049 50.9219 292.838 50.7266C292.627 50.5391 292.467 50.3125 292.358 50.0469C292.256 49.7812 292.206 49.4922 292.206 49.1797C292.206 48.8516 292.264 48.5586 292.381 48.3008C292.506 48.043 292.686 47.8203 292.92 47.6328C293.248 47.3672 293.69 47.1719 294.245 47.0469C294.807 46.9141 295.463 46.8477 296.213 46.8477H298.229V49.4141C298.104 49.6641 297.932 49.9062 297.713 50.1406C297.495 50.3672 297.237 50.5703 296.94 50.75C296.635 50.9297 296.299 51.0742 295.932 51.1836C295.565 51.293 295.17 51.3477 294.748 51.3477Z" fill="black"/>
<path d="M87.0461 183.477C86.3665 183.477 85.7961 183.344 85.3352 183.078C84.8821 182.805 84.5188 182.449 84.2454 182.012C83.9641 181.582 83.761 181.098 83.636 180.559C83.5188 180.012 83.4602 179.461 83.4602 178.906V178.414C83.4602 177.867 83.5188 177.324 83.636 176.785C83.761 176.246 83.9641 175.758 84.2454 175.32C84.5266 174.891 84.8938 174.543 85.3469 174.277C85.8079 174.004 86.3743 173.867 87.0461 173.867C87.4836 173.867 87.8899 173.941 88.2649 174.09C88.6477 174.238 88.9758 174.441 89.2493 174.699C89.5227 174.957 89.7375 175.258 89.8938 175.602C90.0579 175.938 90.1438 176.297 90.1516 176.68H92.2024C92.2024 176.039 92.0735 175.438 91.8157 174.875C91.5579 174.312 91.2024 173.824 90.7493 173.41C90.2883 173.004 89.7415 172.684 89.1086 172.449C88.4836 172.207 87.7961 172.086 87.0461 172.086C86.0852 172.086 85.2454 172.258 84.5266 172.602C83.8079 172.945 83.2102 173.406 82.7336 173.984C82.2493 174.57 81.886 175.246 81.6438 176.012C81.4016 176.777 81.2805 177.578 81.2805 178.414V178.906C81.2805 179.75 81.4016 180.555 81.6438 181.32C81.886 182.078 82.2493 182.746 82.7336 183.324C83.2102 183.91 83.8079 184.375 84.5266 184.719C85.2454 185.062 86.0852 185.234 87.0461 185.234C87.718 185.234 88.3625 185.121 88.9797 184.895C89.5969 184.66 90.1438 184.348 90.6204 183.957C91.0969 183.574 91.4758 183.129 91.7571 182.621C92.0461 182.105 92.1946 181.566 92.2024 181.004H90.1516C90.1438 181.355 90.05 181.684 89.8704 181.988C89.6985 182.285 89.468 182.543 89.179 182.762C88.8899 182.988 88.5579 183.164 88.1829 183.289C87.8157 183.414 87.4368 183.477 87.0461 183.477Z" fill="black"/>
<path d="M295.651 183.477C294.971 183.477 294.401 183.344 293.94 183.078C293.487 182.805 293.123 182.449 292.85 182.012C292.569 181.582 292.366 181.098 292.241 180.559C292.123 180.012 292.065 179.461 292.065 178.906V178.414C292.065 177.867 292.123 177.324 292.241 176.785C292.366 176.246 292.569 175.758 292.85 175.32C293.131 174.891 293.498 174.543 293.952 174.277C294.413 174.004 294.979 173.867 295.651 173.867C296.088 173.867 296.495 173.941 296.87 174.09C297.252 174.238 297.581 174.441 297.854 174.699C298.127 174.957 298.342 175.258 298.498 175.602C298.663 175.938 298.748 176.297 298.756 176.68H300.807C300.807 176.039 300.678 175.438 300.42 174.875C300.163 174.312 299.807 173.824 299.354 173.41C298.893 173.004 298.346 172.684 297.713 172.449C297.088 172.207 296.401 172.086 295.651 172.086C294.69 172.086 293.85 172.258 293.131 172.602C292.413 172.945 291.815 173.406 291.338 173.984C290.854 174.57 290.491 175.246 290.248 176.012C290.006 176.777 289.885 177.578 289.885 178.414V178.906C289.885 179.75 290.006 180.555 290.248 181.32C290.491 182.078 290.854 182.746 291.338 183.324C291.815 183.91 292.413 184.375 293.131 184.719C293.85 185.062 294.69 185.234 295.651 185.234C296.323 185.234 296.967 185.121 297.584 184.895C298.202 184.66 298.748 184.348 299.225 183.957C299.702 183.574 300.081 183.129 300.362 182.621C300.651 182.105 300.799 181.566 300.807 181.004H298.756C298.748 181.355 298.655 181.684 298.475 181.988C298.303 182.285 298.073 182.543 297.784 182.762C297.495 182.988 297.163 183.164 296.788 183.289C296.42 183.414 296.041 183.477 295.651 183.477Z" fill="black"/>
<path d="M70.5383 43.0391V45.5703H72.3079C72.7532 45.5703 73.1516 45.6211 73.5032 45.7227C73.8625 45.8242 74.1711 45.9805 74.429 46.1914C74.679 46.4023 74.8704 46.6719 75.0032 47C75.136 47.3281 75.2024 47.7227 75.2024 48.1836C75.2024 48.5508 75.1438 48.8828 75.0266 49.1797C74.9172 49.4766 74.7532 49.7266 74.5344 49.9297C74.3079 50.1562 74.0266 50.3281 73.6907 50.4453C73.3547 50.5625 72.9758 50.6211 72.554 50.6211C72.179 50.6211 71.8352 50.5664 71.5227 50.457C71.2102 50.3398 70.9407 50.1797 70.7141 49.9766C70.4797 49.7812 70.3 49.5469 70.175 49.2734C70.05 48.9922 69.9875 48.6875 69.9875 48.3594H66.7297C66.7297 49.1875 66.8899 49.9062 67.2102 50.5156C67.5383 51.125 67.9719 51.6289 68.511 52.0273C69.05 52.4336 69.6633 52.7383 70.3508 52.9414C71.0461 53.1367 71.7571 53.2344 72.4836 53.2344C73.3274 53.2344 74.1125 53.125 74.8391 52.9062C75.5735 52.6797 76.2063 52.3516 76.7375 51.9219C77.2688 51.5 77.6868 50.9766 77.9915 50.3516C78.2961 49.7266 78.4485 49.0156 78.4485 48.2188C78.4485 47.7656 78.3938 47.3359 78.2844 46.9297C78.175 46.5234 78.0071 46.1484 77.7805 45.8047C77.554 45.4688 77.2649 45.168 76.9133 44.9023C76.5696 44.6367 76.1594 44.418 75.6829 44.2461C76.0891 44.0508 76.4485 43.8203 76.761 43.5547C77.0735 43.2812 77.3352 42.9844 77.5461 42.6641C77.7571 42.3438 77.9172 42.0078 78.0266 41.6562C78.136 41.2969 78.1907 40.9336 78.1907 40.5664C78.1907 39.7695 78.05 39.0703 77.7688 38.4688C77.4954 37.8594 77.1086 37.3477 76.6086 36.9336C76.1086 36.5273 75.5071 36.2227 74.804 36.0195C74.1008 35.8086 73.3274 35.7031 72.4836 35.7031C71.7024 35.7031 70.9719 35.8164 70.2922 36.043C69.6204 36.2695 69.0344 36.5859 68.5344 36.9922C68.0344 37.4062 67.6399 37.8984 67.3508 38.4688C67.0696 39.0391 66.929 39.6719 66.929 40.3672H70.1868C70.1868 40.0547 70.2493 39.7734 70.3743 39.5234C70.4993 39.2734 70.6711 39.0586 70.8899 38.8789C71.1008 38.707 71.3469 38.5742 71.6282 38.4805C71.9172 38.3867 72.2258 38.3398 72.554 38.3398C72.9524 38.3398 73.3 38.3945 73.5969 38.5039C73.9016 38.6133 74.1516 38.7656 74.3469 38.9609C74.5422 39.1641 74.6868 39.4062 74.7805 39.6875C74.8821 39.9609 74.9329 40.2656 74.9329 40.6016C74.9329 40.9453 74.8821 41.2656 74.7805 41.5625C74.6868 41.8516 74.5422 42.0977 74.3469 42.3008C74.136 42.5352 73.8586 42.7188 73.5149 42.8516C73.179 42.9766 72.7766 43.0391 72.3079 43.0391H70.5383Z" fill="#3586FF"/>
<path d="M279.143 43.0391V45.5703H280.913C281.358 45.5703 281.756 45.6211 282.108 45.7227C282.467 45.8242 282.776 45.9805 283.034 46.1914C283.284 46.4023 283.475 46.6719 283.608 47C283.741 47.3281 283.807 47.7227 283.807 48.1836C283.807 48.5508 283.748 48.8828 283.631 49.1797C283.522 49.4766 283.358 49.7266 283.139 49.9297C282.913 50.1562 282.631 50.3281 282.295 50.4453C281.959 50.5625 281.581 50.6211 281.159 50.6211C280.784 50.6211 280.44 50.5664 280.127 50.457C279.815 50.3398 279.545 50.1797 279.319 49.9766C279.084 49.7812 278.905 49.5469 278.78 49.2734C278.655 48.9922 278.592 48.6875 278.592 48.3594H275.334C275.334 49.1875 275.495 49.9062 275.815 50.5156C276.143 51.125 276.577 51.6289 277.116 52.0273C277.655 52.4336 278.268 52.7383 278.956 52.9414C279.651 53.1367 280.362 53.2344 281.088 53.2344C281.932 53.2344 282.717 53.125 283.444 52.9062C284.178 52.6797 284.811 52.3516 285.342 51.9219C285.873 51.5 286.291 50.9766 286.596 50.3516C286.901 49.7266 287.053 49.0156 287.053 48.2188C287.053 47.7656 286.998 47.3359 286.889 46.9297C286.78 46.5234 286.612 46.1484 286.385 45.8047C286.159 45.4688 285.87 45.168 285.518 44.9023C285.174 44.6367 284.764 44.418 284.288 44.2461C284.694 44.0508 285.053 43.8203 285.366 43.5547C285.678 43.2812 285.94 42.9844 286.151 42.6641C286.362 42.3438 286.522 42.0078 286.631 41.6562C286.741 41.2969 286.795 40.9336 286.795 40.5664C286.795 39.7695 286.655 39.0703 286.373 38.4688C286.1 37.8594 285.713 37.3477 285.213 36.9336C284.713 36.5273 284.112 36.2227 283.409 36.0195C282.706 35.8086 281.932 35.7031 281.088 35.7031C280.307 35.7031 279.577 35.8164 278.897 36.043C278.225 36.2695 277.639 36.5859 277.139 36.9922C276.639 37.4062 276.245 37.8984 275.956 38.4688C275.674 39.0391 275.534 39.6719 275.534 40.3672H278.791C278.791 40.0547 278.854 39.7734 278.979 39.5234C279.104 39.2734 279.276 39.0586 279.495 38.8789C279.706 38.707 279.952 38.5742 280.233 38.4805C280.522 38.3867 280.831 38.3398 281.159 38.3398C281.557 38.3398 281.905 38.3945 282.202 38.5039C282.506 38.6133 282.756 38.7656 282.952 38.9609C283.147 39.1641 283.291 39.4062 283.385 39.6875C283.487 39.9609 283.538 40.2656 283.538 40.6016C283.538 40.9453 283.487 41.2656 283.385 41.5625C283.291 41.8516 283.147 42.0977 282.952 42.3008C282.741 42.5352 282.463 42.7188 282.12 42.8516C281.784 42.9766 281.381 43.0391 280.913 43.0391H279.143Z" fill="#3586FF"/>
<path d="M13.4133 119V116.387H5.92505L9.13599 112.988C9.69067 112.418 10.1946 111.875 10.6477 111.359C11.1008 110.836 11.4915 110.324 11.8196 109.824C12.1399 109.324 12.386 108.82 12.5579 108.312C12.7375 107.797 12.8274 107.258 12.8274 106.695C12.8274 105.953 12.7102 105.277 12.4758 104.668C12.2415 104.051 11.9016 103.523 11.4563 103.086C11.0032 102.648 10.4407 102.309 9.7688 102.066C9.10474 101.824 8.33911 101.703 7.47192 101.703C6.56567 101.703 5.73755 101.852 4.98755 102.148C4.24536 102.438 3.61255 102.836 3.08911 103.344C2.55786 103.852 2.14771 104.445 1.85864 105.125C1.56958 105.797 1.42505 106.512 1.42505 107.27H4.69458C4.69458 106.809 4.75317 106.398 4.87036 106.039C4.98755 105.68 5.15942 105.379 5.38599 105.137C5.60474 104.902 5.87817 104.727 6.2063 104.609C6.54224 104.484 6.92896 104.422 7.36646 104.422C7.70239 104.422 8.00708 104.477 8.28052 104.586C8.56177 104.695 8.80396 104.852 9.00708 105.055C9.20239 105.266 9.35474 105.52 9.46411 105.816C9.57349 106.113 9.62817 106.453 9.62817 106.836C9.62817 107.094 9.58521 107.359 9.49927 107.633C9.42114 107.906 9.29224 108.199 9.11255 108.512C8.92505 108.832 8.68286 109.184 8.38599 109.566C8.08911 109.949 7.72583 110.375 7.29614 110.844L1.77661 116.773V119H13.4133Z" fill="#3586FF"/>
<path d="M222.018 119V116.387H214.53L217.741 112.988C218.295 112.418 218.799 111.875 219.252 111.359C219.706 110.836 220.096 110.324 220.424 109.824C220.745 109.324 220.991 108.82 221.163 108.312C221.342 107.797 221.432 107.258 221.432 106.695C221.432 105.953 221.315 105.277 221.081 104.668C220.846 104.051 220.506 103.523 220.061 103.086C219.608 102.648 219.045 102.309 218.373 102.066C217.709 101.824 216.944 101.703 216.077 101.703C215.17 101.703 214.342 101.852 213.592 102.148C212.85 102.438 212.217 102.836 211.694 103.344C211.163 103.852 210.752 104.445 210.463 105.125C210.174 105.797 210.03 106.512 210.03 107.27H213.299C213.299 106.809 213.358 106.398 213.475 106.039C213.592 105.68 213.764 105.379 213.991 105.137C214.209 104.902 214.483 104.727 214.811 104.609C215.147 104.484 215.534 104.422 215.971 104.422C216.307 104.422 216.612 104.477 216.885 104.586C217.166 104.695 217.409 104.852 217.612 105.055C217.807 105.266 217.959 105.52 218.069 105.816C218.178 106.113 218.233 106.453 218.233 106.836C218.233 107.094 218.19 107.359 218.104 107.633C218.026 107.906 217.897 108.199 217.717 108.512C217.53 108.832 217.288 109.184 216.991 109.566C216.694 109.949 216.331 110.375 215.901 110.844L210.381 116.773V119H222.018Z" fill="#3586FF"/>
<path d="M74.2375 185V167.938H74.0618L66.6321 170.621V173.457L70.9446 171.91V185H74.2375Z" fill="#3586FF"/>
<path d="M282.842 185V167.938H282.666L275.237 170.621V173.457L279.549 171.91V185H282.842Z" fill="#3586FF"/>
<path d="M21.6047 95.5L37.6373 88.946L23.9451 78.3383L21.6047 95.5ZM78.9228 57.5765C73.8937 64.0137 66.363 65.9797 57.2467 68.6218C48.2439 71.231 38.0512 74.4494 28.8058 83.7739L30.9361 85.8861C39.6022 77.146 49.1391 74.095 58.0818 71.5032C66.9109 68.9444 75.5413 66.7777 81.2869 59.4235L78.9228 57.5765Z" fill="black"/>
<path d="M230.209 95.5L246.242 88.946L232.55 78.3383L230.209 95.5ZM287.528 57.5765C282.498 64.0137 274.968 65.9797 265.851 68.6218C256.849 71.231 246.656 74.4494 237.411 83.7739L239.541 85.8861C248.207 77.146 257.744 74.095 266.686 71.5032C275.516 68.9444 284.146 66.7777 289.892 59.4235L287.528 57.5765Z" fill="black"/>
<path d="M7.10475 94L19.0371 81.4454L2.19832 77.3889L7.10475 94ZM64.5508 53.2872C62.1355 56.3788 58.3604 58.2295 53.6069 59.5532C48.826 60.8847 43.3942 61.6042 37.7035 62.6543C26.5374 64.7149 14.6435 68.0079 8.90879 80.2367L11.625 81.5105C16.6628 70.7677 27.0834 67.6648 38.2479 65.6045C43.7225 64.5943 49.4601 63.8222 54.4118 62.4433C59.3909 61.0566 63.9117 58.9781 66.9149 55.1342L64.5508 53.2872Z" fill="#3586FF"/>
<path d="M215.709 94L227.642 81.4454L210.803 77.3889L215.709 94ZM273.155 53.2872C270.74 56.3788 266.965 58.2295 262.212 59.5532C257.431 60.8847 251.999 61.6042 246.308 62.6543C235.142 64.7149 223.248 68.0079 217.513 80.2367L220.23 81.5105C225.267 70.7677 235.688 67.6648 246.853 65.6045C252.327 64.5943 258.065 63.8222 263.016 62.4433C267.996 61.0566 272.516 58.9781 275.52 55.1342L273.155 53.2872Z" fill="#3586FF"/>
<path d="M77.9812 166.059L76.4881 148.803L62.2905 158.724L77.9812 166.059ZM21.8253 124.283C25.7399 130.68 29.7401 134.841 33.8266 137.734C37.9067 140.623 42.0019 142.197 45.9999 143.496C54.002 146.098 61.5262 147.62 69.137 156L71.3577 153.983C63.1048 144.896 54.7063 143.172 46.9273 140.643C43.0348 139.378 39.2749 137.916 35.5602 135.286C31.8521 132.66 28.1181 128.819 24.3842 122.717L21.8253 124.283Z" fill="black"/>
<path d="M286.586 166.059L285.093 148.803L270.895 158.724L286.586 166.059ZM230.43 124.283C234.345 130.68 238.345 134.841 242.431 137.734C246.511 140.623 250.607 142.197 254.605 143.496C262.607 146.098 270.131 147.62 277.742 156L279.962 153.983C271.71 144.896 263.311 143.172 255.532 140.643C251.64 139.378 247.88 137.916 244.165 135.286C240.457 132.66 236.723 128.819 232.989 122.717L230.43 124.283Z" fill="black"/>
<path d="M61.5371 167.419L55.9522 151.024L44.5459 164.058L61.5371 167.419ZM5.38119 125.643C9.32094 132.081 12.7862 136.43 16.1393 139.58C19.5069 142.743 22.714 144.653 26.0698 146.262C32.7488 149.464 39.7682 151.402 50.4558 159.712L52.2973 157.343C41.2719 148.771 33.7226 146.604 27.3666 143.557C24.2049 142.041 21.2779 140.291 18.1934 137.393C15.0944 134.482 11.7896 130.368 7.94008 124.077L5.38119 125.643Z" fill="#3586FF"/>
<path d="M87.1049 165.5L101.429 155.762L85.8338 148.226L87.1049 165.5ZM90.9423 60.1419C100.655 79.7357 104.047 95.7799 103.433 110.415C102.818 125.068 98.183 138.441 91.6182 152.713L94.3437 153.967C100.974 139.553 105.791 125.764 106.43 110.541C107.07 95.2997 103.517 78.7548 93.6302 58.8095L90.9423 60.1419Z" fill="black"/>
<path d="M295.71 165.5L310.034 155.762L294.439 148.226L295.71 165.5ZM299.547 60.1419C309.26 79.7357 312.652 95.7799 312.038 110.415C311.423 125.068 306.788 138.441 300.223 152.713L302.948 153.967C309.579 139.553 314.396 125.764 315.035 110.541C315.675 95.2997 312.122 78.7548 302.235 58.8095L299.547 60.1419Z" fill="black"/>
<path d="M310.997 165.024L327.121 158.698L313.58 147.897L310.997 165.024ZM308.044 56.4446C335.154 89.8836 335.83 126.926 318.161 153.646L320.663 155.301C339.14 127.36 338.207 88.8862 310.375 54.5554L308.044 56.4446Z" fill="#3586FF"/>
<path d="M106.121 11.9453L103.531 26.875H100.227L103.273 9.32031H106.32L106.121 11.9453ZM113.27 15.4492L113.234 15.6953C113.141 16.4609 112.961 17.2344 112.695 18.0156C112.438 18.7969 112.082 19.5117 111.629 20.1602C111.176 20.8008 110.617 21.3164 109.953 21.707C109.289 22.0898 108.508 22.2695 107.609 22.2461C106.82 22.2227 106.164 22.0156 105.641 21.625C105.117 21.2344 104.707 20.7344 104.41 20.125C104.113 19.5078 103.906 18.8438 103.789 18.1328C103.672 17.4219 103.625 16.7422 103.648 16.0938L103.73 15.4375C103.848 14.7266 104.051 13.9961 104.34 13.2461C104.629 12.4883 105.004 11.793 105.465 11.1602C105.926 10.5195 106.477 10.0078 107.117 9.625C107.758 9.23438 108.496 9.05078 109.332 9.07422C110.199 9.09766 110.906 9.30469 111.453 9.69531C112.008 10.0859 112.43 10.5938 112.719 11.2188C113.008 11.8438 113.188 12.5273 113.258 13.2695C113.336 14.0039 113.34 14.7305 113.27 15.4492ZM109.941 15.6836L109.977 15.4375C110.008 15.0938 110.023 14.7148 110.023 14.3008C110.023 13.8789 109.977 13.4766 109.883 13.0938C109.789 12.7109 109.617 12.3906 109.367 12.1328C109.117 11.875 108.758 11.7383 108.289 11.7227C107.812 11.6992 107.395 11.7734 107.035 11.9453C106.676 12.1172 106.371 12.3594 106.121 12.6719C105.879 12.9766 105.68 13.3242 105.523 13.7148C105.367 14.1055 105.254 14.5078 105.184 14.9219L104.949 16.5625C104.91 17.0391 104.941 17.5117 105.043 17.9805C105.145 18.4414 105.344 18.8242 105.641 19.1289C105.945 19.4336 106.383 19.5938 106.953 19.6094C107.469 19.6172 107.906 19.5 108.266 19.2578C108.625 19.0156 108.918 18.6953 109.145 18.2969C109.379 17.8906 109.559 17.457 109.684 16.9961C109.809 16.5352 109.895 16.0977 109.941 15.6836ZM114.758 15.8594L114.793 15.6133C114.887 14.7148 115.102 13.8711 115.438 13.082C115.781 12.2852 116.234 11.5859 116.797 10.9844C117.367 10.375 118.035 9.90234 118.801 9.56641C119.574 9.22266 120.441 9.0625 121.402 9.08594C122.316 9.10156 123.105 9.28516 123.77 9.63672C124.434 9.98828 124.977 10.4609 125.398 11.0547C125.828 11.6484 126.129 12.3281 126.301 13.0938C126.48 13.8594 126.531 14.668 126.453 15.5195L126.43 15.7773C126.328 16.668 126.102 17.5078 125.75 18.2969C125.406 19.0781 124.949 19.7695 124.379 20.3711C123.816 20.9648 123.148 21.4297 122.375 21.7656C121.602 22.1016 120.742 22.2578 119.797 22.2344C118.898 22.2188 118.113 22.0391 117.441 21.6953C116.77 21.3438 116.223 20.875 115.801 20.2891C115.379 19.6953 115.082 19.0195 114.91 18.2617C114.738 17.5039 114.688 16.7031 114.758 15.8594ZM118.086 15.6133L118.062 15.8711C118.023 16.2461 118.012 16.6484 118.027 17.0781C118.043 17.5 118.109 17.9023 118.227 18.2852C118.352 18.668 118.555 18.9805 118.836 19.2227C119.117 19.4648 119.504 19.5938 119.996 19.6094C120.52 19.625 120.969 19.5195 121.344 19.293C121.719 19.0664 122.027 18.7617 122.27 18.3789C122.512 17.9883 122.703 17.5664 122.844 17.1133C122.984 16.6523 123.078 16.2031 123.125 15.7656L123.148 15.5195C123.18 15.1445 123.188 14.7422 123.172 14.3125C123.164 13.875 123.098 13.4648 122.973 13.082C122.848 12.6914 122.645 12.3711 122.363 12.1211C122.082 11.8711 121.695 11.7383 121.203 11.7227C120.68 11.6992 120.23 11.8086 119.855 12.0508C119.48 12.2852 119.172 12.5977 118.93 12.9883C118.688 13.3789 118.496 13.8047 118.355 14.2656C118.223 14.7266 118.133 15.1758 118.086 15.6133ZM134.68 18.4258C134.742 18.0508 134.648 17.7617 134.398 17.5586C134.148 17.3477 133.84 17.1875 133.473 17.0781C133.113 16.9688 132.801 16.8828 132.535 16.8203C132.066 16.6953 131.594 16.5391 131.117 16.3516C130.648 16.1562 130.223 15.9141 129.84 15.625C129.457 15.3359 129.152 14.9844 128.926 14.5703C128.699 14.1484 128.598 13.6523 128.621 13.082C128.645 12.4023 128.816 11.8125 129.137 11.3125C129.465 10.8047 129.887 10.3867 130.402 10.0586C130.918 9.72266 131.48 9.47266 132.09 9.30859C132.699 9.14453 133.305 9.07031 133.906 9.08594C134.75 9.09375 135.531 9.25 136.25 9.55469C136.977 9.85938 137.562 10.3125 138.008 10.9141C138.461 11.5156 138.688 12.2656 138.688 13.1641L135.418 13.1523C135.426 12.8086 135.371 12.5078 135.254 12.25C135.137 11.9922 134.957 11.793 134.715 11.6523C134.473 11.5117 134.164 11.4414 133.789 11.4414C133.492 11.4414 133.195 11.5 132.898 11.6172C132.609 11.7266 132.359 11.8906 132.148 12.1094C131.938 12.3281 131.805 12.5977 131.75 12.918C131.703 13.1836 131.742 13.4023 131.867 13.5742C131.992 13.7461 132.16 13.8867 132.371 13.9961C132.582 14.0977 132.805 14.1836 133.039 14.2539C133.273 14.3164 133.484 14.3672 133.672 14.4062C134.359 14.5859 135.031 14.8164 135.688 15.0977C136.344 15.3789 136.879 15.7734 137.293 16.2812C137.707 16.7812 137.898 17.4492 137.867 18.2852C137.844 18.9961 137.656 19.6055 137.305 20.1133C136.953 20.6133 136.5 21.0234 135.945 21.3438C135.398 21.6562 134.805 21.8828 134.164 22.0234C133.531 22.1719 132.91 22.2422 132.301 22.2344C131.449 22.2188 130.648 22.0469 129.898 21.7188C129.156 21.3906 128.555 20.9141 128.094 20.2891C127.633 19.6562 127.398 18.8828 127.391 17.9688L130.484 17.9805C130.492 18.3867 130.574 18.7305 130.73 19.0117C130.887 19.293 131.109 19.5078 131.398 19.6562C131.695 19.7969 132.047 19.8672 132.453 19.8672C132.773 19.875 133.09 19.832 133.402 19.7383C133.723 19.6445 134 19.4922 134.234 19.2812C134.469 19.0625 134.617 18.7773 134.68 18.4258ZM147.559 9.32031L147.137 11.7109H139.953L140.375 9.32031H147.559ZM142.695 6.19141H145.988L143.926 18.2031C143.895 18.4766 143.895 18.7109 143.926 18.9062C143.965 19.0938 144.055 19.2383 144.195 19.3398C144.336 19.4414 144.555 19.5 144.852 19.5156C145.016 19.5234 145.18 19.5195 145.344 19.5039C145.508 19.4805 145.676 19.457 145.848 19.4336L145.613 21.9531C145.301 22.0469 144.984 22.1133 144.664 22.1523C144.352 22.1992 144.031 22.2227 143.703 22.2227C142.953 22.207 142.336 22.043 141.852 21.7305C141.375 21.418 141.031 20.9883 140.82 20.4414C140.617 19.8867 140.551 19.2461 140.621 18.5195L142.695 6.19141ZM155.164 13.3516L154.695 16H148.262L148.719 13.3516H155.164ZM156.922 15.8594L156.957 15.6133C157.051 14.7148 157.266 13.8711 157.602 13.082C157.945 12.2852 158.398 11.5859 158.961 10.9844C159.531 10.375 160.199 9.90234 160.965 9.56641C161.738 9.22266 162.605 9.0625 163.566 9.08594C164.48 9.10156 165.27 9.28516 165.934 9.63672C166.598 9.98828 167.141 10.4609 167.562 11.0547C167.992 11.6484 168.293 12.3281 168.465 13.0938C168.645 13.8594 168.695 14.668 168.617 15.5195L168.594 15.7773C168.492 16.668 168.266 17.5078 167.914 18.2969C167.57 19.0781 167.113 19.7695 166.543 20.3711C165.98 20.9648 165.312 21.4297 164.539 21.7656C163.766 22.1016 162.906 22.2578 161.961 22.2344C161.062 22.2188 160.277 22.0391 159.605 21.6953C158.934 21.3438 158.387 20.875 157.965 20.2891C157.543 19.6953 157.246 19.0195 157.074 18.2617C156.902 17.5039 156.852 16.7031 156.922 15.8594ZM160.25 15.6133L160.227 15.8711C160.188 16.2461 160.176 16.6484 160.191 17.0781C160.207 17.5 160.273 17.9023 160.391 18.2852C160.516 18.668 160.719 18.9805 161 19.2227C161.281 19.4648 161.668 19.5938 162.16 19.6094C162.684 19.625 163.133 19.5195 163.508 19.293C163.883 19.0664 164.191 18.7617 164.434 18.3789C164.676 17.9883 164.867 17.5664 165.008 17.1133C165.148 16.6523 165.242 16.2031 165.289 15.7656L165.312 15.5195C165.344 15.1445 165.352 14.7422 165.336 14.3125C165.328 13.875 165.262 13.4648 165.137 13.082C165.012 12.6914 164.809 12.3711 164.527 12.1211C164.246 11.8711 163.859 11.7383 163.367 11.7227C162.844 11.6992 162.395 11.8086 162.02 12.0508C161.645 12.2852 161.336 12.5977 161.094 12.9883C160.852 13.3789 160.66 13.8047 160.52 14.2656C160.387 14.7266 160.297 15.1758 160.25 15.6133ZM174.477 12.2617L172.789 22H169.496L171.699 9.32031H174.793L174.477 12.2617ZM178.613 9.21484L178.203 12.3672C178.016 12.3359 177.824 12.3086 177.629 12.2852C177.441 12.2617 177.25 12.2461 177.055 12.2383C176.602 12.2305 176.191 12.2891 175.824 12.4141C175.457 12.5391 175.137 12.7227 174.863 12.9648C174.598 13.1992 174.371 13.4883 174.184 13.832C174.004 14.1758 173.867 14.5625 173.773 14.9922L173.129 14.7812C173.207 14.1797 173.336 13.5469 173.516 12.8828C173.703 12.2109 173.961 11.5859 174.289 11.0078C174.625 10.4219 175.051 9.94922 175.566 9.58984C176.09 9.22266 176.727 9.04297 177.477 9.05078C177.672 9.05078 177.859 9.06641 178.039 9.09766C178.227 9.12891 178.418 9.16797 178.613 9.21484ZM185.574 19.0469L188.176 4H191.492L188.375 22H185.41L185.574 19.0469ZM178.355 15.9062L178.379 15.6484C178.48 14.875 178.66 14.0938 178.918 13.3047C179.184 12.5156 179.543 11.7969 179.996 11.1484C180.457 10.5 181.023 9.98438 181.695 9.60156C182.367 9.21875 183.164 9.04297 184.086 9.07422C184.875 9.10547 185.527 9.32812 186.043 9.74219C186.559 10.1484 186.957 10.6758 187.238 11.3242C187.527 11.9648 187.723 12.6484 187.824 13.375C187.934 14.0938 187.977 14.7773 187.953 15.4258L187.895 15.9883C187.77 16.6836 187.559 17.4023 187.262 18.1445C186.973 18.8789 186.594 19.5625 186.125 20.1953C185.664 20.8203 185.113 21.3242 184.473 21.707C183.84 22.0898 183.117 22.2695 182.305 22.2461C181.453 22.2227 180.754 22.0156 180.207 21.625C179.668 21.2266 179.25 20.7148 178.953 20.0898C178.656 19.4648 178.465 18.7852 178.379 18.0508C178.293 17.3164 178.285 16.6016 178.355 15.9062ZM181.695 15.6367L181.672 15.8828C181.641 16.2188 181.621 16.5977 181.613 17.0195C181.613 17.4336 181.656 17.8359 181.742 18.2266C181.836 18.6094 182.004 18.9297 182.246 19.1875C182.496 19.4375 182.855 19.5742 183.324 19.5977C183.918 19.6211 184.43 19.4844 184.859 19.1875C185.289 18.8828 185.633 18.4922 185.891 18.0156C186.156 17.5391 186.332 17.0391 186.418 16.5156L186.641 14.957C186.68 14.5977 186.68 14.2344 186.641 13.8672C186.602 13.5 186.512 13.1562 186.371 12.8359C186.238 12.5156 186.035 12.2539 185.762 12.0508C185.496 11.8477 185.148 11.7422 184.719 11.7344C184.195 11.7109 183.75 11.8242 183.383 12.0742C183.023 12.3164 182.73 12.6367 182.504 13.0352C182.277 13.4258 182.098 13.8516 181.965 14.3125C181.84 14.7734 181.75 15.2148 181.695 15.6367ZM196.848 22.2344C195.98 22.2188 195.199 22.0547 194.504 21.7422C193.809 21.4219 193.227 20.9844 192.758 20.4297C192.297 19.875 191.957 19.2305 191.738 18.4961C191.52 17.7617 191.441 16.9727 191.504 16.1289L191.551 15.6484C191.645 14.7656 191.859 13.9258 192.195 13.1289C192.531 12.332 192.98 11.6289 193.543 11.0195C194.105 10.4023 194.77 9.92188 195.535 9.57812C196.309 9.22656 197.168 9.0625 198.113 9.08594C198.996 9.10156 199.75 9.28125 200.375 9.625C201 9.96875 201.504 10.4297 201.887 11.0078C202.27 11.5859 202.531 12.2461 202.672 12.9883C202.812 13.7227 202.84 14.4922 202.754 15.2969L202.566 16.7031H192.77L193.133 14.4531L199.602 14.4648L199.66 14.1719C199.723 13.7422 199.703 13.3438 199.602 12.9766C199.5 12.6016 199.309 12.3008 199.027 12.0742C198.746 11.8477 198.371 11.7266 197.902 11.7109C197.363 11.6953 196.91 11.8086 196.543 12.0508C196.176 12.293 195.875 12.6133 195.641 13.0117C195.406 13.4102 195.227 13.8438 195.102 14.3125C194.977 14.7734 194.887 15.2188 194.832 15.6484L194.785 16.1172C194.746 16.5312 194.758 16.9453 194.82 17.3594C194.883 17.7656 195.004 18.1328 195.184 18.4609C195.371 18.7891 195.625 19.0547 195.945 19.2578C196.273 19.4609 196.684 19.5703 197.176 19.5859C197.801 19.6016 198.375 19.4805 198.898 19.2227C199.43 18.957 199.906 18.6055 200.328 18.168L201.805 19.9492C201.453 20.4805 201.004 20.918 200.457 21.2617C199.918 21.5977 199.336 21.8438 198.711 22C198.086 22.1641 197.465 22.2422 196.848 22.2344ZM208.461 12.2617L206.773 22H203.48L205.684 9.32031H208.777L208.461 12.2617ZM212.598 9.21484L212.188 12.3672C212 12.3359 211.809 12.3086 211.613 12.2852C211.426 12.2617 211.234 12.2461 211.039 12.2383C210.586 12.2305 210.176 12.2891 209.809 12.4141C209.441 12.5391 209.121 12.7227 208.848 12.9648C208.582 13.1992 208.355 13.4883 208.168 13.832C207.988 14.1758 207.852 14.5625 207.758 14.9922L207.113 14.7812C207.191 14.1797 207.32 13.5469 207.5 12.8828C207.688 12.2109 207.945 11.5859 208.273 11.0078C208.609 10.4219 209.035 9.94922 209.551 9.58984C210.074 9.22266 210.711 9.04297 211.461 9.05078C211.656 9.05078 211.844 9.06641 212.023 9.09766C212.211 9.12891 212.402 9.16797 212.598 9.21484Z" fill="#3586FF"/>
<path d="M60.7383 211.598C61.1523 211.598 61.5195 211.52 61.8398 211.363C62.1602 211.199 62.4102 210.973 62.5898 210.684C62.7773 210.387 62.875 210.039 62.8828 209.641H66.0586C66.0508 210.531 65.8125 211.324 65.3438 212.02C64.875 212.707 64.2461 213.25 63.457 213.648C62.668 214.039 61.7852 214.234 60.8086 214.234C59.8242 214.234 58.9648 214.07 58.2305 213.742C57.5039 213.414 56.8984 212.961 56.4141 212.383C55.9297 211.797 55.5664 211.117 55.3242 210.344C55.082 209.562 54.9609 208.727 54.9609 207.836V207.496C54.9609 206.598 55.082 205.762 55.3242 204.988C55.5664 204.207 55.9297 203.527 56.4141 202.949C56.8984 202.363 57.5039 201.906 58.2305 201.578C58.957 201.25 59.8086 201.086 60.7852 201.086C61.8242 201.086 62.7344 201.285 63.5156 201.684C64.3047 202.082 64.9219 202.652 65.3672 203.395C65.8203 204.129 66.0508 205 66.0586 206.008H62.8828C62.875 205.586 62.7852 205.203 62.6133 204.859C62.4492 204.516 62.207 204.242 61.8867 204.039C61.5742 203.828 61.1875 203.723 60.7266 203.723C60.2344 203.723 59.832 203.828 59.5195 204.039C59.207 204.242 58.9648 204.523 58.793 204.883C58.6211 205.234 58.5 205.637 58.4297 206.09C58.3672 206.535 58.3359 207.004 58.3359 207.496V207.836C58.3359 208.328 58.3672 208.801 58.4297 209.254C58.4922 209.707 58.6094 210.109 58.7812 210.461C58.9609 210.812 59.207 211.09 59.5195 211.293C59.832 211.496 60.2383 211.598 60.7383 211.598ZM73.9922 196H77.3672V211.094L77.0273 214H73.9922V196ZM85.3945 207.531V207.777C85.3945 208.723 85.293 209.59 85.0898 210.379C84.8945 211.168 84.5898 211.852 84.1758 212.43C83.7617 213 83.2461 213.445 82.6289 213.766C82.0195 214.078 81.3008 214.234 80.4727 214.234C79.6992 214.234 79.0273 214.078 78.457 213.766C77.8945 213.453 77.4219 213.012 77.0391 212.441C76.6562 211.871 76.3477 211.203 76.1133 210.438C75.8789 209.672 75.7031 208.836 75.5859 207.93V207.391C75.7031 206.484 75.8789 205.648 76.1133 204.883C76.3477 204.117 76.6562 203.449 77.0391 202.879C77.4219 202.309 77.8945 201.867 78.457 201.555C79.0195 201.242 79.6836 201.086 80.4492 201.086C81.2852 201.086 82.0117 201.246 82.6289 201.566C83.2539 201.879 83.7695 202.324 84.1758 202.902C84.5898 203.473 84.8945 204.152 85.0898 204.941C85.293 205.723 85.3945 206.586 85.3945 207.531ZM82.0195 207.777V207.531C82.0195 207.016 81.9805 206.531 81.9023 206.078C81.832 205.617 81.707 205.215 81.5273 204.871C81.3477 204.52 81.1016 204.242 80.7891 204.039C80.4844 203.836 80.0898 203.734 79.6055 203.734C79.1445 203.734 78.7539 203.812 78.4336 203.969C78.1133 204.125 77.8477 204.344 77.6367 204.625C77.4336 204.906 77.2812 205.242 77.1797 205.633C77.0781 206.016 77.0156 206.438 76.9922 206.898V208.434C77.0156 209.051 77.1172 209.598 77.2969 210.074C77.4844 210.543 77.7656 210.914 78.1406 211.188C78.5234 211.453 79.0195 211.586 79.6289 211.586C80.1055 211.586 80.5 211.492 80.8125 211.305C81.125 211.117 81.3672 210.852 81.5391 210.508C81.7188 210.164 81.8438 209.762 81.9141 209.301C81.9844 208.832 82.0195 208.324 82.0195 207.777ZM100.312 211.141V205.492C100.312 205.086 100.246 204.738 100.113 204.449C99.9805 204.152 99.7734 203.922 99.4922 203.758C99.2188 203.594 98.8633 203.512 98.4258 203.512C98.0508 203.512 97.7266 203.578 97.4531 203.711C97.1797 203.836 96.9688 204.02 96.8203 204.262C96.6719 204.496 96.5977 204.773 96.5977 205.094H93.2227C93.2227 204.555 93.3477 204.043 93.5977 203.559C93.8477 203.074 94.2109 202.648 94.6875 202.281C95.1641 201.906 95.7305 201.613 96.3867 201.402C97.0508 201.191 97.793 201.086 98.6133 201.086C99.5977 201.086 100.473 201.25 101.238 201.578C102.004 201.906 102.605 202.398 103.043 203.055C103.488 203.711 103.711 204.531 103.711 205.516V210.941C103.711 211.637 103.754 212.207 103.84 212.652C103.926 213.09 104.051 213.473 104.215 213.801V214H100.805C100.641 213.656 100.516 213.227 100.43 212.711C100.352 212.188 100.312 211.664 100.312 211.141ZM100.758 206.277L100.781 208.188H98.8945C98.4492 208.188 98.0625 208.238 97.7344 208.34C97.4062 208.441 97.1367 208.586 96.9258 208.773C96.7148 208.953 96.5586 209.164 96.457 209.406C96.3633 209.648 96.3164 209.914 96.3164 210.203C96.3164 210.492 96.3828 210.754 96.5156 210.988C96.6484 211.215 96.8398 211.395 97.0898 211.527C97.3398 211.652 97.6328 211.715 97.9688 211.715C98.4766 211.715 98.918 211.613 99.293 211.41C99.668 211.207 99.957 210.957 100.16 210.66C100.371 210.363 100.48 210.082 100.488 209.816L101.379 211.246C101.254 211.566 101.082 211.898 100.863 212.242C100.652 212.586 100.383 212.91 100.055 213.215C99.7266 213.512 99.332 213.758 98.8711 213.953C98.4102 214.141 97.8633 214.234 97.2305 214.234C96.4258 214.234 95.6953 214.074 95.0391 213.754C94.3906 213.426 93.875 212.977 93.4922 212.406C93.1172 211.828 92.9297 211.172 92.9297 210.438C92.9297 209.773 93.0547 209.184 93.3047 208.668C93.5547 208.152 93.9219 207.719 94.4062 207.367C94.8984 207.008 95.5117 206.738 96.2461 206.559C96.9805 206.371 97.832 206.277 98.8008 206.277H100.758Z" fill="black"/>
<path d="M271.738 211.598C272.152 211.598 272.52 211.52 272.84 211.363C273.16 211.199 273.41 210.973 273.59 210.684C273.777 210.387 273.875 210.039 273.883 209.641H277.059C277.051 210.531 276.812 211.324 276.344 212.02C275.875 212.707 275.246 213.25 274.457 213.648C273.668 214.039 272.785 214.234 271.809 214.234C270.824 214.234 269.965 214.07 269.23 213.742C268.504 213.414 267.898 212.961 267.414 212.383C266.93 211.797 266.566 211.117 266.324 210.344C266.082 209.562 265.961 208.727 265.961 207.836V207.496C265.961 206.598 266.082 205.762 266.324 204.988C266.566 204.207 266.93 203.527 267.414 202.949C267.898 202.363 268.504 201.906 269.23 201.578C269.957 201.25 270.809 201.086 271.785 201.086C272.824 201.086 273.734 201.285 274.516 201.684C275.305 202.082 275.922 202.652 276.367 203.395C276.82 204.129 277.051 205 277.059 206.008H273.883C273.875 205.586 273.785 205.203 273.613 204.859C273.449 204.516 273.207 204.242 272.887 204.039C272.574 203.828 272.188 203.723 271.727 203.723C271.234 203.723 270.832 203.828 270.52 204.039C270.207 204.242 269.965 204.523 269.793 204.883C269.621 205.234 269.5 205.637 269.43 206.09C269.367 206.535 269.336 207.004 269.336 207.496V207.836C269.336 208.328 269.367 208.801 269.43 209.254C269.492 209.707 269.609 210.109 269.781 210.461C269.961 210.812 270.207 211.09 270.52 211.293C270.832 211.496 271.238 211.598 271.738 211.598ZM284.992 196H288.367V211.094L288.027 214H284.992V196ZM296.395 207.531V207.777C296.395 208.723 296.293 209.59 296.09 210.379C295.895 211.168 295.59 211.852 295.176 212.43C294.762 213 294.246 213.445 293.629 213.766C293.02 214.078 292.301 214.234 291.473 214.234C290.699 214.234 290.027 214.078 289.457 213.766C288.895 213.453 288.422 213.012 288.039 212.441C287.656 211.871 287.348 211.203 287.113 210.438C286.879 209.672 286.703 208.836 286.586 207.93V207.391C286.703 206.484 286.879 205.648 287.113 204.883C287.348 204.117 287.656 203.449 288.039 202.879C288.422 202.309 288.895 201.867 289.457 201.555C290.02 201.242 290.684 201.086 291.449 201.086C292.285 201.086 293.012 201.246 293.629 201.566C294.254 201.879 294.77 202.324 295.176 202.902C295.59 203.473 295.895 204.152 296.09 204.941C296.293 205.723 296.395 206.586 296.395 207.531ZM293.02 207.777V207.531C293.02 207.016 292.98 206.531 292.902 206.078C292.832 205.617 292.707 205.215 292.527 204.871C292.348 204.52 292.102 204.242 291.789 204.039C291.484 203.836 291.09 203.734 290.605 203.734C290.145 203.734 289.754 203.812 289.434 203.969C289.113 204.125 288.848 204.344 288.637 204.625C288.434 204.906 288.281 205.242 288.18 205.633C288.078 206.016 288.016 206.438 287.992 206.898V208.434C288.016 209.051 288.117 209.598 288.297 210.074C288.484 210.543 288.766 210.914 289.141 211.188C289.523 211.453 290.02 211.586 290.629 211.586C291.105 211.586 291.5 211.492 291.812 211.305C292.125 211.117 292.367 210.852 292.539 210.508C292.719 210.164 292.844 209.762 292.914 209.301C292.984 208.832 293.02 208.324 293.02 207.777ZM311.312 211.141V205.492C311.312 205.086 311.246 204.738 311.113 204.449C310.98 204.152 310.773 203.922 310.492 203.758C310.219 203.594 309.863 203.512 309.426 203.512C309.051 203.512 308.727 203.578 308.453 203.711C308.18 203.836 307.969 204.02 307.82 204.262C307.672 204.496 307.598 204.773 307.598 205.094H304.223C304.223 204.555 304.348 204.043 304.598 203.559C304.848 203.074 305.211 202.648 305.688 202.281C306.164 201.906 306.73 201.613 307.387 201.402C308.051 201.191 308.793 201.086 309.613 201.086C310.598 201.086 311.473 201.25 312.238 201.578C313.004 201.906 313.605 202.398 314.043 203.055C314.488 203.711 314.711 204.531 314.711 205.516V210.941C314.711 211.637 314.754 212.207 314.84 212.652C314.926 213.09 315.051 213.473 315.215 213.801V214H311.805C311.641 213.656 311.516 213.227 311.43 212.711C311.352 212.188 311.312 211.664 311.312 211.141ZM311.758 206.277L311.781 208.188H309.895C309.449 208.188 309.062 208.238 308.734 208.34C308.406 208.441 308.137 208.586 307.926 208.773C307.715 208.953 307.559 209.164 307.457 209.406C307.363 209.648 307.316 209.914 307.316 210.203C307.316 210.492 307.383 210.754 307.516 210.988C307.648 211.215 307.84 211.395 308.09 211.527C308.34 211.652 308.633 211.715 308.969 211.715C309.477 211.715 309.918 211.613 310.293 211.41C310.668 211.207 310.957 210.957 311.16 210.66C311.371 210.363 311.48 210.082 311.488 209.816L312.379 211.246C312.254 211.566 312.082 211.898 311.863 212.242C311.652 212.586 311.383 212.91 311.055 213.215C310.727 213.512 310.332 213.758 309.871 213.953C309.41 214.141 308.863 214.234 308.23 214.234C307.426 214.234 306.695 214.074 306.039 213.754C305.391 213.426 304.875 212.977 304.492 212.406C304.117 211.828 303.93 211.172 303.93 210.438C303.93 209.773 304.055 209.184 304.305 208.668C304.555 208.152 304.922 207.719 305.406 207.367C305.898 207.008 306.512 206.738 307.246 206.559C307.98 206.371 308.832 206.277 309.801 206.277H311.758Z" fill="black"/>
</svg>
